TangsaLakhumUnicode.sfdir
StartChar: Tangsa_letter_oz
Encoding: 92784 92784 4
Width: 228
Flags: W
LayerCount: 2
Fore
SplineSet
94 164 m 1,0,1
 135 164 135 164 160 140 c 1,2,-1
 160 165 l 1,3,-1
 160 235 l 2,4,5
 158 263 158 263 158 291 c 128,-1,6
 158 319 158 319 158 347 c 2,7,-1
 158 362 l 1,8,-1
 188 362 l 1,9,-1
 188 302 l 2,10,11
 189 286 189 286 189 269.5 c 128,-1,12
 189 253 189 253 189 236 c 0,13,14
 190 218 190 218 190 200 c 128,-1,15
 190 182 190 182 190 165 c 0,16,17
 190 142 190 142 188.5 119.5 c 128,-1,18
 187 97 187 97 185 74 c 0,19,20
 181 39 181 39 155 23.5 c 128,-1,21
 129 8 129 8 98 8 c 0,22,23
 63 8 63 8 38.5 31.5 c 128,-1,24
 14 55 14 55 14 90 c 0,25,26
 14 105 14 105 21 118.5 c 128,-1,27
 28 132 28 132 39.5 142 c 128,-1,28
 51 152 51 152 65 158 c 128,-1,29
 79 164 79 164 94 164 c 1,30,-1
 94 164 l 1,0,1
44 90 m 1,31,32
 44 67 44 67 59.5 52.5 c 128,-1,33
 75 38 75 38 98 38 c 0,34,35
 120 38 120 38 136 47 c 128,-1,36
 152 56 152 56 155 79 c 0,37,38
 155 81 155 81 155.5 84 c 128,-1,39
 156 87 156 87 156 89 c 2,40,-1
 152 98 l 2,41,42
 143 118 143 118 129.5 126 c 128,-1,43
 116 134 116 134 94 134 c 0,44,45
 86 134 86 134 77.5 130.5 c 128,-1,46
 69 127 69 127 61.5 121 c 128,-1,47
 54 115 54 115 49 107 c 128,-1,48
 44 99 44 99 44 90 c 1,49,-1
 44 90 l 1,31,32
EndSplineSet
Validated: 5
EndChar
StartChar: uniE401
Encoding: 92785 92785 5
Width: 324
Flags: W
LayerCount: 2
Fore
SplineSet
34 150 m 1,0,1
 64 182 64 182 132 205 c 0,2,3
 199 227 199 227 221 251 c 0,4,5
 244 275 244 275 242 289 c 0,6,7
 241 302 241 302 231 310 c 128,-1,8
 221 318 221 318 207.5 323 c 128,-1,9
 194 328 194 328 180 330 c 128,-1,10
 166 332 166 332 156 332 c 0,11,12
 132 332 132 332 115 327 c 128,-1,13
 98 322 98 322 78 311 c 0,14,15
 67 303 67 303 57.5 293.5 c 128,-1,16
 48 284 48 284 39 274 c 2,17,-1
 29 263 l 1,18,-1
 7 283 l 1,19,-1
 17 294 l 2,20,21
 48 328 48 328 79 345 c 128,-1,22
 110 362 110 362 156 362 c 0,23,24
 172 362 172 362 191.5 358.5 c 128,-1,25
 211 355 211 355 228 347 c 128,-1,26
 245 339 245 339 257 326 c 128,-1,27
 269 313 269 313 271 293 c 0,28,29
 273 276 273 276 265 260 c 128,-1,30
 257 244 257 244 243 229 c 0,31,32
 224 209 224 209 185 193 c 1,33,34
 243 169 243 169 271 141 c 0,35,36
 304 109 304 109 293 74 c 0,37,38
 287 54 287 54 270 41.5 c 128,-1,39
 253 29 253 29 232 21.5 c 128,-1,40
 211 14 211 14 188.5 11 c 128,-1,41
 166 8 166 8 148 8 c 256,42,43
 130 8 130 8 108.5 11.5 c 128,-1,44
 87 15 87 15 67.5 23.5 c 128,-1,45
 48 32 48 32 33 46 c 128,-1,46
 18 60 18 60 12 81 c 0,47,48
 7 99 7 99 13.5 116 c 128,-1,49
 20 133 20 133 34 150 c 1,50,-1
 34 150 l 1,0,1
41 89 m 1,51,52
 46 74 46 74 58 64 c 128,-1,53
 70 54 70 54 85.5 48 c 128,-1,54
 101 42 101 42 118 40 c 128,-1,55
 135 38 135 38 148 38 c 0,56,57
 159 38 159 38 177 40 c 128,-1,58
 195 42 195 42 213 46.5 c 128,-1,59
 231 51 231 51 245.5 60 c 128,-1,60
 260 69 260 69 264 82 c 0,61,62
 266 89 266 89 263.5 98 c 128,-1,63
 261 107 261 107 249 120 c 256,64,65
 237 133 237 133 215 145.5 c 128,-1,66
 193 158 193 158 158 171 c 2,67,-1
 144 176 l 1,68,-1
 145 178 l 1,69,70
 144 178 144 178 143.5 177.5 c 128,-1,71
 143 177 143 177 142 177 c 0,72,73
 110 166 110 166 89 154 c 128,-1,74
 68 142 68 142 57 129 c 0,75,76
 45 117 45 117 42 107 c 128,-1,77
 39 97 39 97 41 89 c 1,78,-1
 41 89 l 1,51,52
EndSplineSet
Validated: 33
EndChar
StartChar: uniE402
Encoding: 92786 92786 6
Width: 388
Flags: W
LayerCount: 2
Fore
SplineSet
18 212 m 1,0,1
 21 226 21 226 26.5 241.5 c 128,-1,2
 32 257 32 257 39.5 272.5 c 128,-1,3
 47 288 47 288 56 301 c 128,-1,4
 65 314 65 314 76 323 c 0,5,6
 98 340 98 340 116.5 350.5 c 128,-1,7
 135 361 135 361 164 361 c 0,8,9
 184 361 184 361 203.5 354 c 128,-1,10
 223 347 223 347 237 331 c 0,11,12
 239 332 239 332 242.5 332 c 128,-1,13
 246 332 246 332 249 332 c 0,14,15
 267 332 267 332 278.5 323 c 128,-1,16
 290 314 290 314 297 300.5 c 128,-1,17
 304 287 304 287 306.5 271 c 128,-1,18
 309 255 309 255 310 241 c 0,19,20
 312 207 312 207 301 166 c 0,21,22
 295 143 295 143 285 121 c 128,-1,23
 275 99 275 99 261 79 c 1,24,25
 270 63 270 63 280.5 53 c 128,-1,26
 291 43 291 43 302 43 c 256,27,28
 313 43 313 43 322 49.5 c 128,-1,29
 331 56 331 56 336 65 c 2,30,-1
 343 78 l 1,31,-1
 369 64 l 1,32,-1
 362 51 l 2,33,34
 352 33 352 33 337.5 23 c 128,-1,35
 323 13 323 13 302 13 c 0,36,37
 284 13 284 13 268.5 24.5 c 128,-1,38
 253 36 253 36 241 54 c 1,39,40
 221 33 221 33 196 20.5 c 128,-1,41
 171 8 171 8 139 8 c 0,42,43
 76 8 76 8 44.5 47 c 128,-1,44
 13 86 13 86 11 144 c 0,45,46
 10 161 10 161 12 178 c 128,-1,47
 14 195 14 195 18 212 c 1,48,-1
 18 212 l 1,0,1
41 144 m 1,49,50
 43 98 43 98 67 68 c 128,-1,51
 91 38 91 38 139 38 c 0,52,53
 166 38 166 38 187.5 49.5 c 128,-1,54
 209 61 209 61 226 81 c 1,55,56
 215 104 215 104 207.5 128.5 c 128,-1,57
 200 153 200 153 197 170 c 0,58,59
 193 190 193 190 191 207.5 c 128,-1,60
 189 225 189 225 190 242 c 256,61,62
 191 259 191 259 195.5 279.5 c 128,-1,63
 200 300 200 300 211 314 c 1,64,65
 192 331 192 331 166 331 c 0,66,67
 141 331 141 331 121.5 319.5 c 128,-1,68
 102 308 102 308 87 290 c 128,-1,69
 72 272 72 272 62 249.5 c 128,-1,70
 52 227 52 227 47 206 c 0,71,72
 39 176 39 176 41 144 c 1,73,-1
 41 144 l 1,49,50
272 174 m 1,74,75
 281 212 281 212 280 241 c 0,76,77
 278 273 278 273 269 288 c 0,78,79
 265 296 265 296 260 299 c 128,-1,80
 255 302 255 302 249 302 c 0,81,82
 240 302 240 302 234.5 295 c 128,-1,83
 229 288 229 288 226 278.5 c 128,-1,84
 223 269 223 269 221.5 259 c 128,-1,85
 220 249 220 249 220 242 c 0,86,87
 219 226 219 226 220 209.5 c 128,-1,88
 221 193 221 193 226 175 c 0,89,90
 228 165 228 165 233.5 147.5 c 128,-1,91
 239 130 239 130 247 110 c 1,92,93
 265 142 265 142 272 174 c 1,94,-1
 272 174 l 1,74,75
EndSplineSet
Validated: 33
EndChar
StartChar: uniE403
Encoding: 92787 92787 7
Width: 292
Flags: W
LayerCount: 2
Fore
SplineSet
98 361 m 1,0,1
 131 361 131 361 149.5 349.5 c 128,-1,2
 168 338 168 338 177 318.5 c 128,-1,3
 186 299 186 299 188 275 c 128,-1,4
 190 251 190 251 190 225 c 0,5,6
 190 217 190 217 190 209.5 c 128,-1,7
 190 202 190 202 189 196 c 0,8,9
 189 190 189 190 189 184 c 128,-1,10
 189 178 189 178 188 173 c 2,11,-1
 188 166 l 1,12,-1
 239 179 l 2,13,14
 241 180 241 180 244 180 c 0,15,16
 258 180 258 180 258 165 c 2,17,-1
 258 119 l 1,18,-1
 228 119 l 1,19,-1
 228 145 l 1,20,-1
 188 134 l 1,21,-1
 185 23 l 2,22,23
 185 7 185 7 172 7 c 0,24,25
 165 7 165 7 160 11 c 2,26,-1
 50 103 l 2,27,28
 42 111 42 111 43.5 119 c 128,-1,29
 45 127 45 127 56 129 c 2,30,-1
 158 158 l 1,31,32
 158 163 158 163 158 167 c 128,-1,33
 158 171 158 171 159 175 c 0,34,35
 159 180 159 180 159 185.5 c 128,-1,36
 159 191 159 191 160 197 c 0,37,38
 160 205 160 205 160 213.5 c 128,-1,39
 160 222 160 222 159 230 c 1,40,41
 132 205 132 205 94 205 c 0,42,43
 80 205 80 205 65.5 211 c 128,-1,44
 51 217 51 217 39.5 227 c 128,-1,45
 28 237 28 237 21 250.5 c 128,-1,46
 14 264 14 264 14 279 c 0,47,48
 14 316 14 316 38.5 338.5 c 128,-1,49
 63 361 63 361 98 361 c 1,50,-1
 98 361 l 1,0,1
94 235 m 1,51,52
 135 235 135 235 152 271 c 2,53,-1
 156 279 l 2,54,55
 156 282 156 282 155.5 284.5 c 128,-1,56
 155 287 155 287 155 290 c 0,57,58
 153 313 153 313 136 322 c 128,-1,59
 119 331 119 331 98 331 c 0,60,61
 75 331 75 331 59.5 316.5 c 128,-1,62
 44 302 44 302 44 279 c 0,63,64
 44 270 44 270 48.5 262 c 128,-1,65
 53 254 53 254 60.5 248 c 128,-1,66
 68 242 68 242 77 238.5 c 128,-1,67
 86 235 86 235 94 235 c 1,68,-1
 94 235 l 1,51,52
156 54 m 1,69,-1
 157 126 l 1,70,-1
 92 108 l 1,71,-1
 156 54 l 1,69,-1
EndSplineSet
Validated: 37
EndChar
StartChar: uniE404
Encoding: 92788 92788 8
Width: 316
Flags: W
LayerCount: 2
Fore
SplineSet
10 71 m 1,0,-1
 12 347 l 1,1,-1
 12 362 l 1,2,-1
 42 362 l 1,3,-1
 42 347 l 1,4,-1
 40 71 l 1,5,-1
 40 41 l 1,6,7
 41 41 41 41 45 44 c 128,-1,8
 49 47 49 47 53.5 51 c 128,-1,9
 58 55 58 55 62 59 c 128,-1,10
 66 63 66 63 67 64 c 0,11,12
 81 78 81 78 94.5 88 c 128,-1,13
 108 98 108 98 128 98 c 0,14,15
 143 98 143 98 156.5 88 c 128,-1,16
 170 78 170 78 178 66 c 0,17,18
 181 61 181 61 188 54 c 128,-1,19
 195 47 195 47 201 47 c 0,20,21
 214 47 214 47 228 60 c 128,-1,22
 242 73 242 73 250 82 c 2,23,-1
 260 93 l 1,24,-1
 282 73 l 1,25,-1
 272 62 l 2,26,27
 259 48 259 48 240 32.5 c 128,-1,28
 221 17 221 17 201 17 c 0,29,30
 187 17 187 17 175.5 26.5 c 128,-1,31
 164 36 164 36 156 47 c 0,32,33
 151 54 151 54 143 61 c 128,-1,34
 135 68 135 68 126 68 c 0,35,36
 119 68 119 68 111 63 c 0,37,38
 99 54 99 54 88 43 c 0,39,40
 82 37 82 37 76 31.5 c 128,-1,41
 70 26 70 26 64 21 c 0,42,43
 52 10 52 10 33 10 c 0,44,45
 21 10 21 10 15.5 21 c 128,-1,46
 10 32 10 32 10 43 c 2,47,-1
 10 71 l 1,0,-1
EndSplineSet
Validated: 1
EndChar
StartChar: uniE405
Encoding: 92789 92789 9
Width: 284
Flags: W
LayerCount: 2
Fore
SplineSet
201 148 m 1,0,1
 181 141 181 141 163.5 130 c 128,-1,2
 146 119 146 119 138 98 c 0,3,4
 136 93 136 93 136 88 c 128,-1,5
 136 83 136 83 135 78 c 0,6,7
 135 75 135 75 136 68.5 c 128,-1,8
 137 62 137 62 139 55.5 c 128,-1,9
 141 49 141 49 144 44 c 128,-1,10
 147 39 147 39 152 39 c 0,11,12
 155 38 155 38 163 38 c 0,13,14
 165 39 165 39 168 40 c 128,-1,15
 171 41 171 41 174 43 c 0,16,17
 178 45 178 45 181.5 48 c 128,-1,18
 185 51 185 51 188 53 c 0,19,20
 192 56 192 56 195 64 c 128,-1,21
 198 72 198 72 200 81 c 128,-1,22
 202 90 202 90 203 99 c 128,-1,23
 204 108 204 108 204 113 c 0,24,25
 205 130 205 130 201 148 c 1,26,-1
 201 148 l 1,0,1
41 144 m 1,27,28
 49 158 49 158 62 174 c 128,-1,29
 75 190 75 190 91 203.5 c 128,-1,30
 107 217 107 217 125 226 c 128,-1,31
 143 235 143 235 161 235 c 0,32,33
 185 235 185 235 199.5 220.5 c 128,-1,34
 214 206 214 206 223 185 c 0,35,36
 226 186 226 186 228.5 186 c 128,-1,37
 231 186 231 186 234 187 c 2,38,-1
 249 190 l 1,39,-1
 255 160 l 1,40,-1
 240 157 l 2,41,42
 238 156 238 156 235.5 156 c 128,-1,43
 233 156 233 156 231 155 c 0,44,45
 235 133 235 133 234 111 c 0,46,47
 232 79 232 79 224.5 57.5 c 128,-1,48
 217 36 217 36 191 18 c 0,49,50
 179 10 179 10 167 9 c 0,51,52
 164 8 164 8 158 8 c 0,53,54
 149 8 149 8 144 9 c 0,55,56
 130 14 130 14 121.5 25.5 c 128,-1,57
 113 37 113 37 108 51 c 0,58,59
 106 59 106 59 105.5 65.5 c 128,-1,60
 105 72 105 72 106 80 c 0,61,62
 106 91 106 91 110 104.5 c 128,-1,63
 114 118 114 118 119 129 c 2,64,-1
 120 131 l 2,65,66
 130 151 130 151 151 160.5 c 128,-1,67
 172 170 172 170 193 177 c 1,68,69
 189 187 189 187 181 196 c 128,-1,70
 173 205 173 205 161 205 c 0,71,72
 151 205 151 205 136 198 c 0,73,74
 110 186 110 186 92.5 167 c 128,-1,75
 75 148 75 148 64.5 125 c 128,-1,76
 54 102 54 102 48.5 75.5 c 128,-1,77
 43 49 43 49 41 23 c 0,78,79
 40 15 40 15 35.5 11.5 c 128,-1,80
 31 8 31 8 26 8 c 0,81,82
 20 8 20 8 15.5 12 c 128,-1,83
 11 16 11 16 11 24 c 2,84,-1
 11 362 l 1,85,-1
 41 362 l 1,86,-1
 41 144 l 1,87,-1
 41 144 l 1,27,28
EndSplineSet
Validated: 37
EndChar
StartChar: uniE406
Encoding: 92790 92790 10
Width: 268
Flags: W
LayerCount: 2
Fore
SplineSet
11 347 m 1,0,-1
 11 362 l 1,1,-1
 41 362 l 1,2,-1
 41 347 l 1,3,-1
 40 145 l 1,4,5
 53 155 53 155 71 155 c 0,6,7
 94 155 94 155 109 138.5 c 128,-1,8
 124 122 124 122 131 101 c 1,9,10
 137 121 137 121 149.5 138 c 128,-1,11
 162 155 162 155 185 155 c 0,12,13
 199 155 199 155 208.5 148.5 c 128,-1,14
 218 142 218 142 224.5 131.5 c 128,-1,15
 231 121 231 121 235 109 c 128,-1,16
 239 97 239 97 242 86 c 0,17,18
 246 59 246 59 248 24 c 2,19,-1
 248 9 l 1,20,-1
 218 9 l 1,21,-1
 218 24 l 2,22,23
 218 31 218 31 216.5 47.5 c 128,-1,24
 215 64 215 64 211.5 81.5 c 128,-1,25
 208 99 208 99 201.5 112 c 128,-1,26
 195 125 195 125 185 125 c 0,27,28
 176 125 176 125 169.5 113 c 128,-1,29
 163 101 163 101 158.5 85.5 c 128,-1,30
 154 70 154 70 151.5 54.5 c 128,-1,31
 149 39 149 39 149 33 c 0,32,33
 146 22 146 22 140 19.5 c 128,-1,34
 134 17 134 17 132 17 c 0,35,36
 124 17 124 17 119 23.5 c 128,-1,37
 114 30 114 30 114 38 c 0,38,39
 113 42 113 42 113 47 c 128,-1,40
 113 52 113 52 111 57 c 256,41,42
 109 62 109 62 108.5 68 c 128,-1,43
 108 74 108 74 106 82 c 0,44,45
 104 88 104 88 101.5 94 c 128,-1,46
 99 100 99 100 97 105 c 0,47,48
 94 112 94 112 86.5 118.5 c 128,-1,49
 79 125 79 125 71 125 c 0,50,51
 61 125 61 125 55 118.5 c 128,-1,52
 49 112 49 112 45.5 102.5 c 128,-1,53
 42 93 42 93 40.5 83 c 128,-1,54
 39 73 39 73 39 65 c 2,55,-1
 39 24 l 2,56,57
 39 16 39 16 34.5 12 c 128,-1,58
 30 8 30 8 24 8 c 0,59,60
 19 8 19 8 14 12 c 128,-1,61
 9 16 9 16 9 24 c 2,62,-1
 9 41 l 1,63,-1
 11 347 l 1,0,-1
EndSplineSet
Validated: 1
EndChar
StartChar: uniE407
Encoding: 92791 92791 11
Width: 377
Flags: W
LayerCount: 2
Fore
SplineSet
41 192 m 1,0,-1
 41 87 l 2,1,2
 41 61 41 61 51 50.5 c 128,-1,3
 61 40 61 40 87 40 c 0,4,5
 104 40 104 40 114.5 59 c 128,-1,6
 125 78 125 78 131 103 c 128,-1,7
 137 128 137 128 139.5 153 c 128,-1,8
 142 178 142 178 143 190 c 0,9,10
 145 207 145 207 157 207 c 0,11,12
 166 207 166 207 172 195 c 2,13,-1
 234 64 l 1,14,-1
 335 363 l 1,15,-1
 363 353 l 1,16,-1
 250 19 l 2,17,18
 245 6 245 6 237 6 c 0,19,20
 228 6 228 6 222 18 c 2,21,-1
 168 133 l 1,22,23
 166 125 166 125 165.5 118 c 128,-1,24
 165 111 165 111 163 104 c 0,25,26
 160 90 160 90 154.5 73.5 c 128,-1,27
 149 57 149 57 140 43 c 128,-1,28
 131 29 131 29 118 19.5 c 128,-1,29
 105 10 105 10 87 10 c 0,30,31
 50 10 50 10 30.5 30 c 128,-1,32
 11 50 11 50 11 87 c 2,33,-1
 11 192 l 1,34,-1
 41 192 l 1,0,-1
EndSplineSet
Validated: 1
EndChar
StartChar: uniE454
Encoding: 92792 92792 12
Width: 328
Flags: W
LayerCount: 2
Fore
SplineSet
36 252 m 1,0,-1
 36 327 l 2,1,2
 36 344 36 344 49 344 c 0,3,4
 55 344 55 344 61 338 c 2,5,-1
 134 272 l 2,6,7
 142 264 142 264 140.5 256.5 c 128,-1,8
 139 249 139 249 128 247 c 2,9,-1
 66 230 l 1,10,-1
 66 179 l 1,11,-1
 64 51 l 1,12,-1
 64 21 l 1,13,14
 65 21 65 21 69 24 c 128,-1,15
 73 27 73 27 77.5 31 c 128,-1,16
 82 35 82 35 86 39 c 128,-1,17
 90 43 90 43 91 44 c 0,18,19
 105 58 105 58 118.5 68 c 128,-1,20
 132 78 132 78 152 78 c 0,21,22
 167 78 167 78 180.5 68 c 128,-1,23
 194 58 194 58 202 46 c 0,24,25
 205 41 205 41 212 34 c 128,-1,26
 219 27 219 27 225 27 c 0,27,28
 238 27 238 27 252 40 c 128,-1,29
 266 53 266 53 274 62 c 2,30,-1
 284 73 l 1,31,-1
 306 53 l 1,32,-1
 296 42 l 2,33,34
 283 28 283 28 264 12.5 c 128,-1,35
 245 -3 245 -3 225 -3 c 0,36,37
 211 -3 211 -3 199.5 6.5 c 128,-1,38
 188 16 188 16 180 27 c 0,39,40
 175 34 175 34 167 41 c 128,-1,41
 159 48 159 48 150 48 c 0,42,43
 143 48 143 48 135 43 c 0,44,45
 123 34 123 34 112 23 c 0,46,47
 106 17 106 17 100 11.5 c 128,-1,48
 94 6 94 6 88 1 c 0,49,50
 76 -10 76 -10 57 -10 c 0,51,52
 45 -10 45 -10 39.5 1 c 128,-1,53
 34 12 34 12 34 23 c 2,54,-1
 34 51 l 1,55,-1
 36 194 l 1,56,-1
 36 222 l 1,57,-1
 -2 211 l 1,58,-1
 -10 239 l 1,59,-1
 36 252 l 1,0,-1
66 293 m 1,60,-1
 66 261 l 1,61,-1
 94 268 l 1,62,-1
 66 293 l 1,60,-1
EndSplineSet
Validated: 33
EndChar
StartChar: uniE455
Encoding: 92793 92793 13
Width: 292
Flags: W
LayerCount: 2
Fore
SplineSet
210 146 m 1,0,1
 191 139 191 139 175.5 128.5 c 128,-1,2
 160 118 160 118 153 98 c 0,3,4
 151 93 151 93 151 88 c 128,-1,5
 151 83 151 83 150 78 c 0,6,7
 150 54 150 54 165 39 c 0,8,9
 167 39 167 39 168 40 c 0,10,11
 172 42 172 42 180.5 49 c 128,-1,12
 189 56 189 56 191 59 c 0,13,14
 196 61 196 61 199.5 68.5 c 128,-1,15
 203 76 203 76 205 85 c 128,-1,16
 207 94 207 94 208.5 103 c 128,-1,17
 210 112 210 112 210 117 c 0,18,19
 211 132 211 132 210 146 c 1,20,-1
 210 146 l 1,0,1
94 288 m 1,21,-1
 66 313 l 1,22,-1
 66 281 l 1,23,-1
 94 288 l 1,21,-1
36 347 m 1,24,25
 36 364 36 364 49 364 c 0,26,27
 55 364 55 364 61 358 c 2,28,-1
 134 292 l 2,29,30
 142 284 142 284 140.5 276.5 c 128,-1,31
 139 269 139 269 128 267 c 2,32,-1
 66 250 l 1,33,-1
 66 156 l 1,34,35
 72 168 72 168 84 182 c 128,-1,36
 96 196 96 196 111.5 208 c 128,-1,37
 127 220 127 220 143.5 227.5 c 128,-1,38
 160 235 160 235 175 235 c 0,39,40
 199 235 199 235 213.5 221 c 128,-1,41
 228 207 228 207 234 184 c 1,42,-1
 249 187 l 1,43,-1
 264 190 l 1,44,-1
 270 160 l 1,45,-1
 255 157 l 1,46,-1
 240 154 l 1,47,48
 242 135 242 135 240 115 c 0,49,50
 238 97 238 97 231.5 72.5 c 128,-1,51
 225 48 225 48 211 35 c 0,52,53
 207 33 207 33 204 30 c 128,-1,54
 201 27 201 27 198 24 c 0,55,56
 183 9 183 9 166 9 c 256,57,58
 149 9 149 9 138.5 23 c 128,-1,59
 128 37 128 37 123 51 c 0,60,61
 121 59 121 59 120.5 65.5 c 128,-1,62
 120 72 120 72 121 80 c 0,63,64
 121 91 121 91 125 104.5 c 128,-1,65
 129 118 129 118 134 129 c 2,66,-1
 135 131 l 2,67,68
 145 151 145 151 165 160 c 128,-1,69
 185 169 185 169 206 176 c 1,70,71
 203 185 203 185 195 195.5 c 128,-1,72
 187 206 187 206 176 206 c 0,73,74
 166 206 166 206 151 198 c 0,75,76
 124 183 124 183 108 164 c 128,-1,77
 92 145 92 145 83.5 122.5 c 128,-1,78
 75 100 75 100 71.5 75 c 128,-1,79
 68 50 68 50 66 23 c 0,80,81
 65 15 65 15 60.5 11.5 c 128,-1,82
 56 8 56 8 51 8 c 0,83,84
 45 8 45 8 40.5 12 c 128,-1,85
 36 16 36 16 36 24 c 2,86,-1
 36 242 l 1,87,-1
 -2 231 l 1,88,-1
 -10 259 l 1,89,-1
 36 272 l 1,90,-1
 36 347 l 1,91,-1
 36 347 l 1,24,25
EndSplineSet
Validated: 37
EndChar
StartChar: uniE456
Encoding: 92794 92794 14
Width: 300
Flags: W
LayerCount: 2
Fore
SplineSet
36 272 m 1,0,-1
 36 347 l 2,1,2
 36 364 36 364 49 364 c 0,3,4
 55 364 55 364 61 358 c 2,5,-1
 134 292 l 2,6,7
 142 284 142 284 140.5 276.5 c 128,-1,8
 139 269 139 269 128 267 c 2,9,-1
 66 250 l 1,10,-1
 66 199 l 1,11,-1
 65 146 l 1,12,13
 71 152 71 152 79 153.5 c 128,-1,14
 87 155 87 155 96 155 c 0,15,16
 119 155 119 155 134 138.5 c 128,-1,17
 149 122 149 122 156 101 c 1,18,19
 162 121 162 121 174.5 138 c 128,-1,20
 187 155 187 155 210 155 c 0,21,22
 224 155 224 155 233.5 148.5 c 128,-1,23
 243 142 243 142 249.5 131.5 c 128,-1,24
 256 121 256 121 260 109 c 128,-1,25
 264 97 264 97 267 86 c 0,26,27
 271 59 271 59 273 24 c 2,28,-1
 273 9 l 1,29,-1
 243 9 l 1,30,-1
 243 24 l 2,31,32
 243 31 243 31 241.5 47.5 c 128,-1,33
 240 64 240 64 236.5 81.5 c 128,-1,34
 233 99 233 99 226.5 112 c 128,-1,35
 220 125 220 125 210 125 c 0,36,37
 201 125 201 125 194.5 113 c 128,-1,38
 188 101 188 101 183.5 85.5 c 128,-1,39
 179 70 179 70 176.5 54.5 c 128,-1,40
 174 39 174 39 174 33 c 0,41,42
 171 22 171 22 165 19.5 c 128,-1,43
 159 17 159 17 157 17 c 0,44,45
 149 17 149 17 144 23.5 c 128,-1,46
 139 30 139 30 139 38 c 0,47,48
 138 42 138 42 138 47 c 128,-1,49
 138 52 138 52 136 57 c 256,50,51
 134 62 134 62 133.5 68 c 128,-1,52
 133 74 133 74 131 82 c 0,53,54
 129 88 129 88 126.5 94 c 128,-1,55
 124 100 124 100 122 105 c 0,56,57
 119 112 119 112 111.5 118.5 c 128,-1,58
 104 125 104 125 96 125 c 0,59,60
 86 125 86 125 80 119 c 0,61,62
 72 111 72 111 69 95.5 c 128,-1,63
 66 80 66 80 64 67 c 2,64,-1
 64 24 l 2,65,66
 64 16 64 16 59.5 12 c 128,-1,67
 55 8 55 8 49 8 c 0,68,69
 44 8 44 8 39 12 c 128,-1,70
 34 16 34 16 34 24 c 2,71,-1
 34 46 l 1,72,-1
 36 213 l 1,73,-1
 36 242 l 1,74,-1
 -2 231 l 1,75,-1
 -10 259 l 1,76,-1
 36 272 l 1,0,-1
66 313 m 1,77,-1
 66 281 l 1,78,-1
 94 288 l 1,79,-1
 66 313 l 1,77,-1
EndSplineSet
Validated: 33
EndChar
StartChar: uniE457
Encoding: 92795 92795 15
Width: 396
Flags: W
LayerCount: 2
Fore
SplineSet
36 203 m 2,0,1
 36 220 36 220 49 220 c 0,2,3
 55 220 55 220 61 214 c 2,4,-1
 134 148 l 2,5,6
 142 140 142 140 140.5 132.5 c 128,-1,7
 139 125 139 125 128 123 c 2,8,-1
 66 106 l 1,9,-1
 66 87 l 2,10,11
 66 61 66 61 76 50.5 c 128,-1,12
 86 40 86 40 112 40 c 0,13,14
 129 40 129 40 139.5 59 c 128,-1,15
 150 78 150 78 156 103 c 128,-1,16
 162 128 162 128 164.5 153 c 128,-1,17
 167 178 167 178 168 190 c 0,18,19
 170 207 170 207 182 207 c 0,20,21
 191 207 191 207 197 195 c 2,22,-1
 259 64 l 1,23,-1
 360 363 l 1,24,-1
 388 353 l 1,25,-1
 275 19 l 2,26,27
 270 6 270 6 262 6 c 0,28,29
 253 6 253 6 247 18 c 2,30,-1
 193 133 l 1,31,32
 191 125 191 125 190.5 118 c 128,-1,33
 190 111 190 111 188 104 c 0,34,35
 185 90 185 90 179.5 73.5 c 128,-1,36
 174 57 174 57 165 43 c 128,-1,37
 156 29 156 29 143 19.5 c 128,-1,38
 130 10 130 10 112 10 c 0,39,40
 77 10 77 10 57.5 28.5 c 128,-1,41
 38 47 38 47 36 82 c 2,42,-1
 36 98 l 1,43,-1
 -2 87 l 1,44,-1
 -10 115 l 1,45,-1
 36 128 l 1,46,-1
 36 203 l 2,0,1
66 169 m 1,47,-1
 66 137 l 1,48,-1
 94 144 l 1,49,-1
 66 169 l 1,47,-1
EndSplineSet
Validated: 33
EndChar
StartChar: uniE408
Encoding: 92796 92796 16
Width: 335
Flags: W
LayerCount: 2
Fore
SplineSet
10 332 m 1,0,-1
 10 362 l 1,1,-1
 285 362 l 2,2,3
 293 362 293 362 297 357.5 c 128,-1,4
 301 353 301 353 301 347 c 128,-1,5
 301 341 301 341 297 336.5 c 128,-1,6
 293 332 293 332 285 332 c 0,7,8
 263 332 263 332 229 330 c 128,-1,9
 195 328 195 328 163 319.5 c 128,-1,10
 131 311 131 311 108.5 293 c 128,-1,11
 86 275 86 275 86 243 c 0,12,13
 86 233 86 233 98 226.5 c 128,-1,14
 110 220 110 220 126.5 216 c 128,-1,15
 143 212 143 212 159 210.5 c 128,-1,16
 175 209 175 209 183 209 c 2,17,-1
 236 209 l 2,18,19
 248 210 248 210 258.5 210 c 128,-1,20
 269 210 269 210 277 211 c 2,21,-1
 291 211 l 2,22,23
 302 210 302 210 305.5 204 c 128,-1,24
 309 198 309 198 309 195 c 0,25,26
 309 193 309 193 305.5 186.5 c 128,-1,27
 302 180 302 180 290 179 c 2,28,-1
 274 179 l 2,29,30
 250 179 250 179 211 177 c 128,-1,31
 172 175 172 175 134 166 c 128,-1,32
 96 157 96 157 68.5 138 c 128,-1,33
 41 119 41 119 41 84 c 0,34,35
 41 58 41 58 56 48 c 128,-1,36
 71 38 71 38 95 36 c 0,37,38
 144 36 144 36 191.5 48.5 c 128,-1,39
 239 61 239 61 284 80 c 2,40,-1
 298 86 l 1,41,-1
 310 58 l 1,42,-1
 296 52 l 2,43,44
 259 36 259 36 225 26 c 128,-1,45
 191 16 191 16 161 11 c 0,46,47
 143 8 143 8 126 6.5 c 128,-1,48
 109 5 109 5 94 7 c 0,49,50
 58 9 58 9 34.5 27 c 128,-1,51
 11 45 11 45 11 84 c 0,52,53
 11 115 11 115 25.5 136 c 128,-1,54
 40 157 40 157 63.5 171 c 128,-1,55
 87 185 87 185 117 192.5 c 128,-1,56
 147 200 147 200 178 204 c 128,-1,57
 209 208 209 208 238 208.5 c 128,-1,58
 267 209 267 209 288 209 c 1,59,60
 288 208 288 208 287.5 202 c 128,-1,61
 287 196 287 196 279 195 c 1,62,63
 287 194 287 194 288 188.5 c 128,-1,64
 289 183 289 183 289 181 c 1,65,-1
 278 181 l 2,66,67
 270 180 270 180 259.5 180 c 128,-1,68
 249 180 249 180 236 180 c 0,69,70
 211 179 211 179 182 180 c 0,71,72
 167 180 167 180 145.5 182 c 128,-1,73
 124 184 124 184 104 190.5 c 128,-1,74
 84 197 84 197 70 209.5 c 128,-1,75
 56 222 56 222 56 243 c 0,76,77
 56 275 56 275 71.5 296.5 c 128,-1,78
 87 318 87 318 113 332 c 1,79,-1
 10 332 l 1,0,-1
EndSplineSet
Validated: 37
EndChar
StartChar: uniE409
Encoding: 92797 92797 17
Width: 356
Flags: W
LayerCount: 2
Fore
SplineSet
333 38 m 1,0,-1
 333 8 l 1,1,-1
 27 8 l 2,2,3
 17 8 17 8 14 16.5 c 128,-1,4
 11 25 11 25 11 33 c 0,5,6
 10 37 10 37 10 41 c 0,7,8
 10 78 10 78 31 104 c 128,-1,9
 52 130 52 130 82.5 148 c 128,-1,10
 113 166 113 166 149 176.5 c 128,-1,11
 185 187 185 187 215 193 c 0,12,13
 226 195 226 195 246.5 197 c 128,-1,14
 267 199 267 199 296 200 c 0,15,16
 304 200 304 200 308 195.5 c 128,-1,17
 312 191 312 191 312.5 185.5 c 128,-1,18
 313 180 313 180 309.5 175 c 128,-1,19
 306 170 306 170 298 170 c 0,20,21
 260 168 260 168 225.5 168 c 128,-1,22
 191 168 191 168 161 170 c 0,23,24
 155 170 155 170 148.5 170.5 c 128,-1,25
 142 171 142 171 136 172 c 0,26,27
 124 172 124 172 110 175 c 0,28,29
 97 177 97 177 80 180.5 c 128,-1,30
 63 184 63 184 47.5 191.5 c 128,-1,31
 32 199 32 199 21.5 210.5 c 128,-1,32
 11 222 11 222 11 239 c 0,33,34
 11 273 11 273 28 294 c 128,-1,35
 45 315 45 315 71 332 c 1,36,-1
 10 332 l 1,37,-1
 10 362 l 1,38,-1
 315 362 l 2,39,40
 323 362 323 362 327 357.5 c 128,-1,41
 331 353 331 353 331 347 c 128,-1,42
 331 341 331 341 327 336.5 c 128,-1,43
 323 332 323 332 315 332 c 2,44,-1
 173 332 l 2,45,46
 154 330 154 330 131 324 c 128,-1,47
 108 318 108 318 88 307 c 128,-1,48
 68 296 68 296 54.5 279.5 c 128,-1,49
 41 263 41 263 41 239 c 0,50,51
 41 232 41 232 47 226 c 0,52,53
 52 221 52 221 58 218.5 c 128,-1,54
 64 216 64 216 73 213 c 256,55,56
 82 210 82 210 92.5 208 c 128,-1,57
 103 206 103 206 115 204 c 0,58,59
 126 202 126 202 138.5 201.5 c 128,-1,60
 151 201 151 201 163 200 c 0,61,62
 192 198 192 198 225 198 c 128,-1,63
 258 198 258 198 296 200 c 1,64,-1
 298 170 l 1,65,66
 279 170 279 170 252.5 167 c 128,-1,67
 226 164 226 164 197 157.5 c 128,-1,68
 168 151 168 151 140 141.5 c 128,-1,69
 112 132 112 132 90 117.5 c 128,-1,70
 68 103 68 103 54 83 c 128,-1,71
 40 63 40 63 40 38 c 1,72,-1
 333 38 l 1,0,-1
EndSplineSet
Validated: 5
EndChar
StartChar: uniE40A
Encoding: 92798 92798 18
Width: 264
Flags: W
LayerCount: 2
Fore
SplineSet
67 323 m 1,0,1
 60 322 60 322 56 316 c 0,2,3
 51 309 51 309 45.5 301.5 c 128,-1,4
 40 294 40 294 33 286 c 2,5,-1
 23 274 l 1,6,-1
 0 293 l 1,7,-1
 9 304 l 2,8,9
 16 312 16 312 21.5 319.5 c 128,-1,10
 27 327 27 327 32 334 c 0,11,12
 48 354 48 354 74 354 c 0,13,14
 86 354 86 354 92 346.5 c 128,-1,15
 98 339 98 339 97 328 c 0,16,17
 97 315 97 315 93 300 c 0,18,19
 91 292 91 292 89 283.5 c 128,-1,20
 87 275 87 275 85 266 c 0,21,22
 81 251 81 251 81 237 c 0,23,24
 83 227 83 227 87 222 c 0,25,26
 89 220 89 220 92.5 218.5 c 128,-1,27
 96 217 96 217 107 218 c 0,28,29
 125 218 125 218 140 226.5 c 128,-1,30
 155 235 155 235 165.5 248 c 128,-1,31
 176 261 176 261 182.5 277.5 c 128,-1,32
 189 294 189 294 191 310 c 0,33,34
 191 321 191 321 187 329 c 0,35,36
 185 331 185 331 183 331 c 1,37,-1
 183 322 l 2,38,39
 182 311 182 311 182.5 296 c 128,-1,40
 183 281 183 281 183 264 c 0,41,42
 184 245 184 245 184.5 225.5 c 128,-1,43
 185 206 185 206 185 185 c 0,44,45
 186 162 186 162 184 142 c 128,-1,46
 182 122 182 122 178 103 c 0,47,48
 170 63 170 63 145 35.5 c 128,-1,49
 120 8 120 8 76 8 c 0,50,51
 65 8 65 8 54.5 11 c 128,-1,52
 44 14 44 14 39 25 c 0,53,54
 34 33 34 33 34 43 c 128,-1,55
 34 53 34 53 37 62 c 0,56,57
 45 87 45 87 66 110 c 128,-1,58
 87 133 87 133 113 152 c 128,-1,59
 139 171 139 171 168 186 c 128,-1,60
 197 201 197 201 222 210 c 2,61,-1
 236 215 l 1,62,-1
 246 187 l 1,63,-1
 232 182 l 2,64,65
 212 175 212 175 186 162 c 128,-1,66
 160 149 160 149 136 131.5 c 128,-1,67
 112 114 112 114 92.5 93.5 c 128,-1,68
 73 73 73 73 65 52 c 0,69,70
 63 46 63 46 64 43.5 c 128,-1,71
 65 41 65 41 66 39 c 0,72,73
 68 39 68 39 70 38.5 c 128,-1,74
 72 38 72 38 76 38 c 0,75,76
 111 38 111 38 126 58 c 128,-1,77
 141 78 141 78 148 109 c 0,78,79
 156 146 156 146 156 184 c 0,80,81
 155 205 155 205 155 225 c 128,-1,82
 155 245 155 245 154 262 c 0,83,84
 153 281 153 281 152.5 296 c 128,-1,85
 152 311 152 311 153 324 c 0,86,87
 153 336 153 336 159 349 c 128,-1,88
 165 362 165 362 179 362 c 0,89,90
 202 362 202 362 212 344 c 0,91,92
 221 327 221 327 220 310 c 0,93,94
 220 288 220 288 211 266 c 128,-1,95
 202 244 202 244 186.5 226.5 c 128,-1,96
 171 209 171 209 150.5 198.5 c 128,-1,97
 130 188 130 188 107 188 c 0,98,99
 95 187 95 187 84 190 c 128,-1,100
 73 193 73 193 65 201 c 256,101,102
 57 209 57 209 54.5 217.5 c 128,-1,103
 52 226 52 226 52 236 c 0,104,105
 51 245 51 245 52.5 254 c 128,-1,106
 54 263 54 263 56 273 c 0,107,108
 59 286 59 286 62 298 c 128,-1,109
 65 310 65 310 67 323 c 1,110,-1
 67 323 l 1,0,1
EndSplineSet
Validated: 37
EndChar
StartChar: uniE40B
Encoding: 92799 92799 19
Width: 340
Flags: W
LayerCount: 2
Fore
SplineSet
73 326 m 1,0,1
 66 333 66 333 55 333 c 0,2,3
 50 332 50 332 44.5 330 c 128,-1,4
 39 328 39 328 32 322 c 2,5,-1
 21 313 l 1,6,-1
 2 336 l 1,7,-1
 14 346 l 2,8,9
 33 362 33 362 55 362 c 0,10,11
 75 364 75 364 92 350 c 0,12,13
 97 346 97 346 99.5 341 c 128,-1,14
 102 336 102 336 103 331 c 256,15,16
 104 326 104 326 104.5 320 c 128,-1,17
 105 314 105 314 104 307 c 0,18,19
 100 272 100 272 96 238.5 c 128,-1,20
 92 205 92 205 87 170 c 0,21,22
 84 151 84 151 83 133.5 c 128,-1,23
 82 116 82 116 81 100 c 0,24,25
 80 70 80 70 86 49 c 0,26,27
 88 41 88 41 91 39.5 c 128,-1,28
 94 38 94 38 97 38 c 0,29,30
 137 38 137 38 158 62.5 c 128,-1,31
 179 87 179 87 184 124 c 0,32,33
 184 140 184 140 183 145 c 2,34,-1
 183 147 l 1,35,36
 188 147 188 147 191 143 c 1,37,38
 193 145 193 145 197 145 c 1,39,40
 196 144 196 144 196 143 c 0,41,42
 192 134 192 134 191 123 c 0,43,44
 190 116 190 116 189.5 109.5 c 128,-1,45
 189 103 189 103 190 95 c 0,46,47
 192 75 192 75 201 61 c 128,-1,48
 210 47 210 47 232 47 c 0,49,50
 237 47 237 47 243 54 c 128,-1,51
 249 61 249 61 253.5 70 c 128,-1,52
 258 79 258 79 261 88.5 c 128,-1,53
 264 98 264 98 264 104 c 0,54,55
 264 116 264 116 268.5 134 c 128,-1,56
 273 152 273 152 283 161 c 2,57,-1
 294 171 l 1,58,-1
 315 150 l 1,59,-1
 305 139 l 2,60,61
 298 131 298 131 296 122.5 c 128,-1,62
 294 114 294 114 294 104 c 0,63,64
 294 93 294 93 289 78 c 128,-1,65
 284 63 284 63 276 49.5 c 128,-1,66
 268 36 268 36 256.5 26.5 c 128,-1,67
 245 17 245 17 232 17 c 0,68,69
 197 17 197 17 179.5 40 c 128,-1,70
 162 63 162 63 160 94 c 0,71,72
 159 103 159 103 159.5 111 c 128,-1,73
 160 119 160 119 161 127 c 0,74,75
 162 132 162 132 165 144.5 c 128,-1,76
 168 157 168 157 171 160 c 0,77,78
 177 173 177 173 191 173 c 0,79,80
 199 173 199 173 203.5 169 c 128,-1,81
 208 165 208 165 211 158 c 0,82,83
 212 156 212 156 212 154.5 c 128,-1,84
 212 153 212 153 213 151 c 0,85,86
 214 144 214 144 214.5 137 c 128,-1,87
 215 130 215 130 213 122 c 0,88,89
 208 72 208 72 178 40 c 128,-1,90
 148 8 148 8 97 8 c 0,91,92
 81 8 81 8 71.5 17 c 128,-1,93
 62 26 62 26 57 41 c 0,94,95
 49 65 49 65 51 100 c 0,96,97
 52 117 52 117 53.5 136 c 128,-1,98
 55 155 55 155 58 175 c 256,99,100
 61 195 61 195 63.5 213.5 c 128,-1,101
 66 232 66 232 68 249 c 256,102,103
 70 266 70 266 72 281 c 128,-1,104
 74 296 74 296 75 308 c 0,105,106
 75 322 75 322 74 326 c 1,107,-1
 73 326 l 1,0,1
EndSplineSet
Validated: 37
EndChar
StartChar: uniE40C
Encoding: 92800 92800 20
Width: 312
Flags: W
LayerCount: 2
Fore
SplineSet
41 45 m 1,0,1
 46 42 46 42 56 39.5 c 128,-1,2
 66 37 66 37 83 37 c 0,3,4
 107 37 107 37 135 44.5 c 128,-1,5
 163 52 163 52 188 66.5 c 128,-1,6
 213 81 213 81 229.5 102.5 c 128,-1,7
 246 124 246 124 246 152 c 0,8,9
 246 165 246 165 238.5 175.5 c 128,-1,10
 231 186 231 186 219.5 194 c 128,-1,11
 208 202 208 202 194.5 207 c 128,-1,12
 181 212 181 212 170 214 c 0,13,14
 150 217 150 217 144 216 c 0,15,16
 137 215 137 215 132 218 c 128,-1,17
 127 221 127 221 126 226 c 128,-1,18
 125 231 125 231 127.5 236.5 c 128,-1,19
 130 242 130 242 137 245 c 0,20,21
 160 255 160 255 179.5 265.5 c 128,-1,22
 199 276 199 276 218 292 c 0,23,24
 222 295 222 295 226 302 c 128,-1,25
 230 309 230 309 230 314 c 0,26,27
 230 323 230 323 217.5 326.5 c 128,-1,28
 205 330 205 330 199 331 c 0,29,30
 161 331 161 331 127 321.5 c 128,-1,31
 93 312 93 312 58 296 c 2,32,-1
 45 290 l 1,33,-1
 32 317 l 1,34,-1
 46 324 l 2,35,36
 69 335 69 335 95.5 343 c 128,-1,37
 122 351 122 351 147 356 c 0,38,39
 161 358 161 358 174 359.5 c 128,-1,40
 187 361 187 361 199 360 c 0,41,42
 208 360 208 360 218 357.5 c 128,-1,43
 228 355 228 355 237 349.5 c 128,-1,44
 246 344 246 344 252.5 336.5 c 128,-1,45
 259 329 259 329 260 318 c 0,46,47
 261 305 261 305 255 291 c 0,48,49
 252 285 252 285 244.5 277 c 128,-1,50
 237 269 237 269 228 262 c 128,-1,51
 219 255 219 255 210 248.5 c 128,-1,52
 201 242 201 242 194 239 c 1,53,-1
 218 230 l 2,54,55
 241 221 241 221 258.5 199.5 c 128,-1,56
 276 178 276 178 276 152 c 0,57,58
 276 118 276 118 257 91 c 128,-1,59
 238 64 238 64 209.5 45 c 128,-1,60
 181 26 181 26 147 16.5 c 128,-1,61
 113 7 113 7 83 7 c 0,62,63
 63 7 63 7 47 10.5 c 128,-1,64
 31 14 31 14 20 24 c 0,65,66
 8 35 8 35 10.5 47 c 128,-1,67
 13 59 13 59 21 68 c 0,68,69
 37 86 37 86 64 104 c 128,-1,70
 91 122 91 122 121.5 138.5 c 128,-1,71
 152 155 152 155 182.5 169 c 128,-1,72
 213 183 213 183 235 193 c 2,73,-1
 249 199 l 1,74,-1
 261 171 l 1,75,-1
 247 165 l 2,76,77
 228 157 228 157 199 143.5 c 128,-1,78
 170 130 170 130 140 114.5 c 128,-1,79
 110 99 110 99 83.5 81.5 c 128,-1,80
 57 64 57 64 43 48 c 0,81,82
 42 47 42 47 42 46.5 c 128,-1,83
 42 46 42 46 41 45 c 1,84,-1
 41 45 l 1,0,1
EndSplineSet
Validated: 37
EndChar
StartChar: uniE40D
Encoding: 92801 92801 21
Width: 344
Flags: W
LayerCount: 2
Fore
SplineSet
41 45 m 1,0,1
 43 42 43 42 47.5 40 c 128,-1,2
 52 38 52 38 62 38 c 0,3,4
 90 40 90 40 110 55 c 128,-1,5
 130 70 130 70 146 91 c 0,6,7
 155 102 155 102 159 118 c 128,-1,8
 163 134 163 134 163 154 c 0,9,10
 163 179 163 179 146 198.5 c 128,-1,11
 129 218 129 218 103 218 c 0,12,13
 89 216 89 216 84.5 227 c 128,-1,14
 80 238 80 238 93 246 c 0,15,16
 110 257 110 257 127 272 c 128,-1,17
 144 287 144 287 152 307 c 0,18,19
 154 312 154 312 154 316.5 c 128,-1,20
 154 321 154 321 149 327 c 0,21,22
 146 331 146 331 138 333 c 0,23,24
 115 333 115 333 92 323.5 c 128,-1,25
 69 314 69 314 51 300 c 2,26,-1
 39 291 l 1,27,-1
 21 315 l 1,28,-1
 33 324 l 2,29,30
 46 334 46 334 66.5 344 c 128,-1,31
 87 354 87 354 102 358 c 0,32,33
 112 360 112 360 121 361.5 c 128,-1,34
 130 363 130 363 138 362 c 0,35,36
 161 362 161 362 173 345 c 0,37,38
 191 319 191 319 180 294 c 0,39,40
 172 277 172 277 154 257 c 0,41,42
 150 252 150 252 146 248.5 c 128,-1,43
 142 245 142 245 137 240 c 1,44,45
 163 231 163 231 178 205.5 c 128,-1,46
 193 180 193 180 193 154 c 256,47,48
 193 128 193 128 183 102 c 128,-1,49
 173 76 173 76 155.5 55.5 c 128,-1,50
 138 35 138 35 114.5 22 c 128,-1,51
 91 9 91 9 63 9 c 0,52,53
 49 8 49 8 36.5 12.5 c 128,-1,54
 24 17 24 17 16 28 c 0,55,56
 6 43 6 43 14 59 c 0,57,58
 21 73 21 73 42.5 88.5 c 128,-1,59
 64 104 64 104 89.5 118.5 c 128,-1,60
 115 133 115 133 140.5 144.5 c 128,-1,61
 166 156 166 156 181 162 c 2,62,-1
 195 168 l 1,63,-1
 207 140 l 1,64,-1
 193 134 l 2,65,66
 162 120 162 120 133 106 c 128,-1,67
 104 92 104 92 75 75 c 0,68,69
 65 69 65 69 56 62 c 128,-1,70
 47 55 47 55 41 45 c 1,71,-1
 41 45 l 1,0,1
182 162 m 1,72,73
 217 175 217 175 247 200 c 128,-1,74
 277 225 277 225 288 263 c 0,75,76
 295 287 295 287 288 304 c 0,77,78
 285 312 285 312 281.5 314 c 128,-1,79
 278 316 278 316 275 316 c 0,80,81
 269 316 269 316 265.5 304 c 128,-1,82
 262 292 262 292 261 287 c 0,83,84
 259 277 259 277 258.5 266.5 c 128,-1,85
 258 256 258 256 257 245 c 0,86,87
 256 233 256 233 256 220.5 c 128,-1,88
 256 208 256 208 256 194 c 0,89,90
 256 174 256 174 256 154 c 128,-1,91
 256 134 256 134 255 115 c 0,92,93
 254 81 254 81 265 63 c 0,94,95
 271 55 271 55 272 54 c 256,96,97
 273 53 273 53 274 52 c 2,98,-1
 277 52 l 2,99,100
 278 52 278 52 278 52 c 2,101,102
 283 55 283 55 290 64 c 2,103,-1
 299 76 l 1,104,-1
 323 58 l 1,105,-1
 314 46 l 2,106,107
 305 34 305 34 294 26 c 0,108,109
 288 21 288 21 280.5 21 c 128,-1,110
 273 21 273 21 266 23 c 0,111,112
 257 26 257 26 250.5 32.5 c 128,-1,113
 244 39 244 39 239 47 c 0,114,115
 230 60 230 60 227 77.5 c 128,-1,116
 224 95 224 95 225 115 c 256,117,118
 226 135 226 135 226 154.5 c 128,-1,119
 226 174 226 174 226 194 c 0,120,121
 226 208 226 208 226 221 c 128,-1,122
 226 234 226 234 227 246 c 0,123,124
 229 265 229 265 231.5 288.5 c 128,-1,125
 234 312 234 312 244 328 c 0,126,127
 255 348 255 348 277 346 c 0,128,129
 291 345 291 345 301 336.5 c 128,-1,130
 311 328 311 328 316 314 c 0,131,132
 326 289 326 289 316 255 c 0,133,134
 303 210 303 210 269 179.5 c 128,-1,135
 235 149 235 149 192 134 c 2,136,-1
 178 129 l 1,137,-1
 168 157 l 1,138,-1
 182 162 l 1,139,-1
 182 162 l 1,72,73
EndSplineSet
Validated: 37
EndChar
StartChar: uniE40F
Encoding: 92803 92803 23
Width: 344
Flags: W
LayerCount: 2
Fore
SplineSet
41 45 m 1,0,1
 43 42 43 42 47.5 40 c 128,-1,2
 52 38 52 38 62 38 c 0,3,4
 90 40 90 40 110 55 c 128,-1,5
 130 70 130 70 146 91 c 0,6,7
 155 102 155 102 159 118 c 128,-1,8
 163 134 163 134 163 154 c 0,9,10
 163 179 163 179 146 198.5 c 128,-1,11
 129 218 129 218 103 218 c 0,12,13
 89 216 89 216 84.5 227 c 128,-1,14
 80 238 80 238 93 246 c 0,15,16
 110 257 110 257 127 272 c 128,-1,17
 144 287 144 287 152 307 c 0,18,19
 154 312 154 312 154 316.5 c 128,-1,20
 154 321 154 321 149 327 c 0,21,22
 146 331 146 331 138 333 c 0,23,24
 115 333 115 333 92 323.5 c 128,-1,25
 69 314 69 314 51 300 c 2,26,-1
 39 291 l 1,27,-1
 21 315 l 1,28,-1
 33 324 l 2,29,30
 46 334 46 334 66.5 344 c 128,-1,31
 87 354 87 354 102 358 c 0,32,33
 112 360 112 360 121 361.5 c 128,-1,34
 130 363 130 363 138 362 c 0,35,36
 161 362 161 362 173 345 c 0,37,38
 191 319 191 319 180 294 c 0,39,40
 172 277 172 277 154 257 c 0,41,42
 150 252 150 252 146 248.5 c 128,-1,43
 142 245 142 245 137 240 c 1,44,45
 163 231 163 231 178 205.5 c 128,-1,46
 193 180 193 180 193 154 c 256,47,48
 193 128 193 128 183 102 c 128,-1,49
 173 76 173 76 155.5 55.5 c 128,-1,50
 138 35 138 35 114.5 22 c 128,-1,51
 91 9 91 9 63 9 c 0,52,53
 49 8 49 8 36.5 12.5 c 128,-1,54
 24 17 24 17 16 28 c 0,55,56
 6 43 6 43 14 59 c 0,57,58
 21 73 21 73 42.5 88.5 c 128,-1,59
 64 104 64 104 89.5 118.5 c 128,-1,60
 115 133 115 133 140.5 144.5 c 128,-1,61
 166 156 166 156 181 162 c 2,62,-1
 195 168 l 1,63,-1
 207 140 l 1,64,-1
 193 134 l 2,65,66
 162 120 162 120 133 106 c 128,-1,67
 104 92 104 92 75 75 c 0,68,69
 65 69 65 69 56 62 c 128,-1,70
 47 55 47 55 41 45 c 1,71,-1
 41 45 l 1,0,1
182 162 m 1,72,73
 217 175 217 175 247 200 c 128,-1,74
 277 225 277 225 288 263 c 0,75,76
 295 287 295 287 288 304 c 0,77,78
 285 312 285 312 281.5 314 c 128,-1,79
 278 316 278 316 275 316 c 256,80,81
 272 316 272 316 271 315.5 c 128,-1,82
 270 315 270 315 269 315 c 0,83,84
 266 312 266 312 263 302 c 0,85,86
 261 296 261 296 260.5 289 c 128,-1,87
 260 282 260 282 259 274 c 0,88,89
 258 265 258 265 258 255 c 128,-1,90
 258 245 258 245 257 233 c 0,91,92
 256 217 256 217 256 199.5 c 128,-1,93
 256 182 256 182 256 164 c 2,94,-1
 256 95 l 2,95,96
 256 77 256 77 256 59 c 128,-1,97
 256 41 256 41 257 23 c 2,98,-1
 257 8 l 1,99,-1
 227 8 l 1,100,-1
 227 23 l 2,101,102
 226 41 226 41 226 59 c 128,-1,103
 226 77 226 77 226 95 c 2,104,-1
 226 164 l 2,105,106
 226 183 226 183 226 200.5 c 128,-1,107
 226 218 226 218 227 235 c 0,108,109
 228 246 228 246 228 256.5 c 128,-1,110
 228 267 228 267 229 276 c 0,111,112
 231 291 231 291 234 308 c 128,-1,113
 237 325 237 325 248 336 c 0,114,115
 260 348 260 348 277 346 c 0,116,117
 305 343 305 343 316 314 c 0,118,119
 326 289 326 289 316 255 c 0,120,121
 303 210 303 210 269 179.5 c 128,-1,122
 235 149 235 149 192 134 c 2,123,-1
 178 129 l 1,124,-1
 168 157 l 1,125,-1
 182 162 l 1,126,-1
 182 162 l 1,72,73
EndSplineSet
Validated: 37
EndChar
StartChar: uniE410
Encoding: 92804 92804 24
Width: 384
Flags: W
LayerCount: 2
Fore
SplineSet
55 244 m 1,0,1
 44 220 44 220 41 186 c 0,2,3
 39 167 39 167 41 150 c 128,-1,4
 43 133 43 133 48 116 c 0,5,6
 52 102 52 102 57.5 88.5 c 128,-1,7
 63 75 63 75 71.5 64 c 128,-1,8
 80 53 80 53 92 46 c 128,-1,9
 104 39 104 39 120 39 c 0,10,11
 161 39 161 39 192 62 c 128,-1,12
 223 85 223 85 244 119.5 c 128,-1,13
 265 154 265 154 276.5 195 c 128,-1,14
 288 236 288 236 291 271 c 0,15,16
 293 288 293 288 291 301.5 c 128,-1,17
 289 315 289 315 286 326 c 0,18,19
 283 336 283 336 280 338 c 128,-1,20
 277 340 277 340 275 340 c 0,21,22
 265 340 265 340 259.5 333.5 c 128,-1,23
 254 327 254 327 252 318 c 0,24,25
 251 308 251 308 255 298 c 256,26,27
 259 288 259 288 268 282 c 256,28,29
 277 276 277 276 292 277 c 0,30,31
 308 277 308 277 331 293 c 2,32,-1
 343 301 l 1,33,-1
 360 276 l 1,34,-1
 347 267 l 2,35,36
 319 248 319 248 294 247 c 0,37,38
 269 245 269 245 252 257 c 0,39,40
 234 268 234 268 227 286 c 0,41,42
 219 305 219 305 222 322 c 0,43,44
 225 340 225 340 237 355 c 0,45,46
 252 370 252 370 275 370 c 0,47,48
 292 370 292 370 301 359.5 c 128,-1,49
 310 349 310 349 315 335 c 0,50,51
 323 309 323 309 320 268 c 256,52,53
 317 227 317 227 303.5 181.5 c 128,-1,54
 290 136 290 136 265.5 97.5 c 128,-1,55
 241 59 241 59 204.5 34 c 128,-1,56
 168 9 168 9 120 9 c 0,57,58
 98 9 98 9 81.5 17.5 c 128,-1,59
 65 26 65 26 52.5 39.5 c 128,-1,60
 40 53 40 53 31.5 71 c 128,-1,61
 23 89 23 89 18 108 c 0,62,63
 13 128 13 128 11.5 147.5 c 128,-1,64
 10 167 10 167 12 187 c 0,65,66
 14 208 14 208 18 225.5 c 128,-1,67
 22 243 22 243 29 258 c 2,68,-1
 35 271 l 1,69,-1
 62 258 l 1,70,-1
 55 244 l 1,71,-1
 55 244 l 1,0,1
EndSplineSet
Validated: 37
EndChar
StartChar: uniE411
Encoding: 92805 92805 25
Width: 384
Flags: W
LayerCount: 2
Fore
SplineSet
17 347 m 1,0,1
 31 353 31 353 45 356 c 128,-1,2
 59 359 59 359 73 361 c 0,3,4
 107 364 107 364 132 341 c 0,5,6
 141 334 141 334 141 321 c 0,7,8
 143 311 143 311 141 298 c 256,9,10
 139 285 139 285 137.5 270 c 128,-1,11
 136 255 136 255 134 238 c 256,12,13
 132 221 132 221 130 203 c 128,-1,14
 128 185 128 185 126 166 c 256,15,16
 124 147 124 147 125 130.5 c 128,-1,17
 126 114 126 114 128 99 c 0,18,19
 132 72 132 72 145.5 55 c 128,-1,20
 159 38 159 38 188 38 c 0,21,22
 215 38 215 38 234.5 52.5 c 128,-1,23
 254 67 254 67 266.5 89.5 c 128,-1,24
 279 112 279 112 286.5 138 c 128,-1,25
 294 164 294 164 297 186 c 0,26,27
 300 207 300 207 300.5 226 c 128,-1,28
 301 245 301 245 300 262 c 0,29,30
 299 280 299 280 295.5 298 c 128,-1,31
 292 316 292 316 282 331 c 0,32,33
 281 331 281 331 281 331.5 c 128,-1,34
 281 332 281 332 280 332 c 0,35,36
 268 332 268 332 263 323 c 0,37,38
 256 308 256 308 257 285 c 0,39,40
 260 238 260 238 281 187 c 128,-1,41
 302 136 302 136 329 97 c 0,42,43
 335 89 335 89 339.5 79.5 c 128,-1,44
 344 70 344 70 350 62 c 2,45,-1
 359 50 l 1,46,-1
 334 33 l 1,47,-1
 326 46 l 2,48,49
 314 62 314 62 302.5 80.5 c 128,-1,50
 291 99 291 99 282 117 c 0,51,52
 277 128 277 128 271 139 c 128,-1,53
 265 150 265 150 259 161 c 256,54,55
 253 172 253 172 248 187.5 c 128,-1,56
 243 203 243 203 238.5 220.5 c 128,-1,57
 234 238 234 238 231 254.5 c 128,-1,58
 228 271 228 271 227 283 c 0,59,60
 225 314 225 314 236 335 c 0,61,62
 250 362 250 362 280 362 c 0,63,64
 295 362 295 362 304.5 350.5 c 128,-1,65
 314 339 314 339 319.5 323.5 c 128,-1,66
 325 308 325 308 327.5 291.5 c 128,-1,67
 330 275 330 275 330 264 c 0,68,69
 332 224 332 224 326 183 c 0,70,71
 321 142 321 142 307 103 c 128,-1,72
 293 64 293 64 261 36 c 0,73,74
 233 8 233 8 188 8 c 0,75,76
 146 8 146 8 125.5 32.5 c 128,-1,77
 105 57 105 57 98 95 c 0,78,79
 92 127 92 127 97 168 c 0,80,81
 99 188 99 188 101 206 c 128,-1,82
 103 224 103 224 105 241 c 256,83,84
 107 258 107 258 108.5 273 c 128,-1,85
 110 288 110 288 112 300 c 2,86,-1
 112 317 l 1,87,-1
 112 319 l 1,88,89
 96 334 96 334 76 331 c 0,90,91
 64 329 64 329 52 326 c 128,-1,92
 40 323 40 323 29 319 c 2,93,-1
 15 314 l 1,94,-1
 4 341 l 1,95,-1
 17 347 l 1,96,-1
 17 347 l 1,0,1
EndSplineSet
Validated: 37
EndChar
StartChar: uniE412
Encoding: 92806 92806 26
Width: 324
Flags: W
LayerCount: 2
Fore
SplineSet
40 121 m 1,0,1
 40 83 40 83 61.5 60.5 c 128,-1,2
 83 38 83 38 120 38 c 0,3,4
 150 38 150 38 169 48 c 128,-1,5
 188 58 188 58 194 90 c 0,6,7
 199 116 199 116 196 141 c 0,8,9
 194 156 194 156 193 168.5 c 128,-1,10
 192 181 192 181 192 191 c 0,11,12
 192 216 192 216 203 240 c 128,-1,13
 214 264 214 264 242 270 c 0,14,15
 264 275 264 275 281 261 c 0,16,17
 299 246 299 246 299 222 c 0,18,19
 299 202 299 202 285.5 187 c 128,-1,20
 272 172 272 172 255 164 c 0,21,22
 236 157 236 157 215 158 c 0,23,24
 194 160 194 160 178.5 169 c 128,-1,25
 163 178 163 178 153 192 c 128,-1,26
 143 206 143 206 138 224 c 128,-1,27
 133 242 133 242 133 261 c 0,28,29
 133 285 133 285 142 303.5 c 128,-1,30
 151 322 151 322 166.5 334.5 c 128,-1,31
 182 347 182 347 202 354 c 128,-1,32
 222 361 222 361 244 362 c 2,33,-1
 259 363 l 1,34,-1
 261 333 l 1,35,-1
 246 332 l 2,36,37
 213 330 213 330 188 313.5 c 128,-1,38
 163 297 163 297 163 261 c 0,39,40
 163 232 163 232 175 211.5 c 128,-1,41
 187 191 187 191 217 188 c 0,42,43
 231 187 231 187 243 192 c 0,44,45
 254 197 254 197 261.5 203.5 c 128,-1,46
 269 210 269 210 269 222 c 0,47,48
 269 228 269 228 267 231.5 c 128,-1,49
 265 235 265 235 263 237 c 0,50,51
 258 242 258 242 249 240 c 0,52,53
 233 237 233 237 227.5 221 c 128,-1,54
 222 205 222 205 222 191 c 0,55,56
 222 172 222 172 225 145 c 0,57,58
 227 129 227 129 226.5 114 c 128,-1,59
 226 99 226 99 223 84 c 0,60,61
 215 43 215 43 187.5 25.5 c 128,-1,62
 160 8 160 8 120 8 c 0,63,64
 68 8 68 8 39 39.5 c 128,-1,65
 10 71 10 71 10 121 c 2,66,-1
 10 342 l 1,67,-1
 40 342 l 1,68,-1
 40 121 l 1,69,-1
 40 121 l 1,0,1
EndSplineSet
Validated: 37
EndChar
StartChar: uniE413
Encoding: 92807 92807 27
Width: 280
Flags: W
LayerCount: 2
Fore
SplineSet
94 164 m 1,0,1
 135 164 135 164 160 139 c 1,2,-1
 160 165 l 1,3,-1
 160 235 l 2,4,5
 158 263 158 263 158 291 c 128,-1,6
 158 319 158 319 158 347 c 2,7,-1
 158 362 l 1,8,-1
 188 362 l 1,9,-1
 188 302 l 2,10,11
 189 286 189 286 189 269.5 c 128,-1,12
 189 253 189 253 189 236 c 0,13,14
 190 218 190 218 190 200 c 128,-1,15
 190 182 190 182 190 165 c 0,16,17
 190 145 190 145 189 126.5 c 128,-1,18
 188 108 188 108 186 88 c 1,19,20
 190 77 190 77 194.5 67 c 128,-1,21
 199 57 199 57 205 47 c 2,22,-1
 210 42 l 2,23,24
 213 42 213 42 216.5 47.5 c 128,-1,25
 220 53 220 53 223 59.5 c 128,-1,26
 226 66 226 66 228.5 72.5 c 128,-1,27
 231 79 231 79 232 81 c 2,28,-1
 236 96 l 1,29,-1
 265 87 l 1,30,-1
 260 73 l 2,31,32
 258 64 258 64 254 53.5 c 128,-1,33
 250 43 250 43 243.5 34 c 128,-1,34
 237 25 237 25 228.5 18.5 c 128,-1,35
 220 12 220 12 209 12 c 256,36,37
 198 12 198 12 189.5 20.5 c 128,-1,38
 181 29 181 29 173 42 c 1,39,40
 162 25 162 25 141.5 16.5 c 128,-1,41
 121 8 121 8 98 8 c 0,42,43
 57 8 57 8 35.5 29.5 c 128,-1,44
 14 51 14 51 14 90 c 0,45,46
 14 105 14 105 21 118.5 c 128,-1,47
 28 132 28 132 39.5 142 c 128,-1,48
 51 152 51 152 65 158 c 128,-1,49
 79 164 79 164 94 164 c 1,50,-1
 94 164 l 1,0,1
44 90 m 1,51,52
 44 87 44 87 44 83 c 128,-1,53
 44 79 44 79 45 74 c 0,54,55
 45 54 45 54 63 46 c 128,-1,56
 81 38 81 38 98 38 c 0,57,58
 121 38 121 38 136.5 47 c 128,-1,59
 152 56 152 56 155 79 c 0,60,61
 155 81 155 81 155.5 82.5 c 128,-1,62
 156 84 156 84 156 86 c 0,63,64
 154 90 154 90 154 93 c 128,-1,65
 154 96 154 96 152 99 c 0,66,67
 135 134 135 134 94 134 c 0,68,69
 76 134 76 134 60 121.5 c 128,-1,70
 44 109 44 109 44 90 c 1,71,-1
 44 90 l 1,51,52
EndSplineSet
Validated: 5
EndChar
StartChar: uniE414
Encoding: 92808 92808 28
Width: 208
Flags: W
LayerCount: 2
Fore
SplineSet
47 124 m 1,0,1
 57 136 57 136 64.5 151.5 c 128,-1,2
 72 167 72 167 77 184 c 128,-1,3
 82 201 82 201 85.5 218.5 c 128,-1,4
 89 236 89 236 91 251 c 0,5,6
 93 264 93 264 92.5 275 c 128,-1,7
 92 286 92 286 91 296 c 0,8,9
 91 300 91 300 90 306 c 128,-1,10
 89 312 89 312 86.5 318 c 128,-1,11
 84 324 84 324 80.5 328 c 128,-1,12
 77 332 77 332 71 332 c 0,13,14
 66 332 66 332 61.5 322.5 c 128,-1,15
 57 313 57 313 53 300.5 c 128,-1,16
 49 288 49 288 46.5 276.5 c 128,-1,17
 44 265 44 265 44 261 c 0,18,19
 42 244 42 244 41.5 224.5 c 128,-1,20
 41 205 41 205 41 185 c 0,21,22
 41 172 41 172 44 147.5 c 128,-1,23
 47 123 47 123 54.5 98.5 c 128,-1,24
 62 74 62 74 74 56 c 128,-1,25
 86 38 86 38 105 38 c 0,26,27
 119 38 119 38 129 46.5 c 128,-1,28
 139 55 139 55 144 67 c 0,29,30
 146 72 146 72 147.5 75.5 c 128,-1,31
 149 79 149 79 151 83 c 2,32,-1
 157 97 l 1,33,-1
 185 85 l 1,34,-1
 179 71 l 2,35,36
 177 67 177 67 175 63 c 128,-1,37
 173 59 173 59 171 54 c 0,38,39
 163 35 163 35 144.5 21.5 c 128,-1,40
 126 8 126 8 105 8 c 0,41,42
 77 8 77 8 59 27.5 c 128,-1,43
 41 47 41 47 31 74.5 c 128,-1,44
 21 102 21 102 17 132 c 128,-1,45
 13 162 13 162 12 184 c 0,46,47
 11 228 11 228 15 265 c 0,48,49
 17 276 17 276 20 292.5 c 128,-1,50
 23 309 23 309 29.5 324.5 c 128,-1,51
 36 340 36 340 46 351 c 128,-1,52
 56 362 56 362 71 362 c 0,53,54
 95 362 95 362 106.5 341.5 c 128,-1,55
 118 321 118 321 120 300 c 0,56,57
 121 288 121 288 121.5 275.5 c 128,-1,58
 122 263 122 263 120 249 c 0,59,60
 116 213 116 213 104 173 c 128,-1,61
 92 133 92 133 69 104 c 2,62,-1
 60 93 l 1,63,-1
 37 112 l 1,64,-1
 47 124 l 1,65,-1
 47 124 l 1,0,1
EndSplineSet
Validated: 37
EndChar
StartChar: uniE415
Encoding: 92809 92809 29
Width: 336
Flags: W
LayerCount: 2
Fore
SplineSet
278 332 m 1,0,1
 247 332 247 332 218 325.5 c 128,-1,2
 189 319 189 319 166.5 304 c 128,-1,3
 144 289 144 289 130.5 265 c 128,-1,4
 117 241 117 241 117 206 c 0,5,6
 117 189 117 189 124 177.5 c 128,-1,7
 131 166 131 166 142.5 159 c 128,-1,8
 154 152 154 152 168.5 149 c 128,-1,9
 183 146 183 146 197 146 c 0,10,11
 204 146 204 146 217.5 148.5 c 128,-1,12
 231 151 231 151 244.5 155.5 c 128,-1,13
 258 160 258 160 268 167 c 128,-1,14
 278 174 278 174 278 184 c 0,15,16
 278 192 278 192 270 193 c 0,17,18
 263 195 263 195 253 194.5 c 128,-1,19
 243 194 243 194 229 190 c 0,20,21
 204 183 204 183 174.5 168.5 c 128,-1,22
 145 154 145 154 118.5 133.5 c 128,-1,23
 92 113 92 113 71.5 88 c 128,-1,24
 51 63 51 63 43 36 c 1,25,-1
 291 38 l 1,26,-1
 306 38 l 1,27,-1
 306 8 l 1,28,-1
 291 8 l 1,29,-1
 26 6 l 2,30,31
 20 6 20 6 15.5 10.5 c 128,-1,32
 11 15 11 15 11 22 c 0,33,34
 13 54 13 54 34 86 c 128,-1,35
 55 118 55 118 86.5 145 c 128,-1,36
 118 172 118 172 154 191.5 c 128,-1,37
 190 211 190 211 221 218 c 0,38,39
 237 222 237 222 250.5 223.5 c 128,-1,40
 264 225 264 225 277 223 c 0,41,42
 292 220 292 220 300 209.5 c 128,-1,43
 308 199 308 199 308 184 c 0,44,45
 308 165 308 165 296.5 152.5 c 128,-1,46
 285 140 285 140 267.5 132 c 128,-1,47
 250 124 250 124 231 120.5 c 128,-1,48
 212 117 212 117 197 117 c 0,49,50
 171 116 171 116 146 125 c 0,51,52
 118 136 118 136 102.5 156 c 128,-1,53
 87 176 87 176 87 206 c 0,54,55
 87 248 87 248 103 278 c 128,-1,56
 119 308 119 308 145.5 326.5 c 128,-1,57
 172 345 172 345 206.5 353.5 c 128,-1,58
 241 362 241 362 278 362 c 2,59,-1
 293 362 l 1,60,-1
 293 332 l 1,61,-1
 278 332 l 1,62,-1
 278 332 l 1,0,1
EndSplineSet
Validated: 37
EndChar
StartChar: uniE453
Encoding: 92810 92810 30
Width: 312
Flags: W
LayerCount: 2
Fore
SplineSet
11 359 m 1,0,-1
 41 359 l 1,1,-1
 41 344 l 2,2,3
 41 333 41 333 40.5 322.5 c 128,-1,4
 40 312 40 312 39 301 c 0,5,6
 39 290 39 290 39 280.5 c 128,-1,7
 39 271 39 271 41 262 c 0,8,9
 44 245 44 245 52 237 c 128,-1,10
 60 229 60 229 78 229 c 0,11,12
 94 229 94 229 112 242 c 0,13,14
 113 246 113 246 113 254 c 256,15,16
 113 262 113 262 114.5 276 c 128,-1,17
 116 290 116 290 118 304.5 c 128,-1,18
 120 319 120 319 124 332 c 128,-1,19
 128 345 128 345 134 351 c 0,20,21
 139 356 139 356 142.5 358 c 128,-1,22
 146 360 146 360 152 362 c 2,23,-1
 162 362 l 1,24,25
 194 354 194 354 192 321 c 0,26,27
 192 296 192 296 178 270.5 c 128,-1,28
 164 245 164 245 142 226 c 1,29,-1
 142 199 l 2,30,31
 143 185 143 185 143 172 c 128,-1,32
 143 159 143 159 144 147 c 2,33,-1
 144 139 l 1,34,35
 172 164 172 164 210 164 c 0,36,37
 225 164 225 164 239 158 c 128,-1,38
 253 152 253 152 264.5 142 c 128,-1,39
 276 132 276 132 283 118.5 c 128,-1,40
 290 105 290 105 290 90 c 0,41,42
 290 49 290 49 267.5 28.5 c 128,-1,43
 245 8 245 8 206 8 c 0,44,45
 171 8 171 8 148.5 24 c 128,-1,46
 126 40 126 40 119 75 c 0,47,48
 117 83 117 83 117 89.5 c 128,-1,49
 117 96 117 96 116 103 c 0,50,51
 115 111 115 111 115 122 c 128,-1,52
 115 133 115 133 114 145 c 0,53,54
 113 158 113 158 113 171 c 128,-1,55
 113 184 113 184 113 198 c 2,56,-1
 113 207 l 1,57,58
 94 199 94 199 78 199 c 0,59,60
 48 199 48 199 33 213.5 c 128,-1,61
 18 228 18 228 11 257 c 0,62,63
 6 277 6 277 8.5 300.5 c 128,-1,64
 11 324 11 324 11 344 c 2,65,-1
 11 359 l 1,0,-1
148 90 m 1,66,67
 148 87 148 87 148.5 84.5 c 128,-1,68
 149 82 149 82 149 79 c 0,69,70
 152 55 152 55 168.5 46.5 c 128,-1,71
 185 38 185 38 206 38 c 0,72,73
 223 38 223 38 241 46 c 128,-1,74
 259 54 259 54 259 74 c 0,75,76
 260 79 260 79 260 83 c 128,-1,77
 260 87 260 87 260 90 c 0,78,79
 260 110 260 110 244 122 c 128,-1,80
 228 134 228 134 210 134 c 0,81,82
 187 134 187 134 174.5 125.5 c 128,-1,83
 162 117 162 117 152 98 c 2,84,-1
 148 90 l 1,85,-1
 148 90 l 1,66,67
163 322 m 1,86,87
 163 331 163 331 157 332 c 1,88,89
 157 331 157 331 156 330 c 0,90,91
 153 325 153 325 151 318 c 128,-1,92
 149 311 149 311 147 300 c 0,93,94
 145 294 145 294 145 287.5 c 128,-1,95
 145 281 145 281 144 274 c 1,96,97
 161 299 161 299 163 322 c 1,98,-1
 163 322 l 1,86,87
EndSplineSet
Validated: 37
EndChar
StartChar: uniE416
Encoding: 92811 92811 31
Width: 300
Flags: W
LayerCount: 2
Fore
SplineSet
270 116 m 1,0,1
 270 88 270 88 259.5 67 c 128,-1,2
 249 46 249 46 232 33 c 128,-1,3
 215 20 215 20 192 13.5 c 128,-1,4
 169 7 169 7 143 7 c 0,5,6
 88 7 88 7 50.5 32.5 c 128,-1,7
 13 58 13 58 13 116 c 2,8,-1
 13 286 l 2,9,10
 13 322 13 322 33.5 341.5 c 128,-1,11
 54 361 54 361 89 361 c 0,12,13
 98 361 98 361 106.5 358.5 c 128,-1,14
 115 356 115 356 121 349 c 0,15,16
 133 337 133 337 131 321 c 0,17,18
 131 307 131 307 123.5 292.5 c 128,-1,19
 116 278 116 278 107 267 c 0,20,21
 82 239 82 239 50 226 c 2,22,-1
 36 220 l 1,23,-1
 24 248 l 1,24,-1
 38 254 l 2,25,26
 43 256 43 256 47 258 c 128,-1,27
 51 260 51 260 56 262 c 0,28,29
 59 264 59 264 62.5 267 c 128,-1,30
 66 270 66 270 70 273 c 0,31,32
 84 284 84 284 91 295 c 128,-1,33
 98 306 98 306 102 322 c 0,34,35
 102 325 102 325 101.5 326 c 128,-1,36
 101 327 101 327 100 329 c 0,37,38
 99 329 99 329 97 330 c 128,-1,39
 95 331 95 331 89 331 c 0,40,41
 43 331 43 331 43 286 c 2,42,-1
 43 116 l 2,43,44
 43 93 43 93 51.5 77.5 c 128,-1,45
 60 62 60 62 73.5 53 c 128,-1,46
 87 44 87 44 105.5 40.5 c 128,-1,47
 124 37 124 37 143 37 c 0,48,49
 183 37 183 37 211.5 55 c 128,-1,50
 240 73 240 73 240 116 c 2,51,-1
 240 362 l 1,52,-1
 270 362 l 1,53,-1
 270 116 l 1,54,-1
 270 116 l 1,0,1
EndSplineSet
Validated: 37
EndChar
StartChar: uniE417
Encoding: 92812 92812 32
Width: 394
Flags: W
LayerCount: 2
Fore
SplineSet
25 353 m 1,0,1
 56 353 56 353 87.5 326 c 128,-1,2
 119 299 119 299 145 260 c 128,-1,3
 171 221 171 221 189.5 179 c 128,-1,4
 208 137 208 137 214 107 c 0,5,6
 222 68 222 68 212 41 c 0,7,8
 206 24 206 24 192 16 c 128,-1,9
 178 8 178 8 160 8 c 0,10,11
 121 8 121 8 105 40 c 0,12,13
 93 68 93 68 96 107 c 0,14,15
 101 167 101 167 126.5 228 c 128,-1,16
 152 289 152 289 194 334 c 0,17,18
 220 362 220 362 253 362 c 0,19,20
 275 362 275 362 291 352.5 c 128,-1,21
 307 343 307 343 318 328 c 128,-1,22
 329 313 329 313 335 294.5 c 128,-1,23
 341 276 341 276 343 257 c 0,24,25
 346 233 346 233 341 209 c 0,26,27
 339 200 339 200 335 189.5 c 128,-1,28
 331 179 331 179 325 170 c 128,-1,29
 319 161 319 161 310 155.5 c 128,-1,30
 301 150 301 150 290 150 c 0,31,32
 267 150 267 150 254 168 c 128,-1,33
 241 186 241 186 236 206 c 0,34,35
 232 227 232 227 235 253 c 0,36,37
 237 271 237 271 247.5 288.5 c 128,-1,38
 258 306 258 306 273 320.5 c 128,-1,39
 288 335 288 335 306.5 343.5 c 128,-1,40
 325 352 325 352 344 352 c 2,41,-1
 359 352 l 1,42,-1
 359 322 l 1,43,-1
 344 322 l 2,44,45
 327 322 327 322 307 310 c 128,-1,46
 287 298 287 298 278 284 c 0,47,48
 268 269 268 269 265 249 c 0,49,50
 262 228 262 228 266 213 c 0,51,52
 268 205 268 205 273.5 192.5 c 128,-1,53
 279 180 279 180 290 180 c 0,54,55
 300 180 300 180 304.5 193.5 c 128,-1,56
 309 207 309 207 311 215 c 0,57,58
 314 235 314 235 313 254 c 0,59,60
 312 267 312 267 308.5 280.5 c 128,-1,61
 305 294 305 294 297.5 305.5 c 128,-1,62
 290 317 290 317 279 324.5 c 128,-1,63
 268 332 268 332 253 332 c 0,64,65
 235 332 235 332 217 314 c 128,-1,66
 199 296 199 296 184 271.5 c 128,-1,67
 169 247 169 247 157.5 221.5 c 128,-1,68
 146 196 146 196 141 180 c 0,69,70
 128 142 128 142 125 105 c 0,71,72
 123 88 123 88 125.5 75 c 128,-1,73
 128 62 128 62 133 53 c 0,74,75
 137 45 137 45 143 41.5 c 128,-1,76
 149 38 149 38 160 38 c 0,77,78
 172 38 172 38 177 41.5 c 128,-1,79
 182 45 182 45 184 51 c 0,80,81
 187 60 187 60 187.5 72.5 c 128,-1,82
 188 85 188 85 184 102 c 0,83,84
 178 129 178 129 167 156.5 c 128,-1,85
 156 184 156 184 141 210.5 c 128,-1,86
 126 237 126 237 107 261 c 128,-1,87
 88 285 88 285 67 303 c 0,88,89
 54 314 54 314 43.5 318.5 c 128,-1,90
 33 323 33 323 25 323 c 2,91,-1
 10 323 l 1,92,-1
 10 353 l 1,93,-1
 25 353 l 1,94,-1
 25 353 l 1,0,1
EndSplineSet
Validated: 37
EndChar
StartChar: uniE418
Encoding: 92813 92813 33
Width: 358
Flags: W
LayerCount: 2
Fore
SplineSet
111 264 m 1,0,1
 106 235 106 235 94.5 219.5 c 128,-1,2
 83 204 83 204 52 204 c 0,3,4
 26 204 26 204 16 229 c 0,5,6
 8 248 8 248 11 273 c 0,7,8
 14 297 14 297 30 317.5 c 128,-1,9
 46 338 46 338 73 338 c 0,10,11
 89 338 89 338 96.5 327 c 128,-1,12
 104 316 104 316 106 304 c 256,13,14
 108 292 108 292 109 277.5 c 128,-1,15
 110 263 110 263 110 246 c 0,16,17
 111 229 111 229 111 211 c 128,-1,18
 111 193 111 193 111 173 c 0,19,20
 113 144 113 144 117 111 c 128,-1,21
 121 78 121 78 136 53 c 0,22,23
 145 38 145 38 166 38 c 0,24,25
 188 38 188 38 204.5 54.5 c 128,-1,26
 221 71 221 71 233 94.5 c 128,-1,27
 245 118 245 118 252.5 143.5 c 128,-1,28
 260 169 260 169 263 187 c 0,29,30
 267 207 267 207 268 226 c 128,-1,31
 269 245 269 245 269 262 c 0,32,33
 269 268 269 268 267.5 279.5 c 128,-1,34
 266 291 266 291 263 303 c 128,-1,35
 260 315 260 315 254.5 323.5 c 128,-1,36
 249 332 249 332 240 332 c 0,37,38
 230 332 230 332 227 330.5 c 128,-1,39
 224 329 224 329 223 328 c 0,40,41
 220 325 220 325 221 321 c 0,42,43
 225 310 225 310 233.5 302.5 c 128,-1,44
 242 295 242 295 252 291 c 0,45,46
 264 287 264 287 278 288 c 0,47,48
 291 289 291 289 307 304 c 2,49,-1
 318 314 l 1,50,-1
 338 292 l 1,51,-1
 327 282 l 2,52,53
 316 273 316 273 305.5 267 c 128,-1,54
 295 261 295 261 283 259 c 0,55,56
 260 256 260 256 241 263 c 0,57,58
 225 269 225 269 210 283 c 128,-1,59
 195 297 195 297 192 314 c 0,60,61
 189 334 189 334 200 348 c 0,62,63
 207 356 207 356 218 359 c 128,-1,64
 229 362 229 362 240 362 c 0,65,66
 258 362 258 362 269 352 c 128,-1,67
 280 342 280 342 286.5 327 c 128,-1,68
 293 312 293 312 295.5 295 c 128,-1,69
 298 278 298 278 298 264 c 0,70,71
 300 226 300 226 292 182 c 0,72,73
 288 159 288 159 279 129 c 128,-1,74
 270 99 270 99 255 72 c 128,-1,75
 240 45 240 45 218 26.5 c 128,-1,76
 196 8 196 8 166 8 c 0,77,78
 137 8 137 8 120 25.5 c 128,-1,79
 103 43 103 43 94.5 68.5 c 128,-1,80
 86 94 86 94 84 122.5 c 128,-1,81
 82 151 82 151 82 173 c 0,82,83
 81 193 81 193 81 210.5 c 128,-1,84
 81 228 81 228 81 245 c 0,85,86
 81 248 81 248 80.5 257.5 c 128,-1,87
 80 267 80 267 79 277.5 c 128,-1,88
 78 288 78 288 76.5 297 c 128,-1,89
 75 306 75 306 73 308 c 0,90,91
 59 308 59 308 51 295 c 128,-1,92
 43 282 43 282 41 269 c 0,93,94
 39 250 39 250 43 241 c 0,95,96
 47 234 47 234 52 234 c 0,97,98
 69 234 69 234 75 243.5 c 128,-1,99
 81 253 81 253 81 268 c 2,100,-1
 84 283 l 1,101,-1
 113 278 l 1,102,-1
 111 264 l 1,103,-1
 111 264 l 1,0,1
EndSplineSet
Validated: 37
EndChar
StartChar: uniE419
Encoding: 92814 92814 34
Width: 356
Flags: W
LayerCount: 2
Fore
SplineSet
24 305 m 1,0,1
 39 332 39 332 71.5 348.5 c 128,-1,2
 104 365 104 365 135 365 c 0,3,4
 183 365 183 365 203 336.5 c 128,-1,5
 223 308 223 308 226 263 c 0,6,7
 227 252 227 252 227.5 242 c 128,-1,8
 228 232 228 232 227 222 c 0,9,10
 226 213 226 213 226 205.5 c 128,-1,11
 226 198 226 198 226 192 c 2,12,-1
 226 88 l 2,13,14
 226 69 226 69 228 59 c 128,-1,15
 230 49 230 49 232 44 c 0,16,17
 233 42 233 42 236 40.5 c 128,-1,18
 239 39 239 39 248 39 c 0,19,20
 265 39 265 39 277 45 c 128,-1,21
 289 51 289 51 294 68 c 1,22,23
 292 68 292 68 289.5 67.5 c 128,-1,24
 287 67 287 67 285 67 c 0,25,26
 265 67 265 67 252 80 c 256,27,28
 239 93 239 93 242 114 c 0,29,30
 244 122 244 122 252.5 133 c 128,-1,31
 261 144 261 144 271 144 c 0,32,33
 273 145 273 145 277 145 c 0,34,35
 283 145 283 145 290.5 140 c 128,-1,36
 298 135 298 135 304.5 128.5 c 128,-1,37
 311 122 311 122 316 114.5 c 128,-1,38
 321 107 321 107 323 101 c 0,39,40
 329 80 329 80 323 60 c 0,41,42
 315 33 315 33 295 21 c 128,-1,43
 275 9 275 9 248 9 c 0,44,45
 230 9 230 9 219.5 16 c 128,-1,46
 209 23 209 23 204 34 c 128,-1,47
 199 45 199 45 197.5 59 c 128,-1,48
 196 73 196 73 196 88 c 2,49,-1
 196 192 l 2,50,51
 196 197 196 197 196 203.5 c 128,-1,52
 196 210 196 210 197 218 c 1,53,54
 180 203 180 203 155.5 195.5 c 128,-1,55
 131 188 131 188 108 188 c 0,56,57
 76 188 76 188 49.5 206 c 128,-1,58
 23 224 23 224 14 256 c 0,59,60
 10 280 10 280 24 305 c 1,61,-1
 24 305 l 1,0,1
44 263 m 1,62,63
 51 240 51 240 69.5 229 c 128,-1,64
 88 218 88 218 111 218 c 0,65,66
 126 218 126 218 135 219 c 128,-1,67
 144 220 144 220 151.5 223.5 c 128,-1,68
 159 227 159 227 166 233 c 128,-1,69
 173 239 173 239 184 249 c 2,70,-1
 195 259 l 1,71,-1
 197 257 l 1,72,-1
 197 261 l 2,73,74
 195 291 195 291 183.5 313 c 128,-1,75
 172 335 172 335 138 335 c 0,76,77
 112 335 112 335 88 322.5 c 128,-1,78
 64 310 64 310 50 289 c 0,79,80
 41 274 41 274 44 263 c 1,81,-1
 44 263 l 1,62,63
275 100 m 1,82,83
 275 97 275 97 284 97 c 0,84,85
 286 97 286 97 288 97.5 c 128,-1,86
 290 98 290 98 292 98 c 1,87,88
 290 103 290 103 285 108.5 c 128,-1,89
 280 114 280 114 276 114 c 0,90,91
 272 113 272 113 272 108 c 0,92,93
 271 106 271 106 275 100 c 1,94,-1
 275 100 l 1,82,83
EndSplineSet
Validated: 33
EndChar
StartChar: uniE41A
Encoding: 92815 92815 35
Width: 416
Flags: W
LayerCount: 2
Fore
SplineSet
188 328 m 1,0,1
 182 330 182 330 180 330 c 0,2,3
 176 331 176 331 170 330 c 2,4,-1
 168 330 l 2,5,6
 135 330 135 330 110 310 c 0,7,8
 83 284 83 284 69 251 c 128,-1,9
 55 218 55 218 50 182 c 0,10,11
 47 162 47 162 47.5 143.5 c 128,-1,12
 48 125 48 125 50 108 c 0,13,14
 55 74 55 74 68 55 c 0,15,16
 73 45 73 45 79.5 41.5 c 128,-1,17
 86 38 86 38 94 38 c 0,18,19
 119 38 119 38 136 43.5 c 128,-1,20
 153 49 153 49 165.5 59.5 c 128,-1,21
 178 70 178 70 188 85 c 128,-1,22
 198 100 198 100 208 119 c 2,23,-1
 215 132 l 1,24,-1
 241 118 l 1,25,-1
 234 105 l 2,26,27
 229 97 229 97 225 89 c 128,-1,28
 221 81 221 81 216 73 c 0,29,30
 195 38 195 38 164.5 23 c 128,-1,31
 134 8 134 8 94 8 c 0,32,33
 75 8 75 8 62 17 c 128,-1,34
 49 26 49 26 40.5 40.5 c 128,-1,35
 32 55 32 55 27 72 c 128,-1,36
 22 89 22 89 20 104 c 0,37,38
 17 123 17 123 17.5 143.5 c 128,-1,39
 18 164 18 164 21 185 c 0,40,41
 25 215 25 215 35.5 246 c 128,-1,42
 46 277 46 277 63.5 302.5 c 128,-1,43
 81 328 81 328 106.5 344 c 128,-1,44
 132 360 132 360 167 360 c 0,45,46
 176 362 176 362 184 360 c 0,47,48
 194 358 194 358 202 354.5 c 128,-1,49
 210 351 210 351 215 341 c 0,50,51
 215 340 215 340 217 334 c 0,52,53
 217 332 217 332 217.5 329.5 c 128,-1,54
 218 327 218 327 219 323 c 0,55,56
 221 316 221 316 221.5 307.5 c 128,-1,57
 222 299 222 299 224 289 c 0,58,59
 228 264 228 264 231 239.5 c 128,-1,60
 234 215 234 215 237 190 c 0,61,62
 239 170 239 170 241.5 148.5 c 128,-1,63
 244 127 244 127 247 104 c 1,64,-1
 341 328 l 1,65,66
 340 328 340 328 339.5 328.5 c 128,-1,67
 339 329 339 329 338 329 c 0,68,69
 329 332 329 332 322 332 c 0,70,71
 311 328 311 328 307.5 323.5 c 128,-1,72
 304 319 304 319 301 308 c 0,73,74
 297 295 297 295 307 279 c 0,75,76
 314 268 314 268 320.5 255.5 c 128,-1,77
 327 243 327 243 335 229 c 0,78,79
 343 214 343 214 351 199.5 c 128,-1,80
 359 185 359 185 367 168 c 0,81,82
 383 133 383 133 383 89 c 0,83,84
 383 69 383 69 379.5 53 c 128,-1,85
 376 37 376 37 368 26 c 0,86,87
 353 6 353 6 330 7 c 0,88,89
 313 7 313 7 296 20 c 128,-1,90
 279 33 279 33 279 51 c 2,91,-1
 279 66 l 1,92,-1
 309 66 l 1,93,-1
 309 51 l 2,94,95
 309 50 309 50 310 49 c 256,96,97
 311 48 311 48 312 46.5 c 128,-1,98
 313 45 313 45 315 43 c 0,99,100
 322 38 322 38 332 36 c 0,101,102
 340 36 340 36 344 42.5 c 128,-1,103
 348 49 348 49 350 58 c 128,-1,104
 352 67 352 67 352.5 76 c 128,-1,105
 353 85 353 85 353 89 c 0,106,107
 353 128 353 128 340 155 c 0,108,109
 332 171 332 171 325 185.5 c 128,-1,110
 318 200 318 200 310 214 c 0,111,112
 301 228 301 228 294 240.5 c 128,-1,113
 287 253 287 253 281 264 c 0,114,115
 266 293 266 293 273 316 c 0,116,117
 278 333 278 333 289.5 347 c 128,-1,118
 301 361 301 361 321 361 c 0,119,120
 335 363 335 363 347 358 c 0,121,122
 359 354 359 354 368 349 c 0,123,124
 373 347 373 347 375 341 c 128,-1,125
 377 335 377 335 375 330 c 2,126,-1
 253 41 l 2,127,128
 247 28 247 28 236.5 29.5 c 128,-1,129
 226 31 226 31 224 45 c 0,130,131
 218 84 218 84 214.5 119 c 128,-1,132
 211 154 211 154 207 186 c 0,133,134
 204 211 204 211 201 235 c 128,-1,135
 198 259 198 259 194 284 c 0,136,137
 192 295 192 295 191 303 c 128,-1,138
 190 311 190 311 189 318 c 0,139,140
 189 321 189 321 188.5 323.5 c 128,-1,141
 188 326 188 326 188 328 c 1,142,-1
 189 327 l 1,143,-1
 188 328 l 1,144,-1
 188 328 l 1,0,1
EndSplineSet
Validated: 37
EndChar
StartChar: uniE41B
Encoding: 92816 92816 36
Width: 352
Flags: W
LayerCount: 2
Fore
SplineSet
180 245 m 2,0,1
 193 246 193 246 205.5 244.5 c 128,-1,2
 218 243 218 243 230 241 c 0,3,4
 257 236 257 236 275 220.5 c 128,-1,5
 293 205 293 205 295 176 c 0,6,7
 296 161 296 161 289.5 144.5 c 128,-1,8
 283 128 283 128 272 110 c 0,9,10
 251 76 251 76 217.5 52 c 128,-1,11
 184 28 184 28 146 17 c 0,12,13
 113 6 113 6 82 8 c 0,14,15
 67 8 67 8 54 10.5 c 128,-1,16
 41 13 41 13 31 19 c 0,17,18
 20 25 20 25 14.5 34.5 c 128,-1,19
 9 44 9 44 11 58 c 0,20,21
 14 74 14 74 31 87 c 128,-1,22
 48 100 48 100 69.5 110 c 128,-1,23
 91 120 91 120 113.5 126 c 128,-1,24
 136 132 136 132 149 133 c 0,25,26
 200 139 200 139 243 136 c 0,27,28
 268 134 268 134 284.5 131.5 c 128,-1,29
 301 129 301 129 309 126 c 2,30,-1
 324 122 l 1,31,-1
 315 93 l 1,32,-1
 301 98 l 2,33,34
 288 102 288 102 241 106 c 0,35,36
 221 108 221 108 198.5 107 c 128,-1,37
 176 106 176 106 152 104 c 0,38,39
 107 100 107 100 65 73 c 0,40,41
 50 65 50 65 45.5 59.5 c 128,-1,42
 41 54 41 54 40 52 c 0,43,44
 40 50 40 50 41 50 c 1,45,46
 41 47 41 47 46.5 44.5 c 128,-1,47
 52 42 52 42 59.5 40.5 c 128,-1,48
 67 39 67 39 73.5 38 c 128,-1,49
 80 37 80 37 82 37 c 0,50,51
 106 37 106 37 130 43 c 128,-1,52
 154 49 154 49 175.5 60.5 c 128,-1,53
 197 72 197 72 215.5 88.5 c 128,-1,54
 234 105 234 105 246 126 c 0,55,56
 257 144 257 144 261 155.5 c 128,-1,57
 265 167 265 167 265 175 c 0,58,59
 264 190 264 190 255 198.5 c 128,-1,60
 246 207 246 207 233 210.5 c 128,-1,61
 220 214 220 214 206 215 c 128,-1,62
 192 216 192 216 180 216 c 0,63,64
 163 214 163 214 146.5 212 c 128,-1,65
 130 210 130 210 113 205 c 0,66,67
 98 201 98 201 92.5 211.5 c 128,-1,68
 87 222 87 222 99 231 c 2,69,-1
 214 320 l 1,70,-1
 112 299 l 1,71,-1
 106 329 l 1,72,-1
 271 362 l 2,73,74
 285 365 285 365 289.5 354.5 c 128,-1,75
 294 344 294 344 283 335 c 2,76,-1
 166 245 l 1,77,-1
 180 245 l 2,0,1
EndSplineSet
Validated: 37
EndChar
StartChar: uniE41C
Encoding: 92817 92817 37
Width: 347
Flags: W
LayerCount: 2
Fore
SplineSet
26 333 m 1,0,-1
 33 320 l 2,1,2
 50 290 50 290 64 255 c 128,-1,3
 78 220 78 220 89 183 c 1,4,5
 90 185 90 185 91 185.5 c 128,-1,6
 92 186 92 186 94 188 c 0,7,8
 102 196 102 196 109.5 202.5 c 128,-1,9
 117 209 117 209 125 217 c 1,10,11
 110 241 110 241 104 270 c 0,12,13
 99 296 99 296 106 314 c 0,14,15
 111 327 111 327 122 332 c 128,-1,16
 133 337 133 337 146 337 c 256,17,18
 159 337 159 337 169.5 332 c 128,-1,19
 180 327 180 327 186 315 c 0,20,21
 196 295 196 295 188 268 c 0,22,23
 180 242 180 242 162 216 c 1,24,25
 174 199 174 199 182 191 c 0,26,27
 184 189 184 189 185 187 c 1,28,29
 190 194 190 194 195 200 c 128,-1,30
 200 206 200 206 205 212 c 0,31,32
 213 223 213 223 222.5 233 c 128,-1,33
 232 243 232 243 240 254 c 1,34,35
 233 261 233 261 228.5 268.5 c 128,-1,36
 224 276 224 276 219 285 c 0,37,38
 207 311 207 311 218 336 c 0,39,40
 224 350 224 350 238.5 356 c 128,-1,41
 253 362 253 362 270 362 c 0,42,43
 295 362 295 362 303 339 c 0,44,45
 306 329 306 329 304 319 c 128,-1,46
 302 309 302 309 298 298 c 0,47,48
 292 282 292 282 281 263 c 1,49,50
 290 259 290 259 300 257 c 2,51,-1
 315 255 l 1,52,-1
 311 225 l 1,53,-1
 296 227 l 2,54,55
 276 230 276 230 264 237 c 1,56,57
 243 208 243 208 227 192 c 0,58,59
 215 180 215 180 204 163 c 1,60,61
 217 144 217 144 226.5 123 c 128,-1,62
 236 102 236 102 240 81 c 0,63,64
 245 54 245 54 236 33 c 0,65,66
 231 20 231 20 220 14 c 128,-1,67
 209 8 209 8 195 8 c 0,68,69
 165 8 165 8 153 34 c 0,70,71
 147 45 147 45 145 58 c 128,-1,72
 143 71 143 71 144 85 c 0,73,74
 145 104 145 104 151.5 123.5 c 128,-1,75
 158 143 158 143 169 161 c 1,76,77
 166 165 166 165 160 171 c 0,78,79
 155 176 155 176 151 181 c 128,-1,80
 147 186 147 186 142 191 c 1,81,82
 131 180 131 180 120 169.5 c 128,-1,83
 109 159 109 159 97 149 c 1,84,85
 101 131 101 131 103.5 113.5 c 128,-1,86
 106 96 106 96 107 79 c 0,87,88
 109 51 109 51 103 33 c 0,89,90
 95 8 95 8 69 8 c 0,91,92
 55 8 55 8 43.5 13.5 c 128,-1,93
 32 19 32 19 26 31 c 0,94,95
 16 51 16 51 21 79 c 0,96,97
 25 99 25 99 37 119.5 c 128,-1,98
 49 140 49 140 64 158 c 1,99,100
 54 197 54 197 39 236.5 c 128,-1,101
 24 276 24 276 7 306 c 2,102,-1
 0 319 l 1,103,-1
 26 333 l 1,0,-1
188 134 m 1,104,105
 176 108 176 108 174 83 c 0,106,107
 173 61 173 61 179 47 c 0,108,109
 185 38 185 38 195 38 c 256,110,111
 205 38 205 38 208 45 c 0,112,113
 210 50 210 50 211 58 c 128,-1,114
 212 66 212 66 210 77 c 0,115,116
 207 94 207 94 201.5 107.5 c 128,-1,117
 196 121 196 121 188 134 c 1,118,-1
 188 134 l 1,104,105
73 121 m 1,119,120
 65 110 65 110 59 97.5 c 128,-1,121
 53 85 53 85 51 73 c 0,122,123
 48 53 48 53 52 45 c 0,124,125
 54 42 54 42 57.5 40 c 128,-1,126
 61 38 61 38 69 38 c 0,127,128
 73 38 73 38 75 43 c 256,129,130
 77 48 77 48 77.5 56.5 c 128,-1,131
 78 65 78 65 78 78 c 0,132,133
 77 88 77 88 76 99 c 128,-1,134
 75 110 75 110 73 121 c 1,135,-1
 73 121 l 1,119,120
160 277 m 1,136,137
 163 286 163 286 162.5 291.5 c 128,-1,138
 162 297 162 297 160 301 c 0,139,140
 159 303 159 303 156.5 305 c 128,-1,141
 154 307 154 307 146 307 c 256,142,143
 138 307 138 307 136.5 305.5 c 128,-1,144
 135 304 135 304 134 302 c 0,145,146
 132 298 132 298 132 291.5 c 128,-1,147
 132 285 132 285 133 276 c 0,148,149
 134 269 134 269 137 260.5 c 128,-1,150
 140 252 140 252 145 244 c 1,151,152
 154 261 154 261 160 277 c 1,153,-1
 160 277 l 1,136,137
270 309 m 1,154,155
 275 324 275 324 273 331 c 0,156,157
 273 332 273 332 270 332 c 0,158,159
 256 332 256 332 251.5 329 c 128,-1,160
 247 326 247 326 246 323 c 0,161,162
 241 314 241 314 247 298 c 0,163,164
 250 288 250 288 257 280 c 1,165,166
 264 294 264 294 270 309 c 1,167,-1
 270 309 l 1,154,155
EndSplineSet
Validated: 37
EndChar
StartChar: uniE41D
Encoding: 92818 92818 38
Width: 325
Flags: W
LayerCount: 2
Fore
SplineSet
15 312 m 1,0,1
 15 339 15 339 31.5 350.5 c 128,-1,2
 48 362 48 362 73 362 c 0,3,4
 88 362 88 362 99 356.5 c 128,-1,5
 110 351 110 351 115 335 c 0,6,7
 117 329 117 329 118 323.5 c 128,-1,8
 119 318 119 318 118 312 c 2,9,-1
 118 69 l 2,10,11
 118 43 118 43 105.5 25.5 c 128,-1,12
 93 8 93 8 65 8 c 0,13,14
 44 8 44 8 33 21.5 c 128,-1,15
 22 35 22 35 22 55 c 0,16,17
 21 64 21 64 23 73.5 c 128,-1,18
 25 83 25 83 28 92 c 0,19,20
 35 113 35 113 55 129 c 2,21,-1
 244 299 l 2,22,23
 244 300 244 300 245 301.5 c 128,-1,24
 246 303 246 303 246 305 c 0,25,26
 248 310 248 310 246 317 c 0,27,28
 244 325 244 325 237.5 328.5 c 128,-1,29
 231 332 231 332 224 332 c 0,30,31
 219 332 219 332 214 330.5 c 128,-1,32
 209 329 209 329 207 324 c 0,33,34
 206 323 206 323 206 321.5 c 128,-1,35
 206 320 206 320 205 318 c 0,36,37
 205 301 205 301 207.5 292 c 128,-1,38
 210 283 210 283 218 267 c 0,39,40
 226 252 226 252 233 235 c 128,-1,41
 240 218 240 218 248 201 c 0,42,43
 256 183 256 183 263.5 166 c 128,-1,44
 271 149 271 149 279 132 c 0,45,46
 294 99 294 99 294 76 c 0,47,48
 294 45 294 45 280.5 28.5 c 128,-1,49
 267 12 267 12 236 12 c 0,50,51
 211 12 211 12 193.5 26 c 128,-1,52
 176 40 176 40 166 61 c 2,53,-1
 160 74 l 1,54,-1
 187 87 l 1,55,-1
 194 73 l 2,56,57
 196 68 196 68 198.5 64.5 c 128,-1,58
 201 61 201 61 203 57 c 0,59,60
 208 49 208 49 218 45.5 c 128,-1,61
 228 42 228 42 236 42 c 0,62,63
 245 42 245 42 254 46 c 128,-1,64
 263 50 263 50 263 61 c 0,65,66
 264 66 264 66 264 76 c 0,67,68
 264 89 264 89 251 121 c 0,69,70
 237 155 237 155 222 188.5 c 128,-1,71
 207 222 207 222 190 254 c 0,72,73
 175 284 175 284 175 303 c 0,74,75
 175 314 175 314 176 319 c 0,76,77
 176 339 176 339 190.5 350.5 c 128,-1,78
 205 362 205 362 224 362 c 0,79,80
 241 362 241 362 255.5 352.5 c 128,-1,81
 270 343 270 343 274 325 c 0,82,83
 279 312 279 312 276 299 c 256,84,85
 273 286 273 286 264 277 c 2,86,-1
 75 107 l 2,87,88
 64 98 64 98 57.5 84 c 128,-1,89
 51 70 51 70 51 56 c 0,90,91
 52 50 52 50 54.5 44 c 128,-1,92
 57 38 57 38 65 38 c 0,93,94
 74 38 74 38 80.5 42.5 c 128,-1,95
 87 47 87 47 87 57 c 0,96,97
 88 60 88 60 88 63.5 c 128,-1,98
 88 67 88 67 88 69 c 2,99,-1
 88 315 l 2,100,101
 89 319 89 319 87 325 c 0,102,103
 85 329 85 329 83 331 c 2,104,-1
 81 331 l 2,105,106
 80 332 80 332 73 332 c 0,107,108
 63 332 63 332 54 328 c 128,-1,109
 45 324 45 324 45 312 c 2,110,-1
 45 297 l 1,111,-1
 15 297 l 1,112,-1
 15 312 l 1,113,-1
 15 312 l 1,0,1
EndSplineSet
Validated: 37
EndChar
StartChar: uniE41E
Encoding: 92819 92819 39
Width: 351
Flags: W
LayerCount: 2
Fore
SplineSet
14 90 m 0,0,1
 14 107 14 107 22.5 120.5 c 128,-1,2
 31 134 31 134 44 144 c 128,-1,3
 57 154 57 154 73 159 c 128,-1,4
 89 164 89 164 104 164 c 0,5,6
 148 164 148 164 180 135 c 1,7,-1
 180 235 l 2,8,9
 178 263 178 263 178 291 c 128,-1,10
 178 319 178 319 178 347 c 2,11,-1
 178 362 l 1,12,-1
 208 362 l 1,13,-1
 208 302 l 2,14,15
 209 286 209 286 209 269.5 c 128,-1,16
 209 253 209 253 209 236 c 0,17,18
 210 218 210 218 210 200 c 128,-1,19
 210 182 210 182 210 165 c 0,20,21
 210 146 210 146 209.5 131 c 128,-1,22
 209 116 209 116 208 103 c 0,23,24
 208 101 208 101 207.5 97 c 128,-1,25
 207 93 207 93 206 88 c 0,26,27
 213 66 213 66 225 47 c 1,28,-1
 247 39 l 1,29,-1
 253 39 l 2,30,31
 270 39 270 39 282 45 c 128,-1,32
 294 51 294 51 299 68 c 1,33,34
 297 68 297 68 294.5 67.5 c 128,-1,35
 292 67 292 67 290 67 c 0,36,37
 270 67 270 67 257 80 c 256,38,39
 244 93 244 93 247 114 c 0,40,41
 249 122 249 122 257.5 133 c 128,-1,42
 266 144 266 144 276 144 c 0,43,44
 277 145 277 145 282 145 c 0,45,46
 289 145 289 145 296 140 c 128,-1,47
 303 135 303 135 309.5 128.5 c 128,-1,48
 316 122 316 122 321 114.5 c 128,-1,49
 326 107 326 107 328 101 c 0,50,51
 333 80 333 80 328 60 c 0,52,53
 320 32 320 32 299 20 c 128,-1,54
 278 8 278 8 250 8 c 0,55,56
 212 8 212 8 191 47 c 1,57,58
 164 8 164 8 108 8 c 0,59,60
 65 8 65 8 39.5 26.5 c 128,-1,61
 14 45 14 45 14 90 c 0,0,1
44 90 m 0,62,63
 44 58 44 58 62.5 48 c 128,-1,64
 81 38 81 38 108 38 c 0,65,66
 140 38 140 38 155 50.5 c 128,-1,67
 170 63 170 63 175 87 c 1,68,69
 170 113 170 113 149 123.5 c 128,-1,70
 128 134 128 134 104 134 c 0,71,72
 95 134 95 134 84.5 131 c 128,-1,73
 74 128 74 128 65 122.5 c 128,-1,74
 56 117 56 117 50 109 c 128,-1,75
 44 101 44 101 44 90 c 0,62,63
280 100 m 0,76,77
 280 97 280 97 289 97 c 0,78,79
 291 97 291 97 293 97.5 c 128,-1,80
 295 98 295 98 297 98 c 1,81,82
 295 103 295 103 290 108.5 c 128,-1,83
 285 114 285 114 281 114 c 0,84,85
 277 113 277 113 277 108 c 0,86,87
 275 106 275 106 280 100 c 0,76,77
EndSplineSet
Validated: 33
EndChar
StartChar: uniE41F
Encoding: 92820 92820 40
Width: 328
Flags: W
LayerCount: 2
Fore
SplineSet
63 107 m 2,0,1
 52 97 52 97 45.5 83.5 c 128,-1,2
 39 70 39 70 39 56 c 0,3,4
 40 50 40 50 42.5 44 c 128,-1,5
 45 38 45 38 53 38 c 0,6,7
 62 38 62 38 68.5 42.5 c 128,-1,8
 75 47 75 47 75 57 c 0,9,10
 76 60 76 60 76 63.5 c 128,-1,11
 76 67 76 67 76 69 c 2,12,-1
 76 119 l 1,13,-1
 63 107 l 2,0,1
76 315 m 2,14,15
 77 319 77 319 75 325 c 0,16,17
 73 329 73 329 71 331 c 2,18,-1
 69 331 l 2,19,20
 68 332 68 332 61 332 c 0,21,22
 53 332 53 332 48 324.5 c 128,-1,23
 43 317 43 317 41 310 c 0,24,25
 41 298 41 298 48 294.5 c 128,-1,26
 55 291 55 291 66 290 c 2,27,-1
 76 289 l 1,28,-1
 76 315 l 2,14,15
232 299 m 2,29,30
 232 300 232 300 233 301.5 c 128,-1,31
 234 303 234 303 234 305 c 0,32,33
 236 310 236 310 234 317 c 0,34,35
 232 325 232 325 225.5 328.5 c 128,-1,36
 219 332 219 332 212 332 c 0,37,38
 201 332 201 332 198 321 c 128,-1,39
 195 310 195 310 193 302 c 2,40,-1
 193 264 l 1,41,-1
 232 299 l 2,29,30
64 260 m 1,42,43
 51 261 51 261 40 265 c 128,-1,44
 29 269 29 269 21 279 c 0,45,46
 9 296 9 296 12 314 c 0,47,48
 15 334 15 334 27.5 348 c 128,-1,49
 40 362 40 362 61 362 c 0,50,51
 76 362 76 362 87 356.5 c 128,-1,52
 98 351 98 351 103 335 c 0,53,54
 105 329 105 329 106 323.5 c 128,-1,55
 107 318 107 318 106 312 c 2,56,-1
 106 186 l 1,57,-1
 163 237 l 1,58,-1
 163 304 l 2,59,60
 165 327 165 327 175.5 344.5 c 128,-1,61
 186 362 186 362 212 362 c 0,62,63
 229 362 229 362 243.5 352.5 c 128,-1,64
 258 343 258 343 262 325 c 0,65,66
 267 312 267 312 264 299 c 256,67,68
 261 286 261 286 252 277 c 2,69,-1
 193 224 l 1,70,-1
 193 73 l 2,71,72
 193 42 193 42 224 42 c 0,73,74
 232 42 232 42 237.5 49 c 128,-1,75
 243 56 243 56 246.5 65 c 128,-1,76
 250 74 250 74 251.5 84 c 128,-1,77
 253 94 253 94 254 100 c 2,78,-1
 256 115 l 1,79,-1
 285 112 l 1,80,-1
 284 98 l 2,81,82
 283 85 283 85 279.5 70 c 128,-1,83
 276 55 276 55 269 42 c 128,-1,84
 262 29 262 29 251 20.5 c 128,-1,85
 240 12 240 12 224 12 c 0,86,87
 195 12 195 12 179 28.5 c 128,-1,88
 163 45 163 45 163 73 c 2,89,-1
 163 197 l 1,90,-1
 106 146 l 1,91,-1
 106 69 l 2,92,93
 106 43 106 43 93.5 25.5 c 128,-1,94
 81 8 81 8 53 8 c 0,95,96
 32 8 32 8 21 21.5 c 128,-1,97
 10 35 10 35 10 55 c 0,98,99
 9 64 9 64 11 73.5 c 128,-1,100
 13 83 13 83 16 92 c 0,101,102
 20 103 20 103 27 112 c 128,-1,103
 34 121 34 121 43 129 c 2,104,-1
 76 159 l 1,105,-1
 76 259 l 1,106,-1
 64 260 l 1,107,-1
 64 260 l 1,42,43
EndSplineSet
Validated: 37
EndChar
StartChar: uniE420
Encoding: 92821 92821 41
Width: 300
Flags: W
LayerCount: 2
Fore
SplineSet
60 260 m 1,0,1
 47 261 47 261 36 265 c 128,-1,2
 25 269 25 269 17 279 c 0,3,4
 5 296 5 296 8 314 c 0,5,6
 11 334 11 334 23.5 348 c 128,-1,7
 36 362 36 362 57 362 c 0,8,9
 72 362 72 362 83 356.5 c 128,-1,10
 94 351 94 351 99 335 c 0,11,12
 101 329 101 329 102 323.5 c 128,-1,13
 103 318 103 318 102 312 c 2,14,-1
 102 69 l 2,15,16
 102 43 102 43 89.5 25.5 c 128,-1,17
 77 8 77 8 49 8 c 0,18,19
 28 8 28 8 17 21.5 c 128,-1,20
 6 35 6 35 6 55 c 0,21,22
 5 64 5 64 7 73.5 c 128,-1,23
 9 83 9 83 12 92 c 0,24,25
 19 113 19 113 39 129 c 2,26,-1
 228 299 l 2,27,28
 228 300 228 300 229 301.5 c 128,-1,29
 230 303 230 303 230 305 c 0,30,31
 232 310 232 310 230 317 c 0,32,33
 228 325 228 325 221.5 328.5 c 128,-1,34
 215 332 215 332 208 332 c 0,35,36
 203 332 203 332 198 330.5 c 128,-1,37
 193 329 193 329 191 324 c 0,38,39
 190 323 190 323 190 321.5 c 128,-1,40
 190 320 190 320 189 318 c 0,41,42
 189 301 189 301 191.5 292 c 128,-1,43
 194 283 194 283 202 267 c 0,44,45
 210 252 210 252 217 235 c 128,-1,46
 224 218 224 218 232 201 c 0,47,48
 240 183 240 183 247.5 166 c 128,-1,49
 255 149 255 149 263 132 c 0,50,51
 278 99 278 99 278 76 c 0,52,53
 278 45 278 45 264.5 28.5 c 128,-1,54
 251 12 251 12 220 12 c 0,55,56
 195 12 195 12 177.5 26 c 128,-1,57
 160 40 160 40 150 61 c 2,58,-1
 144 74 l 1,59,-1
 171 87 l 1,60,-1
 178 73 l 2,61,62
 180 68 180 68 182.5 64.5 c 128,-1,63
 185 61 185 61 187 57 c 0,64,65
 192 49 192 49 202 45.5 c 128,-1,66
 212 42 212 42 220 42 c 0,67,68
 229 42 229 42 238 46 c 128,-1,69
 247 50 247 50 247 61 c 0,70,71
 248 66 248 66 248 76 c 0,72,73
 248 89 248 89 235 121 c 0,74,75
 221 155 221 155 206 188.5 c 128,-1,76
 191 222 191 222 174 254 c 0,77,78
 159 284 159 284 159 303 c 0,79,80
 159 314 159 314 160 319 c 0,81,82
 160 339 160 339 174.5 350.5 c 128,-1,83
 189 362 189 362 208 362 c 0,84,85
 225 362 225 362 239.5 352.5 c 128,-1,86
 254 343 254 343 258 325 c 0,87,88
 263 312 263 312 260 299 c 256,89,90
 257 286 257 286 248 277 c 2,91,-1
 59 107 l 2,92,93
 48 98 48 98 41.5 84 c 128,-1,94
 35 70 35 70 35 56 c 0,95,96
 36 50 36 50 38.5 44 c 128,-1,97
 41 38 41 38 49 38 c 0,98,99
 58 38 58 38 64.5 42.5 c 128,-1,100
 71 47 71 47 71 57 c 0,101,102
 72 60 72 60 72 63.5 c 128,-1,103
 72 67 72 67 72 69 c 2,104,-1
 72 315 l 2,105,106
 73 319 73 319 71 325 c 0,107,108
 69 329 69 329 67 331 c 2,109,-1
 65 331 l 2,110,111
 64 332 64 332 57 332 c 0,112,113
 49 332 49 332 44 324.5 c 128,-1,114
 39 317 39 317 37 310 c 0,115,116
 37 298 37 298 44 294.5 c 128,-1,117
 51 291 51 291 62 290 c 2,118,-1
 77 289 l 1,119,-1
 75 259 l 1,120,-1
 60 260 l 1,121,-1
 60 260 l 1,0,1
EndSplineSet
Validated: 37
EndChar
StartChar: uniE421
Encoding: 92822 92822 42
Width: 332
Flags: W
LayerCount: 2
Fore
SplineSet
15 312 m 1,0,1
 15 339 15 339 31.5 350.5 c 128,-1,2
 48 362 48 362 73 362 c 0,3,4
 88 362 88 362 99 356.5 c 128,-1,5
 110 351 110 351 115 335 c 0,6,7
 117 329 117 329 118 323.5 c 128,-1,8
 119 318 119 318 118 312 c 2,9,-1
 118 69 l 2,10,11
 118 43 118 43 105.5 25.5 c 128,-1,12
 93 8 93 8 65 8 c 0,13,14
 44 8 44 8 33 21.5 c 128,-1,15
 22 35 22 35 22 55 c 0,16,17
 21 64 21 64 23 73.5 c 128,-1,18
 25 83 25 83 28 92 c 0,19,20
 35 113 35 113 55 129 c 2,21,-1
 244 299 l 2,22,23
 244 300 244 300 245 301.5 c 128,-1,24
 246 303 246 303 246 305 c 0,25,26
 248 310 248 310 246 317 c 0,27,28
 244 325 244 325 237.5 328.5 c 128,-1,29
 231 332 231 332 224 332 c 0,30,31
 219 332 219 332 214 330.5 c 128,-1,32
 209 329 209 329 207 324 c 0,33,34
 206 323 206 323 206 321.5 c 128,-1,35
 206 320 206 320 205 318 c 0,36,37
 205 301 205 301 207.5 292 c 128,-1,38
 210 283 210 283 218 267 c 0,39,40
 226 252 226 252 233 235 c 128,-1,41
 240 218 240 218 248 201 c 0,42,43
 256 183 256 183 263.5 166 c 128,-1,44
 271 149 271 149 279 132 c 0,45,46
 294 99 294 99 294 76 c 0,47,48
 294 49 294 49 279.5 30.5 c 128,-1,49
 265 12 265 12 236 12 c 0,50,51
 205 12 205 12 185 29.5 c 128,-1,52
 165 47 165 47 165 79 c 0,53,54
 165 100 165 100 175.5 118 c 128,-1,55
 186 136 186 136 202 150 c 128,-1,56
 218 164 218 164 237.5 174.5 c 128,-1,57
 257 185 257 185 275 191 c 2,58,-1
 289 196 l 1,59,-1
 299 168 l 1,60,-1
 285 163 l 2,61,62
 272 159 272 159 256.5 151 c 128,-1,63
 241 143 241 143 227.5 132.5 c 128,-1,64
 214 122 214 122 204.5 108.5 c 128,-1,65
 195 95 195 95 195 79 c 0,66,67
 195 59 195 59 205.5 50.5 c 128,-1,68
 216 42 216 42 236 42 c 0,69,70
 252 42 252 42 258 51.5 c 128,-1,71
 264 61 264 61 264 76 c 0,72,73
 264 89 264 89 251 121 c 0,74,75
 237 155 237 155 222 188.5 c 128,-1,76
 207 222 207 222 190 254 c 0,77,78
 175 284 175 284 175 303 c 0,79,80
 175 314 175 314 176 319 c 0,81,82
 176 339 176 339 190.5 350.5 c 128,-1,83
 205 362 205 362 224 362 c 0,84,85
 241 362 241 362 255.5 352.5 c 128,-1,86
 270 343 270 343 274 325 c 0,87,88
 279 312 279 312 276 299 c 256,89,90
 273 286 273 286 264 277 c 2,91,-1
 75 107 l 2,92,93
 64 98 64 98 57.5 84 c 128,-1,94
 51 70 51 70 51 56 c 0,95,96
 52 50 52 50 54.5 44 c 128,-1,97
 57 38 57 38 65 38 c 0,98,99
 74 38 74 38 80.5 42.5 c 128,-1,100
 87 47 87 47 87 57 c 0,101,102
 88 60 88 60 88 63.5 c 128,-1,103
 88 67 88 67 88 69 c 2,104,-1
 88 315 l 2,105,106
 89 319 89 319 87 325 c 0,107,108
 85 329 85 329 83 331 c 2,109,-1
 81 331 l 2,110,111
 80 332 80 332 73 332 c 0,112,113
 63 332 63 332 54 328 c 128,-1,114
 45 324 45 324 45 312 c 2,115,-1
 45 297 l 1,116,-1
 15 297 l 1,117,-1
 15 312 l 1,118,-1
 15 312 l 1,0,1
EndSplineSet
Validated: 37
EndChar
StartChar: uniE422
Encoding: 92823 92823 43
Width: 316
Flags: W
LayerCount: 2
Fore
SplineSet
76 260 m 1,0,1
 63 261 63 261 52 265 c 128,-1,2
 41 269 41 269 33 279 c 0,3,4
 21 296 21 296 24 314 c 0,5,6
 27 334 27 334 39.5 348 c 128,-1,7
 52 362 52 362 73 362 c 0,8,9
 88 362 88 362 99 356.5 c 128,-1,10
 110 351 110 351 115 335 c 0,11,12
 117 329 117 329 118 323.5 c 128,-1,13
 119 318 119 318 118 312 c 2,14,-1
 118 69 l 2,15,16
 118 43 118 43 105.5 25.5 c 128,-1,17
 93 8 93 8 65 8 c 0,18,19
 44 8 44 8 33 21.5 c 128,-1,20
 22 35 22 35 22 55 c 0,21,22
 21 64 21 64 23 73.5 c 128,-1,23
 25 83 25 83 28 92 c 0,24,25
 35 113 35 113 55 129 c 2,26,-1
 244 299 l 2,27,28
 244 300 244 300 245 301.5 c 128,-1,29
 246 303 246 303 246 305 c 0,30,31
 248 310 248 310 246 317 c 0,32,33
 244 325 244 325 237.5 328.5 c 128,-1,34
 231 332 231 332 224 332 c 0,35,36
 219 332 219 332 214 330.5 c 128,-1,37
 209 329 209 329 207 324 c 0,38,39
 206 323 206 323 206 321.5 c 128,-1,40
 206 320 206 320 205 318 c 0,41,42
 205 301 205 301 207.5 292 c 128,-1,43
 210 283 210 283 218 267 c 0,44,45
 226 252 226 252 233 235 c 128,-1,46
 240 218 240 218 248 201 c 0,47,48
 256 183 256 183 263.5 166 c 128,-1,49
 271 149 271 149 279 132 c 0,50,51
 294 99 294 99 294 76 c 0,52,53
 294 45 294 45 280.5 28.5 c 128,-1,54
 267 12 267 12 236 12 c 0,55,56
 208 12 208 12 186.5 23.5 c 128,-1,57
 165 35 165 35 165 67 c 0,58,59
 165 82 165 82 172 94.5 c 128,-1,60
 179 107 179 107 190.5 117 c 128,-1,61
 202 127 202 127 215 135 c 128,-1,62
 228 143 228 143 240 148 c 2,63,-1
 254 154 l 1,64,-1
 266 126 l 1,65,-1
 252 120 l 2,66,67
 245 117 245 117 235 111.5 c 128,-1,68
 225 106 225 106 216 99.5 c 128,-1,69
 207 93 207 93 201 84.5 c 128,-1,70
 195 76 195 76 195 67 c 0,71,72
 195 50 195 50 209 46 c 128,-1,73
 223 42 223 42 236 42 c 0,74,75
 245 42 245 42 254 46 c 128,-1,76
 263 50 263 50 263 61 c 0,77,78
 264 66 264 66 264 76 c 0,79,80
 264 89 264 89 251 121 c 0,81,82
 237 155 237 155 222 188.5 c 128,-1,83
 207 222 207 222 190 254 c 0,84,85
 175 284 175 284 175 303 c 0,86,87
 175 314 175 314 176 319 c 0,88,89
 176 339 176 339 190.5 350.5 c 128,-1,90
 205 362 205 362 224 362 c 0,91,92
 241 362 241 362 255.5 352.5 c 128,-1,93
 270 343 270 343 274 325 c 0,94,95
 279 312 279 312 276 299 c 256,96,97
 273 286 273 286 264 277 c 2,98,-1
 75 107 l 2,99,100
 64 98 64 98 57.5 84 c 128,-1,101
 51 70 51 70 51 56 c 0,102,103
 52 50 52 50 54.5 44 c 128,-1,104
 57 38 57 38 65 38 c 0,105,106
 74 38 74 38 80.5 42.5 c 128,-1,107
 87 47 87 47 87 57 c 0,108,109
 88 60 88 60 88 63.5 c 128,-1,110
 88 67 88 67 88 69 c 2,111,-1
 88 315 l 2,112,113
 89 319 89 319 87 325 c 0,114,115
 85 329 85 329 83 331 c 2,116,-1
 81 331 l 2,117,118
 80 332 80 332 73 332 c 0,119,120
 65 332 65 332 60 324.5 c 128,-1,121
 55 317 55 317 53 310 c 0,122,123
 53 298 53 298 60 294.5 c 128,-1,124
 67 291 67 291 78 290 c 2,125,-1
 93 289 l 1,126,-1
 91 259 l 1,127,-1
 76 260 l 1,128,-1
 76 260 l 1,0,1
EndSplineSet
Validated: 37
EndChar
StartChar: uniE423
Encoding: 92824 92824 44
Width: 323
Flags: W
LayerCount: 2
Fore
SplineSet
103 330 m 1,0,1
 86 330 86 330 75 319.5 c 128,-1,2
 64 309 64 309 58 293.5 c 128,-1,3
 52 278 52 278 49.5 260.5 c 128,-1,4
 47 243 47 243 46 230 c 0,5,6
 44 214 44 214 44 198.5 c 128,-1,7
 44 183 44 183 44 166 c 0,8,9
 44 100 44 100 56 65 c 0,10,11
 65 38 65 38 97 38 c 0,12,13
 115 38 115 38 125 42.5 c 128,-1,14
 135 47 135 47 140 55.5 c 128,-1,15
 145 64 145 64 146 75.5 c 128,-1,16
 147 87 147 87 147 102 c 2,17,-1
 147 284 l 2,18,19
 147 298 147 298 140 314 c 128,-1,20
 133 330 133 330 116 330 c 2,21,-1
 101 330 l 1,22,-1
 101 360 l 1,23,-1
 116 360 l 2,24,25
 131 360 131 360 142.5 353 c 128,-1,26
 154 346 154 346 161.5 335 c 128,-1,27
 169 324 169 324 173 310.5 c 128,-1,28
 177 297 177 297 177 284 c 2,29,-1
 177 102 l 2,30,31
 177 57 177 57 160 32.5 c 128,-1,32
 143 8 143 8 97 8 c 0,33,34
 66 8 66 8 49.5 24.5 c 128,-1,35
 33 41 33 41 25 65 c 128,-1,36
 17 89 17 89 15.5 116.5 c 128,-1,37
 14 144 14 144 14 166 c 0,38,39
 14 189 14 189 15.5 222.5 c 128,-1,40
 17 256 17 256 25 286.5 c 128,-1,41
 33 317 33 317 51.5 338.5 c 128,-1,42
 70 360 70 360 103 360 c 2,43,-1
 118 360 l 1,44,-1
 118 330 l 1,45,-1
 103 330 l 1,46,-1
 103 330 l 1,0,1
291 83 m 1,47,48
 291 57 291 57 277 34 c 1,49,50
 263 19 263 19 247.5 13.5 c 128,-1,51
 232 8 232 8 212 8 c 0,52,53
 183 8 183 8 164.5 28 c 128,-1,54
 146 48 146 48 146 77 c 2,55,-1
 146 92 l 1,56,-1
 176 92 l 1,57,-1
 176 77 l 2,58,59
 176 61 176 61 186 49.5 c 128,-1,60
 196 38 196 38 212 38 c 0,61,62
 221 38 221 38 234 40.5 c 128,-1,63
 247 43 247 43 252 52 c 0,64,65
 257 57 257 57 259 66 c 128,-1,66
 261 75 261 75 261 83 c 2,67,-1
 261 362 l 1,68,-1
 291 362 l 1,69,-1
 291 83 l 1,70,-1
 291 83 l 1,47,48
EndSplineSet
Validated: 5
EndChar
StartChar: uniE424
Encoding: 92825 92825 45
Width: 385
Flags: W
LayerCount: 2
Fore
SplineSet
103 330 m 1,0,1
 86 330 86 330 75 319.5 c 128,-1,2
 64 309 64 309 58 293.5 c 128,-1,3
 52 278 52 278 49.5 260.5 c 128,-1,4
 47 243 47 243 46 230 c 0,5,6
 44 214 44 214 44 198.5 c 128,-1,7
 44 183 44 183 44 166 c 0,8,9
 44 100 44 100 56 65 c 0,10,11
 66 37 66 37 97 37 c 0,12,13
 114 37 114 37 124 42 c 128,-1,14
 134 47 134 47 139 55.5 c 128,-1,15
 144 64 144 64 145.5 76 c 128,-1,16
 147 88 147 88 147 102 c 2,17,-1
 147 284 l 2,18,19
 147 298 147 298 140 314 c 128,-1,20
 133 330 133 330 116 330 c 2,21,-1
 101 330 l 1,22,-1
 101 360 l 1,23,-1
 116 360 l 2,24,25
 131 360 131 360 142.5 353 c 128,-1,26
 154 346 154 346 161.5 335 c 128,-1,27
 169 324 169 324 173 310.5 c 128,-1,28
 177 297 177 297 177 284 c 2,29,-1
 177 102 l 2,30,31
 177 57 177 57 160 32 c 128,-1,32
 143 7 143 7 97 7 c 0,33,34
 66 7 66 7 49.5 23.5 c 128,-1,35
 33 40 33 40 25 64 c 128,-1,36
 17 88 17 88 15.5 116 c 128,-1,37
 14 144 14 144 14 166 c 0,38,39
 14 189 14 189 15.5 222.5 c 128,-1,40
 17 256 17 256 25 286.5 c 128,-1,41
 33 317 33 317 51.5 338.5 c 128,-1,42
 70 360 70 360 103 360 c 2,43,-1
 118 360 l 1,44,-1
 118 330 l 1,45,-1
 103 330 l 1,46,-1
 103 330 l 1,0,1
264 329 m 1,47,48
 261 324 261 324 259.5 314.5 c 128,-1,49
 258 305 258 305 256.5 295 c 128,-1,50
 255 285 255 285 254 276 c 128,-1,51
 253 267 253 267 253 261 c 0,52,53
 252 226 252 226 256 184 c 0,54,55
 257 175 257 175 261 150.5 c 128,-1,56
 265 126 265 126 271.5 101 c 128,-1,57
 278 76 278 76 287.5 56.5 c 128,-1,58
 297 37 297 37 310 37 c 0,59,60
 316 37 316 37 316 39 c 0,61,62
 321 42 321 42 324 48 c 128,-1,63
 327 54 327 54 328 59 c 2,64,-1
 331 74 l 1,65,-1
 361 68 l 1,66,-1
 358 53 l 2,67,68
 354 34 354 34 342 20.5 c 128,-1,69
 330 7 330 7 310 7 c 0,70,71
 286 7 286 7 271 27.5 c 128,-1,72
 256 48 256 48 246.5 76.5 c 128,-1,73
 237 105 237 105 232.5 134.5 c 128,-1,74
 228 164 228 164 226 182 c 0,75,76
 221 224 221 224 223 261 c 0,77,78
 224 280 224 280 225.5 295.5 c 128,-1,79
 227 311 227 311 230 325 c 0,80,81
 232 331 232 331 234.5 337 c 128,-1,82
 237 343 237 343 240 348 c 256,83,84
 243 353 243 353 250 356.5 c 128,-1,85
 257 360 257 360 262 360 c 0,86,87
 277 360 277 360 285.5 349 c 128,-1,88
 294 338 294 338 298.5 322.5 c 128,-1,89
 303 307 303 307 304 290 c 128,-1,90
 305 273 305 273 305 262 c 0,91,92
 306 239 306 239 305 218 c 0,93,94
 304 207 304 207 303.5 198 c 128,-1,95
 303 189 303 189 302 181 c 256,96,97
 301 173 301 173 301 167.5 c 128,-1,98
 301 162 301 162 301 159 c 0,99,100
 301 141 301 141 296 115 c 128,-1,101
 291 89 291 89 280 65 c 128,-1,102
 269 41 269 41 252.5 24.5 c 128,-1,103
 236 8 236 8 212 8 c 0,104,105
 182 8 182 8 164 28 c 128,-1,106
 146 48 146 48 146 77 c 2,107,-1
 146 92 l 1,108,-1
 176 92 l 1,109,-1
 176 77 l 2,110,111
 176 60 176 60 185.5 49 c 128,-1,112
 195 38 195 38 212 38 c 0,113,114
 227 38 227 38 235 50 c 0,115,116
 243 58 243 58 249.5 72 c 128,-1,117
 256 86 256 86 260.5 101.5 c 128,-1,118
 265 117 265 117 268 132 c 128,-1,119
 271 147 271 147 271 159 c 0,120,121
 271 163 271 163 271.5 169 c 128,-1,122
 272 175 272 175 273 183 c 0,123,124
 276 222 276 222 276 261 c 0,125,126
 275 284 275 284 273 300 c 0,127,128
 272 305 272 305 270 315 c 128,-1,129
 268 325 268 325 264 329 c 1,130,-1
 264 329 l 1,47,48
EndSplineSet
Validated: 37
EndChar
StartChar: uniE425
Encoding: 92826 92826 46
Width: 324
Flags: W
LayerCount: 2
Fore
SplineSet
103 330 m 1,0,1
 86 330 86 330 75 319.5 c 128,-1,2
 64 309 64 309 58 293.5 c 128,-1,3
 52 278 52 278 49.5 260.5 c 128,-1,4
 47 243 47 243 46 230 c 0,5,6
 44 214 44 214 44 198.5 c 128,-1,7
 44 183 44 183 44 166 c 0,8,9
 44 100 44 100 56 65 c 0,10,11
 66 37 66 37 97 37 c 0,12,13
 119 37 119 37 136 48.5 c 128,-1,14
 153 60 153 60 158 82 c 0,15,16
 160 89 160 89 161 95.5 c 128,-1,17
 162 102 162 102 161 110 c 0,18,19
 160 119 160 119 160 129.5 c 128,-1,20
 160 140 160 140 159 153 c 256,21,22
 158 166 158 166 157 178 c 128,-1,23
 156 190 156 190 155 203 c 0,24,25
 154 215 154 215 153 227 c 128,-1,26
 152 239 152 239 151 250 c 256,27,28
 150 261 150 261 149.5 268.5 c 128,-1,29
 149 276 149 276 147 281 c 0,30,31
 146 287 146 287 144 295.5 c 128,-1,32
 142 304 142 304 138.5 311.5 c 128,-1,33
 135 319 135 319 129.5 324.5 c 128,-1,34
 124 330 124 330 116 330 c 2,35,-1
 101 330 l 1,36,-1
 101 360 l 1,37,-1
 116 360 l 2,38,39
 136 360 136 360 148 349 c 128,-1,40
 160 338 160 338 167 322 c 128,-1,41
 174 306 174 306 177 287 c 128,-1,42
 180 268 180 268 181 253 c 0,43,44
 182 242 182 242 183 230 c 128,-1,45
 184 218 184 218 185 205 c 256,46,47
 186 192 186 192 186.5 180 c 128,-1,48
 187 168 187 168 188 155 c 0,49,50
 189 131 189 131 191 112 c 0,51,52
 192 102 192 102 190.5 92.5 c 128,-1,53
 189 83 189 83 187 74 c 0,54,55
 179 43 179 43 153.5 25 c 128,-1,56
 128 7 128 7 97 7 c 256,57,58
 66 7 66 7 49.5 23.5 c 128,-1,59
 33 40 33 40 25 64 c 128,-1,60
 17 88 17 88 15.5 116 c 128,-1,61
 14 144 14 144 14 166 c 0,62,63
 14 189 14 189 15.5 222.5 c 128,-1,64
 17 256 17 256 25 286.5 c 128,-1,65
 33 317 33 317 51.5 338.5 c 128,-1,66
 70 360 70 360 103 360 c 2,67,-1
 118 360 l 1,68,-1
 118 330 l 1,69,-1
 103 330 l 1,70,-1
 103 330 l 1,0,1
291 83 m 1,71,72
 291 57 291 57 277 34 c 1,73,74
 263 19 263 19 247.5 13.5 c 128,-1,75
 232 8 232 8 212 8 c 0,76,77
 194 8 194 8 177 17.5 c 128,-1,78
 160 27 160 27 146 41.5 c 128,-1,79
 132 56 132 56 121 73.5 c 128,-1,80
 110 91 110 91 104 107 c 0,81,82
 93 137 93 137 92 170 c 0,83,84
 91 201 91 201 102 238 c 0,85,86
 107 255 107 255 117 272 c 128,-1,87
 127 289 127 289 141 306 c 2,88,-1
 151 318 l 1,89,-1
 174 299 l 1,90,-1
 165 288 l 2,91,92
 140 257 140 257 131 228 c 0,93,94
 126 214 126 214 123.5 199 c 128,-1,95
 121 184 121 184 122 170 c 0,96,97
 124 134 124 134 139.5 101 c 128,-1,98
 155 68 155 68 185 47 c 0,99,100
 198 38 198 38 212 38 c 0,101,102
 221 38 221 38 234 40.5 c 128,-1,103
 247 43 247 43 252 52 c 0,104,105
 257 57 257 57 259 66 c 128,-1,106
 261 75 261 75 261 83 c 2,107,-1
 261 307 l 1,108,-1
 291 307 l 1,109,-1
 291 83 l 1,110,-1
 291 83 l 1,71,72
261 311 m 2,111,112
 260 319 260 319 258 323 c 0,113,114
 256 328 256 328 252 329 c 128,-1,115
 248 330 248 330 243 330 c 256,116,117
 238 330 238 330 237 329 c 128,-1,118
 236 328 236 328 235 327 c 0,119,120
 232 317 232 317 233 310 c 0,121,122
 235 300 235 300 239.5 293 c 128,-1,123
 244 286 244 286 255 286 c 0,124,125
 257 287 257 287 263 287 c 2,126,-1
 277 292 l 1,127,-1
 287 264 l 1,128,-1
 273 259 l 2,129,130
 268 257 268 257 259 257 c 0,131,132
 257 256 257 256 251 256 c 0,133,134
 231 256 231 256 218.5 271.5 c 128,-1,135
 206 287 206 287 203 305 c 256,136,137
 200 323 200 323 208 339 c 0,138,139
 218 360 218 360 243 360 c 0,140,141
 266 360 266 360 278 347 c 128,-1,142
 290 334 290 334 290 312 c 0,143,144
 291 307 291 307 291 302 c 128,-1,145
 291 297 291 297 291 292 c 2,146,-1
 291 277 l 1,147,-1
 261 277 l 1,148,-1
 261 292 l 1,149,-1
 261 311 l 2,111,112
EndSplineSet
Validated: 37
EndChar
StartChar: uniE426
Encoding: 92827 92827 47
Width: 324
Flags: W
LayerCount: 2
Fore
SplineSet
103 330 m 1,0,1
 86 330 86 330 75 319.5 c 128,-1,2
 64 309 64 309 58 293.5 c 128,-1,3
 52 278 52 278 49.5 260.5 c 128,-1,4
 47 243 47 243 46 230 c 0,5,6
 44 214 44 214 44 198.5 c 128,-1,7
 44 183 44 183 44 166 c 0,8,9
 44 100 44 100 56 65 c 0,10,11
 66 37 66 37 97 37 c 0,12,13
 114 37 114 37 124 42 c 128,-1,14
 134 47 134 47 139 55.5 c 128,-1,15
 144 64 144 64 145.5 76 c 128,-1,16
 147 88 147 88 147 102 c 2,17,-1
 147 284 l 2,18,19
 147 298 147 298 140 314 c 128,-1,20
 133 330 133 330 116 330 c 2,21,-1
 101 330 l 1,22,-1
 101 360 l 1,23,-1
 116 360 l 2,24,25
 131 360 131 360 142.5 353 c 128,-1,26
 154 346 154 346 161.5 335 c 128,-1,27
 169 324 169 324 173 310.5 c 128,-1,28
 177 297 177 297 177 284 c 2,29,-1
 177 102 l 2,30,31
 177 57 177 57 160 32 c 128,-1,32
 143 7 143 7 97 7 c 0,33,34
 66 7 66 7 49.5 23.5 c 128,-1,35
 33 40 33 40 25 64 c 128,-1,36
 17 88 17 88 15.5 116 c 128,-1,37
 14 144 14 144 14 166 c 0,38,39
 14 189 14 189 15.5 222.5 c 128,-1,40
 17 256 17 256 25 286.5 c 128,-1,41
 33 317 33 317 51.5 338.5 c 128,-1,42
 70 360 70 360 103 360 c 2,43,-1
 118 360 l 1,44,-1
 118 330 l 1,45,-1
 103 330 l 1,46,-1
 103 330 l 1,0,1
291 83 m 1,47,48
 291 57 291 57 277 34 c 1,49,50
 263 19 263 19 247.5 13.5 c 128,-1,51
 232 8 232 8 212 8 c 0,52,53
 182 8 182 8 164 28 c 128,-1,54
 146 48 146 48 146 77 c 2,55,-1
 146 92 l 1,56,-1
 176 92 l 1,57,-1
 176 77 l 2,58,59
 176 60 176 60 185.5 49 c 128,-1,60
 195 38 195 38 212 38 c 0,61,62
 221 38 221 38 234 40.5 c 128,-1,63
 247 43 247 43 252 52 c 0,64,65
 257 57 257 57 259 66 c 128,-1,66
 261 75 261 75 261 83 c 2,67,-1
 261 307 l 1,68,-1
 291 307 l 1,69,-1
 291 83 l 1,70,-1
 291 83 l 1,47,48
261 311 m 2,71,72
 260 319 260 319 258 323 c 0,73,74
 256 328 256 328 252 329 c 128,-1,75
 248 330 248 330 243 330 c 256,76,77
 238 330 238 330 237 329 c 128,-1,78
 236 328 236 328 235 327 c 0,79,80
 232 317 232 317 233 310 c 0,81,82
 235 300 235 300 239.5 293 c 128,-1,83
 244 286 244 286 255 286 c 0,84,85
 257 287 257 287 263 287 c 2,86,-1
 277 292 l 1,87,-1
 287 264 l 1,88,-1
 273 259 l 2,89,90
 268 257 268 257 259 257 c 0,91,92
 257 256 257 256 251 256 c 0,93,94
 231 256 231 256 218.5 271.5 c 128,-1,95
 206 287 206 287 203 305 c 256,96,97
 200 323 200 323 208 339 c 0,98,99
 218 360 218 360 243 360 c 0,100,101
 266 360 266 360 278 347 c 128,-1,102
 290 334 290 334 290 312 c 0,103,104
 291 307 291 307 291 302 c 128,-1,105
 291 297 291 297 291 292 c 2,106,-1
 291 277 l 1,107,-1
 261 277 l 1,108,-1
 261 292 l 1,109,-1
 261 311 l 2,71,72
EndSplineSet
Validated: 37
EndChar
StartChar: uniE427
Encoding: 92828 92828 48
Width: 363
Flags: W
LayerCount: 2
Fore
SplineSet
38 242 m 1,0,1
 38 185 38 185 41 137 c 0,2,3
 42 123 42 123 45 105.5 c 128,-1,4
 48 88 48 88 55.5 73 c 128,-1,5
 63 58 63 58 75 48 c 128,-1,6
 87 38 87 38 105 38 c 0,7,8
 134 38 134 38 151.5 55 c 128,-1,9
 169 72 169 72 178 98 c 0,10,11
 182 110 182 110 182.5 120.5 c 128,-1,12
 183 131 183 131 181 140 c 0,13,14
 180 145 180 145 179 146.5 c 128,-1,15
 178 148 178 148 177 149 c 2,16,-1
 176 150 l 1,17,-1
 174 150 l 2,18,19
 168 150 168 150 165.5 141 c 128,-1,20
 163 132 163 132 162 127 c 0,21,22
 162 87 162 87 181.5 62.5 c 128,-1,23
 201 38 201 38 242 38 c 0,24,25
 254 38 254 38 263 46 c 128,-1,26
 272 54 272 54 279 65.5 c 128,-1,27
 286 77 286 77 290.5 89.5 c 128,-1,28
 295 102 295 102 297 112 c 0,29,30
 299 124 299 124 300 142 c 128,-1,31
 301 160 301 160 301 185 c 2,32,-1
 301 362 l 1,33,-1
 331 362 l 1,34,-1
 331 185 l 2,35,36
 331 163 331 163 330 141 c 128,-1,37
 329 119 329 119 324.5 99 c 128,-1,38
 320 79 320 79 310.5 60.5 c 128,-1,39
 301 42 301 42 284 26 c 0,40,41
 264 8 264 8 242 8 c 0,42,43
 203 8 203 8 173 30.5 c 128,-1,44
 143 53 143 53 135 91 c 0,45,46
 130 112 130 112 133 129 c 256,47,48
 136 146 136 146 144 163 c 128,-1,49
 152 180 152 180 174 180 c 0,50,51
 191 180 191 180 199 170.5 c 128,-1,52
 207 161 207 161 210 146 c 0,53,54
 215 121 215 121 206 90 c 0,55,56
 195 55 195 55 169 31.5 c 128,-1,57
 143 8 143 8 105 8 c 0,58,59
 80 8 80 8 62.5 20 c 128,-1,60
 45 32 45 32 34 50.5 c 128,-1,61
 23 69 23 69 17.5 91.5 c 128,-1,62
 12 114 12 114 11 135 c 0,63,64
 8 185 8 185 8 242 c 2,65,-1
 8 361 l 1,66,-1
 38 361 l 1,67,-1
 38 242 l 1,68,-1
 38 242 l 1,0,1
EndSplineSet
Validated: 37
EndChar
StartChar: uniE428
Encoding: 92829 92829 49
Width: 341
Flags: W
LayerCount: 2
Fore
SplineSet
38 100 m 2,0,1
 38 89 38 89 38.5 78 c 128,-1,2
 39 67 39 67 43 56 c 256,3,4
 47 45 47 45 53.5 41.5 c 128,-1,5
 60 38 60 38 71 38 c 1,6,7
 78 45 78 45 83.5 58.5 c 128,-1,8
 89 72 89 72 94 89 c 1,9,10
 88 112 88 112 84 137 c 128,-1,11
 80 162 80 162 77.5 185.5 c 128,-1,12
 75 209 75 209 74 229 c 128,-1,13
 73 249 73 249 73 262 c 0,14,15
 73 271 73 271 73.5 288 c 128,-1,16
 74 305 74 305 78 321 c 128,-1,17
 82 337 82 337 89.5 349 c 128,-1,18
 97 361 97 361 110 361 c 0,19,20
 126 361 126 361 133 350 c 128,-1,21
 140 339 140 339 143 325 c 0,22,23
 149 297 149 297 148 262 c 0,24,25
 148 252 148 252 147 233 c 128,-1,26
 146 214 146 214 143 190 c 128,-1,27
 140 166 140 166 136 139.5 c 128,-1,28
 132 113 132 113 126 89 c 0,29,30
 127 85 127 85 129.5 76.5 c 128,-1,31
 132 68 132 68 136 59.5 c 128,-1,32
 140 51 140 51 144.5 44.5 c 128,-1,33
 149 38 149 38 153 38 c 0,34,35
 166 38 166 38 175.5 49 c 128,-1,36
 185 60 185 60 193 77 c 1,37,38
 185 106 185 106 182 136 c 128,-1,39
 179 166 179 166 178 183 c 0,40,41
 177 205 177 205 176 224.5 c 128,-1,42
 175 244 175 244 177 263 c 0,43,44
 179 281 179 281 180 296.5 c 128,-1,45
 181 312 181 312 185 326 c 0,46,47
 188 337 188 337 195.5 349 c 128,-1,48
 203 361 203 361 217 361 c 0,49,50
 223 361 223 361 229.5 357.5 c 128,-1,51
 236 354 236 354 239 349 c 256,52,53
 242 344 242 344 244.5 338 c 128,-1,54
 247 332 247 332 249 326 c 0,55,56
 255 299 255 299 255 262 c 0,57,58
 255 249 255 249 253.5 227 c 128,-1,59
 252 205 252 205 249 179.5 c 128,-1,60
 246 154 246 154 240 127 c 128,-1,61
 234 100 234 100 225 77 c 1,62,63
 227 71 227 71 229.5 65 c 128,-1,64
 232 59 232 59 235 53 c 0,65,66
 240 42 240 42 243 40 c 128,-1,67
 246 38 246 38 247 38 c 0,68,69
 262 38 262 38 269.5 45 c 128,-1,70
 277 52 277 52 283 65 c 2,71,-1
 289 78 l 1,72,-1
 316 67 l 1,73,-1
 311 53 l 2,74,75
 304 33 304 33 286 20.5 c 128,-1,76
 268 8 268 8 247 8 c 0,77,78
 234 8 234 8 224.5 17 c 128,-1,79
 215 26 215 26 207 41 c 1,80,81
 196 26 196 26 183 17 c 128,-1,82
 170 8 170 8 153 8 c 0,83,84
 139 8 139 8 128.5 18 c 128,-1,85
 118 28 118 28 110 45 c 1,86,87
 94 8 94 8 71 8 c 0,88,89
 51 8 51 8 38.5 16.5 c 128,-1,90
 26 25 26 25 19.5 38 c 128,-1,91
 13 51 13 51 10.5 67.5 c 128,-1,92
 8 84 8 84 8 100 c 2,93,-1
 8 362 l 1,94,-1
 38 362 l 1,95,-1
 38 100 l 2,0,1
225 262 m 1,96,97
 225 297 225 297 219 318 c 0,98,99
 219 323 219 323 217 327 c 1,100,101
 212 311 212 311 209.5 294.5 c 128,-1,102
 207 278 207 278 206 261 c 0,103,104
 206 234 206 234 206.5 202 c 128,-1,105
 207 170 207 170 212 138 c 1,106,107
 219 174 219 174 222 209 c 128,-1,108
 225 244 225 244 225 262 c 1,109,-1
 225 262 l 1,96,97
119 262 m 1,110,111
 119 268 119 268 118.5 277 c 128,-1,112
 118 286 118 286 117.5 296 c 128,-1,113
 117 306 117 306 115.5 314.5 c 128,-1,114
 114 323 114 323 111 328 c 1,115,116
 106 317 106 317 104.5 295.5 c 128,-1,117
 103 274 103 274 103 262 c 0,118,119
 103 240 103 240 104.5 215.5 c 128,-1,120
 106 191 106 191 110 165 c 1,121,122
 114 194 114 194 116 219.5 c 128,-1,123
 118 245 118 245 119 262 c 1,124,-1
 119 262 l 1,110,111
EndSplineSet
Validated: 37
EndChar
StartChar: uniE429
Encoding: 92830 92830 50
Width: 328
Flags: W
LayerCount: 2
Fore
SplineSet
49 331 m 1,0,1
 42 318 42 318 39 302 c 256,2,3
 36 286 36 286 40 275 c 0,4,5
 42 261 42 261 52 255 c 128,-1,6
 62 249 62 249 75 249 c 0,7,8
 93 249 93 249 105.5 261 c 128,-1,9
 118 273 118 273 124 289 c 0,10,11
 130 303 130 303 128 314 c 2,12,-1
 128 316 l 1,13,14
 122 316 122 316 118 311 c 128,-1,15
 114 306 114 306 111.5 298.5 c 128,-1,16
 109 291 109 291 108 284 c 128,-1,17
 107 277 107 277 107 272 c 0,18,19
 109 251 109 251 118 239 c 128,-1,20
 127 227 127 227 150 227 c 0,21,22
 182 227 182 227 202 244 c 128,-1,23
 222 261 222 261 237 286 c 0,24,25
 242 294 242 294 243.5 301 c 128,-1,26
 245 308 245 308 245 313 c 0,27,28
 246 323 246 323 242 329 c 0,29,30
 241 330 241 330 239.5 331 c 128,-1,31
 238 332 238 332 233 332 c 0,32,33
 224 332 224 332 221 323 c 128,-1,34
 218 314 218 314 217 306 c 0,35,36
 217 298 217 298 217 288.5 c 128,-1,37
 217 279 217 279 219 268 c 256,38,39
 221 257 221 257 222 245.5 c 128,-1,40
 223 234 223 234 225 222 c 0,41,42
 227 209 227 209 228.5 197.5 c 128,-1,43
 230 186 230 186 232 174 c 256,44,45
 234 162 234 162 235 151 c 128,-1,46
 236 140 236 140 236 130 c 0,47,48
 236 94 236 94 216 64.5 c 128,-1,49
 196 35 196 35 165 18 c 0,50,51
 151 10 151 10 137.5 7.5 c 128,-1,52
 124 5 124 5 110 10 c 0,53,54
 93 16 93 16 86.5 30.5 c 128,-1,55
 80 45 80 45 80 63 c 0,56,57
 80 83 80 83 87.5 97 c 128,-1,58
 95 111 95 111 107.5 120.5 c 128,-1,59
 120 130 120 130 136 135.5 c 128,-1,60
 152 141 152 141 169 144 c 256,61,62
 186 147 186 147 201.5 150.5 c 128,-1,63
 217 154 217 154 233 156 c 0,64,65
 248 158 248 158 258.5 163 c 128,-1,66
 269 168 269 168 277 175 c 2,67,-1
 288 185 l 1,68,-1
 308 163 l 1,69,-1
 297 153 l 2,70,71
 276 133 276 133 239 127 c 0,72,73
 206 121 206 121 176 115 c 0,74,75
 164 113 164 113 152.5 109.5 c 128,-1,76
 141 106 141 106 131.5 100.5 c 128,-1,77
 122 95 122 95 116 86 c 128,-1,78
 110 77 110 77 110 63 c 0,79,80
 110 48 110 48 113.5 43.5 c 128,-1,81
 117 39 117 39 119 38 c 0,82,83
 130 34 130 34 151 44 c 0,84,85
 174 55 174 55 190 79.5 c 128,-1,86
 206 104 206 104 206 130 c 0,87,88
 206 148 206 148 203 170 c 0,89,90
 201 181 201 181 199.5 193 c 128,-1,91
 198 205 198 205 196 217 c 0,92,93
 194 230 194 230 192.5 241.5 c 128,-1,94
 191 253 191 253 189 265 c 256,95,96
 187 277 187 277 186.5 287.5 c 128,-1,97
 186 298 186 298 188 308 c 0,98,99
 191 329 191 329 199 345.5 c 128,-1,100
 207 362 207 362 233 362 c 0,101,102
 256 362 256 362 267 345 c 0,103,104
 277 331 277 331 275 311 c 0,105,106
 273 289 273 289 261.5 268.5 c 128,-1,107
 250 248 250 248 232.5 232 c 128,-1,108
 215 216 215 216 193.5 206.5 c 128,-1,109
 172 197 172 197 150 197 c 0,110,111
 117 197 117 197 97.5 218 c 128,-1,112
 78 239 78 239 78 271 c 0,113,114
 77 296 77 296 88 319 c 0,115,116
 94 330 94 330 103 338 c 128,-1,117
 112 346 112 346 126 346 c 256,118,119
 140 346 140 346 147.5 338 c 128,-1,120
 155 330 155 330 158 318 c 0,121,122
 160 308 160 308 158 298 c 128,-1,123
 156 288 156 288 151 277 c 0,124,125
 141 254 141 254 121 236.5 c 128,-1,126
 101 219 101 219 75 219 c 0,127,128
 26 219 26 219 10 268 c 0,129,130
 7 278 7 278 7.5 287.5 c 128,-1,131
 8 297 8 297 10 308 c 0,132,133
 12 318 12 318 15 327.5 c 128,-1,134
 18 337 18 337 23 345 c 2,135,-1
 30 358 l 1,136,-1
 56 344 l 1,137,-1
 49 331 l 1,138,-1
 49 331 l 1,0,1
EndSplineSet
Validated: 37
EndChar
StartChar: uniE42A
Encoding: 92831 92831 51
Width: 288
Flags: W
LayerCount: 2
Fore
SplineSet
40 344 m 1,0,1
 40 336 40 336 40 328 c 128,-1,2
 40 320 40 320 39 312 c 0,3,4
 38 299 38 299 41 287 c 256,5,6
 44 275 44 275 53.5 271.5 c 128,-1,7
 63 268 63 268 74 268 c 0,8,9
 84 268 84 268 97 273.5 c 128,-1,10
 110 279 110 279 121 288 c 128,-1,11
 132 297 132 297 140 308.5 c 128,-1,12
 148 320 148 320 148 331 c 0,13,14
 146 332 146 332 136 332 c 0,15,16
 133 332 133 332 131.5 331.5 c 128,-1,17
 130 331 130 331 128 331 c 0,18,19
 127 330 127 330 126 330 c 0,20,21
 124 327 124 327 123 323 c 128,-1,22
 122 319 122 319 121 313 c 2,23,-1
 121 284 l 2,24,25
 122 274 122 274 122.5 264.5 c 128,-1,26
 123 255 123 255 123 244 c 2,27,-1
 123 8 l 1,28,-1
 93 8 l 1,29,-1
 93 244 l 2,30,31
 93 254 93 254 93 263 c 128,-1,32
 93 272 93 272 92 281 c 0,33,34
 91 292 91 292 90.5 300.5 c 128,-1,35
 90 309 90 309 92 317 c 256,36,37
 94 325 94 325 95.5 332.5 c 128,-1,38
 97 340 97 340 102 346 c 0,39,40
 107 356 107 356 116.5 359 c 128,-1,41
 126 362 126 362 136 362 c 0,42,43
 150 362 150 362 163.5 356 c 128,-1,44
 177 350 177 350 177 334 c 0,45,46
 179 323 179 323 175 312.5 c 128,-1,47
 171 302 171 302 164 292 c 256,48,49
 157 282 157 282 148 273 c 128,-1,50
 139 264 139 264 127 256 c 0,51,52
 103 238 103 238 74 238 c 0,53,54
 53 238 53 238 35.5 247.5 c 128,-1,55
 18 257 18 257 13 279 c 0,56,57
 7 293 7 293 9 313 c 0,58,59
 10 321 10 321 10 328.5 c 128,-1,60
 10 336 10 336 10 344 c 2,61,-1
 10 359 l 1,62,-1
 40 359 l 1,63,-1
 40 344 l 1,64,-1
 40 344 l 1,0,1
104 178 m 1,65,66
 118 197 118 197 132.5 207.5 c 128,-1,67
 147 218 147 218 172 218 c 0,68,69
 207 218 207 218 226.5 198.5 c 128,-1,70
 246 179 246 179 246 144 c 2,71,-1
 246 8 l 1,72,-1
 216 8 l 1,73,-1
 216 144 l 2,74,75
 216 188 216 188 172 188 c 0,76,77
 155 188 155 188 146 180.5 c 128,-1,78
 137 173 137 173 128 160 c 2,79,-1
 119 148 l 1,80,-1
 95 166 l 1,81,-1
 104 178 l 1,82,-1
 104 178 l 1,65,66
EndSplineSet
Validated: 37
EndChar
StartChar: uniE42E
Encoding: 92832 92832 52
Width: 304
Flags: W
LayerCount: 2
Fore
SplineSet
16 22 m 1,0,1
 16 61 16 61 18 96.5 c 128,-1,2
 20 132 20 132 27 166 c 128,-1,3
 34 200 34 200 47.5 232 c 128,-1,4
 61 264 61 264 83 297 c 0,5,6
 91 308 91 308 101.5 319.5 c 128,-1,7
 112 331 112 331 124 340.5 c 128,-1,8
 136 350 136 350 149.5 356 c 128,-1,9
 163 362 163 362 178 362 c 0,10,11
 229 362 229 362 251 329.5 c 128,-1,12
 273 297 273 297 273 252 c 2,13,-1
 273 82 l 2,14,15
 273 45 273 45 252.5 26.5 c 128,-1,16
 232 8 232 8 197 8 c 0,17,18
 188 8 188 8 179.5 10 c 128,-1,19
 171 12 171 12 165 19 c 0,20,21
 153 31 153 31 155 47 c 0,22,23
 155 68 155 68 168.5 87 c 128,-1,24
 182 106 182 106 198 120 c 0,25,26
 209 126 209 126 216 132 c 0,27,28
 221 134 221 134 226 137 c 128,-1,29
 231 140 231 140 236 142 c 2,30,-1
 250 148 l 1,31,-1
 262 120 l 1,32,-1
 248 114 l 2,33,34
 225 104 225 104 207.5 87.5 c 128,-1,35
 190 71 190 71 184 46 c 0,36,37
 184 42 184 42 186 40 c 0,38,39
 187 39 187 39 189 39 c 0,40,41
 190 39 190 39 192 38.5 c 128,-1,42
 194 38 194 38 197 38 c 0,43,44
 243 38 243 38 243 82 c 2,45,-1
 243 252 l 2,46,47
 243 288 243 288 229.5 310 c 128,-1,48
 216 332 216 332 178 332 c 0,49,50
 160 332 160 332 142 317 c 128,-1,51
 124 302 124 302 109 281 c 128,-1,52
 94 260 94 260 82.5 236.5 c 128,-1,53
 71 213 71 213 65 196 c 0,54,55
 51 153 51 153 48.5 110 c 128,-1,56
 46 67 46 67 46 22 c 2,57,-1
 46 7 l 1,58,-1
 16 7 l 1,59,-1
 16 22 l 1,60,-1
 16 22 l 1,0,1
EndSplineSet
Validated: 37
EndChar
StartChar: uniE42F
Encoding: 92833 92833 53
Width: 324
Flags: W
LayerCount: 2
Fore
SplineSet
13 315 m 1,0,1
 15 323 15 323 17 327 c 0,2,3
 26 345 26 345 36 353.5 c 128,-1,4
 46 362 46 362 69 362 c 0,5,6
 96 362 96 362 111.5 347 c 128,-1,7
 127 332 127 332 127 305 c 2,8,-1
 127 82 l 2,9,10
 127 72 127 72 128.5 60.5 c 128,-1,11
 130 49 130 49 136 41 c 0,12,13
 137 40 137 40 138 39 c 128,-1,14
 139 38 139 38 144 38 c 0,15,16
 161 38 161 38 176.5 51.5 c 128,-1,17
 192 65 192 65 205 85.5 c 128,-1,18
 218 106 218 106 227.5 131 c 128,-1,19
 237 156 237 156 242 179 c 1,20,21
 226 185 226 185 214.5 196.5 c 128,-1,22
 203 208 203 208 199 225 c 0,23,24
 197 232 197 232 196.5 238.5 c 128,-1,25
 196 245 196 245 198 253 c 0,26,27
 202 270 202 270 210 283 c 128,-1,28
 218 296 218 296 238 296 c 0,29,30
 261 296 261 296 272 277 c 0,31,32
 277 268 277 268 278.5 255 c 128,-1,33
 280 242 280 242 279 227 c 0,34,35
 279 221 279 221 278.5 215 c 128,-1,36
 278 209 278 209 277 201 c 1,37,-1
 286 201 l 1,38,-1
 301 201 l 1,39,-1
 301 171 l 1,40,-1
 286 171 l 2,41,42
 277 171 277 171 272 172 c 1,43,44
 266 145 266 145 254.5 116 c 128,-1,45
 243 87 243 87 227 63 c 128,-1,46
 211 39 211 39 190 23.5 c 128,-1,47
 169 8 169 8 144 8 c 0,48,49
 129 8 129 8 120 15 c 128,-1,50
 111 22 111 22 106 33 c 128,-1,51
 101 44 101 44 99 57 c 128,-1,52
 97 70 97 70 97 82 c 2,53,-1
 97 305 l 2,54,55
 97 321 97 321 90.5 326.5 c 128,-1,56
 84 332 84 332 69 332 c 0,57,58
 58 332 58 332 56 330 c 0,59,60
 51 328 51 328 49 325 c 128,-1,61
 47 322 47 322 45 318 c 0,62,63
 43 315 43 315 43 311.5 c 128,-1,64
 43 308 43 308 41 305 c 2,65,-1
 36 291 l 1,66,-1
 8 301 l 1,67,-1
 13 315 l 1,68,-1
 13 315 l 1,0,1
249 227 m 1,69,70
 250 243 250 243 248.5 251.5 c 128,-1,71
 247 260 247 260 245 264 c 2,72,73
 245 264 245 264 243 266 c 2,74,-1
 239 266 l 1,75,-1
 236 266 l 2,76,77
 232 266 232 266 230 259 c 128,-1,78
 228 252 228 252 227 249 c 0,79,80
 227 233 227 233 230 225.5 c 128,-1,81
 233 218 233 218 248 209 c 1,82,83
 249 214 249 214 249 218.5 c 128,-1,84
 249 223 249 223 249 227 c 1,85,-1
 249 227 l 1,69,70
EndSplineSet
Validated: 37
EndChar
StartChar: uniE430
Encoding: 92834 92834 54
Width: 316
Flags: W
LayerCount: 2
Fore
SplineSet
193 180 m 1,0,-1
 193 208 l 1,1,2
 174 205 174 205 156 204.5 c 128,-1,3
 138 204 138 204 119 204 c 0,4,5
 101 204 101 204 83 207.5 c 128,-1,6
 65 211 65 211 50 220 c 128,-1,7
 35 229 35 229 26 243 c 128,-1,8
 17 257 17 257 17 278 c 0,9,10
 17 306 17 306 29.5 322.5 c 128,-1,11
 42 339 42 339 61 347 c 128,-1,12
 80 355 80 355 103 357.5 c 128,-1,13
 126 360 126 360 148 360 c 0,14,15
 162 360 162 360 182 356.5 c 128,-1,16
 202 353 202 353 214 344 c 2,17,-1
 226 335 l 1,18,-1
 208 311 l 1,19,-1
 196 320 l 2,20,21
 192 323 192 323 184 325 c 128,-1,22
 176 327 176 327 167 328 c 128,-1,23
 158 329 158 329 149 329.5 c 128,-1,24
 140 330 140 330 134 330 c 2,25,-1
 109 330 l 2,26,27
 86 328 86 328 66.5 316 c 128,-1,28
 47 304 47 304 47 278 c 0,29,30
 47 263 47 263 56.5 254 c 128,-1,31
 66 245 66 245 80 240.5 c 128,-1,32
 94 236 94 236 109.5 234.5 c 128,-1,33
 125 233 125 233 137 233 c 0,34,35
 165 233 165 233 205 241 c 1,36,-1
 208 241 l 2,37,38
 223 241 223 241 223 226 c 2,39,-1
 223 180 l 1,40,-1
 277 180 l 2,41,42
 285 180 285 180 289.5 175 c 128,-1,43
 294 170 294 170 292 162 c 2,44,-1
 282 121 l 1,45,-1
 253 128 l 1,46,-1
 258 150 l 1,47,-1
 223 150 l 1,48,-1
 221 22 l 2,49,50
 221 6 221 6 208 6 c 0,51,52
 202 6 202 6 197 10 c 2,53,-1
 10 154 l 2,54,55
 -1 162 -1 162 2 171.5 c 128,-1,56
 5 181 5 181 19 181 c 2,57,-1
 193 180 l 1,0,-1
191 52 m 1,58,-1
 192 150 l 1,59,-1
 63 151 l 1,60,-1
 191 52 l 1,58,-1
EndSplineSet
Validated: 33
EndChar
StartChar: uniE431
Encoding: 92835 92835 55
Width: 388
Flags: W
LayerCount: 2
Fore
SplineSet
52 230 m 1,0,1
 47 217 47 217 45 202.5 c 128,-1,2
 43 188 43 188 44 170 c 0,3,4
 45 155 45 155 48.5 132.5 c 128,-1,5
 52 110 52 110 60 89 c 128,-1,6
 68 68 68 68 81 53 c 128,-1,7
 94 38 94 38 114 38 c 0,8,9
 158 38 158 38 174.5 63 c 128,-1,10
 191 88 191 88 191 126 c 0,11,12
 190 140 190 140 188 150 c 0,13,14
 188 152 188 152 187.5 153.5 c 128,-1,15
 187 155 187 155 187 156 c 1,16,17
 189 156 189 156 193.5 155.5 c 128,-1,18
 198 155 198 155 200 148 c 0,19,20
 201 145 201 145 203.5 148 c 128,-1,21
 206 151 206 151 208.5 155 c 128,-1,22
 211 159 211 159 213 162 c 128,-1,23
 215 165 215 165 215 162 c 2,24,-1
 214 152 l 2,25,26
 214 140 214 140 216 120.5 c 128,-1,27
 218 101 218 101 223.5 82.5 c 128,-1,28
 229 64 229 64 239.5 51 c 128,-1,29
 250 38 250 38 267 38 c 0,30,31
 281 38 281 38 291 44.5 c 128,-1,32
 301 51 301 51 308 61.5 c 128,-1,33
 315 72 315 72 319.5 84.5 c 128,-1,34
 324 97 324 97 326 109 c 0,35,36
 332 146 332 146 331 184 c 0,37,38
 331 193 331 193 327 217.5 c 128,-1,39
 323 242 323 242 316 267.5 c 128,-1,40
 309 293 309 293 299 312.5 c 128,-1,41
 289 332 289 332 276 332 c 0,42,43
 272 332 272 332 270 331.5 c 128,-1,44
 268 331 268 331 266 331 c 0,45,46
 264 330 264 330 264 330 c 2,47,48
 262 328 262 328 262 325 c 0,49,50
 264 316 264 316 273 309 c 128,-1,51
 282 302 282 302 290 299 c 0,52,53
 302 295 302 295 315 296 c 0,54,55
 327 298 327 298 343 312 c 2,56,-1
 354 322 l 1,57,-1
 374 300 l 1,58,-1
 363 290 l 2,59,60
 352 281 352 281 341.5 275 c 128,-1,61
 331 269 331 269 320 267 c 0,62,63
 298 264 298 264 280 270 c 0,64,65
 266 275 266 275 251 288 c 128,-1,66
 236 301 236 301 233 317 c 0,67,68
 230 335 230 335 240 348 c 0,69,70
 247 356 247 356 256.5 359 c 128,-1,71
 266 362 266 362 276 362 c 0,72,73
 300 362 300 362 315.5 341.5 c 128,-1,74
 331 321 331 321 341 292.5 c 128,-1,75
 351 264 351 264 355 234.5 c 128,-1,76
 359 205 359 205 360 186 c 0,77,78
 361 164 361 164 360.5 143.5 c 128,-1,79
 360 123 360 123 356 104 c 0,80,81
 352 86 352 86 345.5 69 c 128,-1,82
 339 52 339 52 328.5 38.5 c 128,-1,83
 318 25 318 25 303 16.5 c 128,-1,84
 288 8 288 8 267 8 c 0,85,86
 244 8 244 8 229 19.5 c 128,-1,87
 214 31 214 31 204.5 48.5 c 128,-1,88
 195 66 195 66 191 87 c 128,-1,89
 187 108 187 108 185 126 c 0,90,91
 184 143 184 143 185 153 c 2,92,-1
 185 164 l 2,93,94
 185 169 185 169 190 173.5 c 128,-1,95
 195 178 195 178 200 178 c 0,96,97
 202 178 202 178 207.5 176 c 128,-1,98
 213 174 213 174 216 164 c 0,99,100
 216 163 216 163 218 155 c 0,101,102
 220 150 220 150 220 142.5 c 128,-1,103
 220 135 220 135 220 127 c 0,104,105
 221 113 221 113 218 91 c 0,106,107
 212 49 212 49 183 28.5 c 128,-1,108
 154 8 154 8 114 8 c 0,109,110
 86 8 86 8 67.5 25 c 128,-1,111
 49 42 49 42 37 67 c 128,-1,112
 25 92 25 92 20 120 c 128,-1,113
 15 148 15 148 14 170 c 0,114,115
 12 210 12 210 24 240 c 2,116,-1
 29 254 l 1,117,-1
 57 244 l 1,118,-1
 52 230 l 1,119,-1
 52 230 l 1,0,1
EndSplineSet
Validated: 37
EndChar
StartChar: uniE432
Encoding: 92836 92836 56
Width: 268
Flags: W
LayerCount: 2
Fore
SplineSet
8 82 m 1,0,1
 8 86 8 86 9 88.5 c 128,-1,2
 10 91 10 91 11 93 c 256,3,4
 12 95 12 95 13 96.5 c 128,-1,5
 14 98 14 98 16 100 c 0,6,7
 18 104 18 104 22 107.5 c 128,-1,8
 26 111 26 111 31 116 c 0,9,10
 52 137 52 137 75.5 157 c 128,-1,11
 99 177 99 177 122 197 c 1,12,13
 108 204 108 204 93.5 213 c 128,-1,14
 79 222 79 222 67.5 233.5 c 128,-1,15
 56 245 56 245 48.5 258.5 c 128,-1,16
 41 272 41 272 41 289 c 0,17,18
 41 318 41 318 66 334 c 0,19,20
 75 340 75 340 84.5 345.5 c 128,-1,21
 94 351 94 351 105 356 c 2,22,-1
 119 363 l 1,23,-1
 132 336 l 1,24,-1
 119 330 l 2,25,26
 109 325 109 325 100 319.5 c 128,-1,27
 91 314 91 314 82 309 c 0,28,29
 71 302 71 302 71 289 c 0,30,31
 71 272 71 272 82.5 260.5 c 128,-1,32
 94 249 94 249 107 241 c 0,33,34
 116 236 116 236 125.5 230 c 128,-1,35
 135 224 135 224 146 219 c 0,36,37
 183 201 183 201 210 172 c 128,-1,38
 237 143 237 143 237 99 c 0,39,40
 237 73 237 73 222 55 c 128,-1,41
 207 37 207 37 185 26.5 c 128,-1,42
 163 16 163 16 137 11.5 c 128,-1,43
 111 7 111 7 90 7 c 0,44,45
 58 7 58 7 33 27 c 128,-1,46
 8 47 8 47 8 82 c 1,47,-1
 8 82 l 1,0,1
38 79 m 1,48,49
 40 58 40 58 55 47.5 c 128,-1,50
 70 37 70 37 90 37 c 0,51,52
 103 37 103 37 123 40 c 128,-1,53
 143 43 143 43 161.5 50.5 c 128,-1,54
 180 58 180 58 193.5 69.5 c 128,-1,55
 207 81 207 81 207 99 c 0,56,57
 207 128 207 128 190.5 148 c 128,-1,58
 174 168 174 168 151 182 c 1,59,60
 122 158 122 158 94 133 c 128,-1,61
 66 108 66 108 39 81 c 0,62,63
 39 80 39 80 38.5 80 c 128,-1,64
 38 80 38 80 38 79 c 1,65,-1
 38 79 l 1,48,49
EndSplineSet
Validated: 5
EndChar
StartChar: uniE433
Encoding: 92837 92837 57
Width: 320
Flags: W
LayerCount: 2
Fore
SplineSet
202 252 m 1,0,-1
 203 332 l 1,1,-1
 55 332 l 1,2,-1
 55 362 l 1,3,-1
 218 362 l 2,4,5
 224 362 224 362 228.5 357.5 c 128,-1,6
 233 353 233 353 233 347 c 2,7,-1
 232 252 l 1,8,-1
 287 252 l 2,9,10
 295 252 295 252 299.5 246.5 c 128,-1,11
 304 241 304 241 302 233 c 2,12,-1
 292 194 l 1,13,-1
 263 201 l 1,14,-1
 268 222 l 1,15,-1
 231 222 l 1,16,-1
 229 23 l 2,17,18
 229 6 229 6 216 6 c 0,19,20
 209 6 209 6 203 13 c 2,21,-1
 8 228 l 2,22,23
 0 237 0 237 3.5 245 c 128,-1,24
 7 253 7 253 19 253 c 2,25,-1
 202 252 l 1,0,-1
201 222 m 1,26,-1
 53 223 l 1,27,-1
 199 61 l 1,28,-1
 201 222 l 1,26,-1
EndSplineSet
Validated: 33
EndChar
StartChar: uniE434
Encoding: 92838 92838 58
Width: 348
Flags: W
LayerCount: 2
Fore
SplineSet
289 114 m 1,0,1
 266 104 266 104 248.5 87.5 c 128,-1,2
 231 71 231 71 225 46 c 0,3,4
 225 42 225 42 227 40 c 0,5,6
 228 39 228 39 230 39 c 0,7,8
 231 39 231 39 233 38.5 c 128,-1,9
 235 38 235 38 238 38 c 0,10,11
 284 38 284 38 284 82 c 2,12,-1
 284 252 l 2,13,14
 284 260 284 260 283.5 268.5 c 128,-1,15
 283 277 283 277 282 285 c 0,16,17
 276 311 276 311 262 321.5 c 128,-1,18
 248 332 248 332 222 332 c 0,19,20
 184 332 184 332 170.5 308 c 128,-1,21
 157 284 157 284 157 252 c 2,22,-1
 157 114 l 2,23,24
 157 95 157 95 155 76 c 128,-1,25
 153 57 153 57 146 42 c 128,-1,26
 139 27 139 27 125 17.5 c 128,-1,27
 111 8 111 8 88 8 c 0,28,29
 43 8 43 8 26 30.5 c 128,-1,30
 9 53 9 53 9 93 c 2,31,-1
 9 362 l 1,32,-1
 39 362 l 1,33,-1
 39 93 l 2,34,35
 39 63 39 63 49 50.5 c 128,-1,36
 59 38 59 38 88 38 c 0,37,38
 111 38 111 38 117.5 51 c 128,-1,39
 124 64 124 64 126 84 c 0,40,41
 127 92 127 92 127 99 c 128,-1,42
 127 106 127 106 127 114 c 2,43,-1
 127 252 l 2,44,45
 127 299 127 299 150 330.5 c 128,-1,46
 173 362 173 362 222 362 c 0,47,48
 249 362 249 362 267 353.5 c 128,-1,49
 285 345 285 345 295.5 330 c 128,-1,50
 306 315 306 315 310 295 c 128,-1,51
 314 275 314 275 314 252 c 2,52,-1
 314 82 l 2,53,54
 314 45 314 45 293.5 26.5 c 128,-1,55
 273 8 273 8 238 8 c 0,56,57
 229 8 229 8 220.5 10 c 128,-1,58
 212 12 212 12 206 19 c 0,59,60
 194 31 194 31 196 47 c 0,61,62
 196 68 196 68 209.5 87 c 128,-1,63
 223 106 223 106 239 120 c 0,64,65
 250 126 250 126 257 132 c 0,66,67
 262 134 262 134 267 137 c 128,-1,68
 272 140 272 140 277 142 c 2,69,-1
 291 148 l 1,70,-1
 303 120 l 1,71,-1
 289 114 l 1,72,-1
 289 114 l 1,0,1
EndSplineSet
Validated: 37
EndChar
StartChar: uniE435
Encoding: 92839 92839 59
Width: 348
Flags: W
LayerCount: 2
Fore
SplineSet
112 289 m 1,0,1
 106 277 106 277 103 265 c 0,2,3
 99 251 99 251 98.5 239.5 c 128,-1,4
 98 228 98 228 100 218 c 0,5,6
 101 210 101 210 104 207 c 0,7,8
 105 206 105 206 107 206 c 0,9,10
 112 206 112 206 113 211 c 128,-1,11
 114 216 114 216 115 219 c 0,12,13
 120 240 120 240 117 266 c 0,14,15
 116 271 116 271 115 276.5 c 128,-1,16
 114 282 114 282 112 289 c 1,17,-1
 112 289 l 1,0,1
214 272 m 1,18,19
 210 260 210 260 208 249 c 128,-1,20
 206 238 206 238 205 231 c 0,21,22
 205 226 205 226 206.5 216 c 128,-1,23
 208 206 208 206 214 206 c 1,24,-1
 215 207 l 2,25,26
 217 207 217 207 217 209 c 0,27,28
 219 213 219 213 220 218 c 128,-1,29
 221 223 221 223 221 231 c 0,30,31
 221 238 221 238 219.5 249 c 128,-1,32
 218 260 218 260 214 272 c 1,33,-1
 214 272 l 1,18,19
286 269 m 1,34,35
 286 280 286 280 285.5 291 c 128,-1,36
 285 302 285 302 281 313 c 0,37,38
 278 322 278 322 270 327 c 128,-1,39
 262 332 262 332 253 332 c 0,40,41
 242 332 242 332 231 314 c 1,42,43
 242 294 242 294 246.5 271.5 c 128,-1,44
 251 249 251 249 251 231 c 256,45,46
 251 213 251 213 243.5 194.5 c 128,-1,47
 236 176 236 176 214 176 c 0,48,49
 191 176 191 176 182 196 c 0,50,51
 174 211 174 211 176 231 c 0,52,53
 176 246 176 246 181 269 c 128,-1,54
 186 292 186 292 197 313 c 1,55,56
 192 321 192 321 185.5 326.5 c 128,-1,57
 179 332 179 332 171 332 c 0,58,59
 160 332 160 332 151 328 c 128,-1,60
 142 324 142 324 134 318 c 1,61,62
 143 294 143 294 146 271 c 0,63,64
 151 238 151 238 145 211 c 0,65,66
 140 197 140 197 131.5 186.5 c 128,-1,67
 123 176 123 176 107 176 c 0,68,69
 90 176 90 176 82 187 c 128,-1,70
 74 198 74 198 71 212 c 0,71,72
 65 238 65 238 75 272 c 0,73,74
 79 285 79 285 84 297 c 128,-1,75
 89 309 89 309 97 320 c 1,76,77
 87 332 87 332 77 332 c 0,78,79
 63 332 63 332 54.5 324 c 128,-1,80
 46 316 46 316 41 305 c 2,81,-1
 35 291 l 1,82,-1
 7 303 l 1,83,-1
 13 317 l 2,84,85
 21 337 21 337 38 349.5 c 128,-1,86
 55 362 55 362 77 362 c 0,87,88
 102 362 102 362 118 343 c 1,89,90
 140 362 140 362 171 362 c 0,91,92
 196 362 196 362 214 341 c 1,93,94
 222 350 222 350 232 356 c 128,-1,95
 242 362 242 362 253 362 c 0,96,97
 274 362 274 362 286 353.5 c 128,-1,98
 298 345 298 345 305 331.5 c 128,-1,99
 312 318 312 318 314 301.5 c 128,-1,100
 316 285 316 285 316 269 c 2,101,-1
 316 8 l 1,102,-1
 286 8 l 1,103,-1
 286 269 l 1,104,-1
 286 269 l 1,34,35
EndSplineSet
Validated: 37
EndChar
StartChar: uniE436
Encoding: 92840 92840 60
Width: 332
Flags: W
LayerCount: 2
Fore
SplineSet
229 23 m 2,0,1
 229 11 229 11 221.5 7.5 c 128,-1,2
 214 4 214 4 204 11 c 2,3,-1
 9 171 l 2,4,5
 -1 180 -1 180 2 189 c 128,-1,6
 5 198 5 198 19 198 c 2,7,-1
 231 197 l 1,8,-1
 287 197 l 2,9,10
 295 197 295 197 299.5 191.5 c 128,-1,11
 304 186 304 186 302 178 c 2,12,-1
 292 139 l 1,13,-1
 263 146 l 1,14,-1
 268 167 l 1,15,-1
 201 167 l 1,16,-1
 61 168 l 1,17,-1
 199 54 l 1,18,-1
 203 341 l 1,19,-1
 203 356 l 1,20,-1
 233 356 l 1,21,-1
 233 341 l 1,22,-1
 229 23 l 2,0,1
46 341 m 1,23,24
 46 290 46 290 73.5 273 c 128,-1,25
 101 256 101 256 145 256 c 0,26,27
 153 256 153 256 162.5 257.5 c 128,-1,28
 172 259 172 259 181 262.5 c 128,-1,29
 190 266 190 266 196 272.5 c 128,-1,30
 202 279 202 279 202 289 c 2,31,-1
 203 304 l 1,32,-1
 233 302 l 1,33,-1
 232 287 l 2,34,35
 231 269 231 269 222.5 257.5 c 128,-1,36
 214 246 214 246 202 239 c 128,-1,37
 190 232 190 232 175 229 c 128,-1,38
 160 226 160 226 145 226 c 0,39,40
 83 226 83 226 49.5 252.5 c 128,-1,41
 16 279 16 279 16 341 c 2,42,-1
 16 356 l 1,43,-1
 46 356 l 1,44,-1
 46 341 l 1,45,-1
 46 341 l 1,23,24
EndSplineSet
Validated: 37
EndChar
StartChar: uniE437
Encoding: 92841 92841 61
Width: 292
Flags: W
LayerCount: 2
Fore
SplineSet
202 288 m 1,0,-1
 202 332 l 1,1,-1
 11 332 l 1,2,-1
 11 362 l 1,3,-1
 217 362 l 2,4,5
 223 362 223 362 227.5 357.5 c 128,-1,6
 232 353 232 353 232 347 c 2,7,-1
 232 297 l 1,8,-1
 259 306 l 1,9,-1
 268 277 l 1,10,-1
 232 265 l 1,11,-1
 232 23 l 2,12,13
 232 6 232 6 218 6 c 0,14,15
 212 6 212 6 206 12 c 2,16,-1
 15 204 l 2,17,18
 8 212 8 212 10 219 c 128,-1,19
 12 226 12 226 21 229 c 2,20,-1
 202 288 l 1,0,-1
202 59 m 1,21,-1
 202 256 l 1,22,-1
 54 208 l 1,23,-1
 202 59 l 1,21,-1
EndSplineSet
Validated: 1
EndChar
StartChar: uniE438
Encoding: 92842 92842 62
Width: 268
Flags: W
LayerCount: 2
Fore
SplineSet
202 301 m 1,0,-1
 202 362 l 1,1,-1
 232 362 l 1,2,-1
 232 23 l 2,3,4
 232 6 232 6 219 6 c 0,5,6
 212 6 212 6 206 13 c 2,7,-1
 15 214 l 2,8,9
 8 221 8 221 10 228 c 128,-1,10
 12 235 12 235 21 238 c 2,11,-1
 202 301 l 1,0,-1
202 61 m 1,12,-1
 202 270 l 1,13,-1
 53 217 l 1,14,-1
 202 61 l 1,12,-1
EndSplineSet
Validated: 1
EndChar
StartChar: uniE439
Encoding: 92843 92843 63
Width: 300
Flags: W
LayerCount: 2
Fore
SplineSet
267 362 m 1,0,-1
 267 332 l 1,1,-1
 235 332 l 2,2,3
 226 332 226 332 210 329 c 128,-1,4
 194 326 194 326 178 320 c 128,-1,5
 162 314 162 314 150 305 c 128,-1,6
 138 296 138 296 138 284 c 0,7,8
 138 273 138 273 143.5 263 c 128,-1,9
 149 253 149 253 157.5 244 c 128,-1,10
 166 235 166 235 176 227.5 c 128,-1,11
 186 220 186 220 195 215 c 0,12,13
 222 198 222 198 244 171.5 c 128,-1,14
 266 145 266 145 266 111 c 0,15,16
 266 83 266 83 250.5 63.5 c 128,-1,17
 235 44 235 44 212 31.5 c 128,-1,18
 189 19 189 19 162 13.5 c 128,-1,19
 135 8 135 8 112 8 c 0,20,21
 90 8 90 8 69.5 19.5 c 128,-1,22
 49 31 49 31 49 57 c 0,23,24
 49 93 49 93 70.5 106 c 128,-1,25
 92 119 92 119 124 119 c 0,26,27
 130 119 130 119 136 119 c 128,-1,28
 142 119 142 119 147 118 c 0,29,30
 185 111 185 111 231 91 c 1,31,32
 236 101 236 101 236 111 c 0,33,34
 236 137 236 137 218 156.5 c 128,-1,35
 200 176 200 176 179 189 c 0,36,37
 167 196 167 196 154.5 206 c 128,-1,38
 142 216 142 216 131.5 228 c 128,-1,39
 121 240 121 240 114.5 254.5 c 128,-1,40
 108 269 108 269 108 284 c 0,41,42
 108 303 108 303 115.5 313 c 128,-1,43
 123 323 123 323 138 332 c 1,44,-1
 10 332 l 1,45,-1
 10 362 l 1,46,-1
 267 362 l 1,0,-1
120 38 m 1,47,48
 144 38 144 38 167.5 45.5 c 128,-1,49
 191 53 191 53 210 67 c 1,50,51
 187 76 187 76 164 83 c 128,-1,52
 141 90 141 90 115 90 c 0,53,54
 98 88 98 88 88.5 82.5 c 128,-1,55
 79 77 79 77 79 57 c 0,56,57
 79 51 79 51 83.5 47 c 128,-1,58
 88 43 88 43 94.5 41 c 128,-1,59
 101 39 101 39 108 38.5 c 128,-1,60
 115 38 115 38 120 38 c 1,61,-1
 120 38 l 1,47,48
EndSplineSet
Validated: 5
EndChar
StartChar: uniE43A
Encoding: 92844 92844 64
Width: 212
Flags: W
LayerCount: 2
Fore
SplineSet
41 362 m 1,0,-1
 41 248 l 1,1,2
 43 251 43 251 46 254.5 c 128,-1,3
 49 258 49 258 51 262 c 0,4,5
 56 270 56 270 64 282.5 c 128,-1,6
 72 295 72 295 82.5 307 c 128,-1,7
 93 319 93 319 104 328 c 128,-1,8
 115 337 115 337 125 337 c 0,9,10
 136 337 136 337 143.5 327.5 c 128,-1,11
 151 318 151 318 156 305.5 c 128,-1,12
 161 293 161 293 164 279 c 128,-1,13
 167 265 167 265 168 256 c 0,14,15
 170 248 170 248 171 240 c 128,-1,16
 172 232 172 232 175 224 c 2,17,-1
 180 210 l 1,18,-1
 151 201 l 1,19,-1
 147 216 l 2,20,21
 145 224 145 224 142.5 233 c 128,-1,22
 140 242 140 242 138 252 c 0,23,24
 136 266 136 266 133 280 c 128,-1,25
 130 294 130 294 124 306 c 1,26,27
 124 306 124 306 118 302 c 0,28,29
 113 299 113 299 108.5 292.5 c 128,-1,30
 104 286 104 286 99 278 c 256,31,32
 94 270 94 270 88 262 c 128,-1,33
 82 254 82 254 76 245 c 0,34,35
 69 235 69 235 62.5 226 c 128,-1,36
 56 217 56 217 48 209 c 2,37,-1
 41 201 l 1,38,-1
 41 8 l 1,39,-1
 11 8 l 1,40,-1
 11 362 l 1,41,-1
 41 362 l 1,0,-1
EndSplineSet
Validated: 1
EndChar
StartChar: uniE43B
Encoding: 92845 92845 65
Width: 312
Flags: W
LayerCount: 2
Fore
SplineSet
19 128 m 1,0,1
 21 140 21 140 26.5 150 c 128,-1,2
 32 160 32 160 40 168 c 1,3,4
 18 198 18 198 18 238 c 0,5,6
 18 261 18 261 30 278.5 c 128,-1,7
 42 296 42 296 60.5 308 c 128,-1,8
 79 320 79 320 101 326 c 128,-1,9
 123 332 123 332 143 332 c 0,10,11
 158 332 158 332 176 328 c 128,-1,12
 194 324 194 324 211.5 316.5 c 128,-1,13
 229 309 229 309 243 298 c 128,-1,14
 257 287 257 287 264 272 c 2,15,-1
 271 258 l 1,16,-1
 244 245 l 1,17,-1
 238 258 l 2,18,19
 234 268 234 268 222.5 276 c 128,-1,20
 211 284 211 284 197 290 c 128,-1,21
 183 296 183 296 168.5 299 c 128,-1,22
 154 302 154 302 143 302 c 0,23,24
 130 302 130 302 113.5 298 c 128,-1,25
 97 294 97 294 82.5 286 c 128,-1,26
 68 278 68 278 58 266 c 128,-1,27
 48 254 48 254 48 238 c 0,28,29
 48 208 48 208 62 186 c 1,30,31
 83 199 83 199 106.5 204 c 128,-1,32
 130 209 130 209 154 209 c 0,33,34
 166 209 166 209 178.5 207 c 128,-1,35
 191 205 191 205 201.5 200 c 128,-1,36
 212 195 212 195 218.5 185.5 c 128,-1,37
 225 176 225 176 225 161 c 256,38,39
 225 146 225 146 218 136 c 128,-1,40
 211 126 211 126 200.5 120.5 c 128,-1,41
 190 115 190 115 176.5 113 c 128,-1,42
 163 111 163 111 151 111 c 0,43,44
 125 111 125 111 101.5 120 c 128,-1,45
 78 129 78 129 60 145 c 1,46,47
 51 134 51 134 48 122 c 0,48,49
 46 114 46 114 46.5 107.5 c 128,-1,50
 47 101 47 101 49 93 c 0,51,52
 52 76 52 76 65 63.5 c 128,-1,53
 78 51 78 51 94.5 42.5 c 128,-1,54
 111 34 111 34 130 30 c 128,-1,55
 149 26 149 26 164 26 c 0,56,57
 189 26 189 26 214 37 c 128,-1,58
 239 48 239 48 256 65 c 2,59,-1
 266 75 l 1,60,-1
 287 54 l 1,61,-1
 276 43 l 2,62,63
 252 19 252 19 220 6 c 0,64,65
 206 1 206 1 192 -1.5 c 128,-1,66
 178 -4 178 -4 164 -4 c 0,67,68
 142 -4 142 -4 119 1.5 c 128,-1,69
 96 7 96 7 76 18 c 128,-1,70
 56 29 56 29 41 46 c 128,-1,71
 26 63 26 63 20 86 c 0,72,73
 14 106 14 106 19 128 c 1,74,-1
 19 128 l 1,0,1
152 140 m 1,75,76
 157 140 157 140 164.5 141 c 128,-1,77
 172 142 172 142 178.5 144 c 128,-1,78
 185 146 185 146 190 150 c 128,-1,79
 195 154 195 154 195 161 c 256,80,81
 195 168 195 168 189 171.5 c 128,-1,82
 183 175 183 175 175.5 177 c 128,-1,83
 168 179 168 179 160 179.5 c 128,-1,84
 152 180 152 180 147 180 c 0,85,86
 133 179 133 179 116 175 c 128,-1,87
 99 171 99 171 84 163 c 1,88,89
 112 143 112 143 152 140 c 1,90,-1
 152 140 l 1,75,76
EndSplineSet
Validated: 37
EndChar
StartChar: uniE43C
Encoding: 92846 92846 66
Width: 264
Flags: W
LayerCount: 2
Fore
SplineSet
46 101 m 2,0,1
 46 75 46 75 58 56.5 c 128,-1,2
 70 38 70 38 98 38 c 0,3,4
 121 38 121 38 139.5 48 c 128,-1,5
 158 58 158 58 171 74.5 c 128,-1,6
 184 91 184 91 190.5 111.5 c 128,-1,7
 197 132 197 132 197 153 c 0,8,9
 197 165 197 165 192 178 c 1,10,-1
 187 177 l 1,11,-1
 181 177 l 2,12,13
 166 177 166 177 151 183.5 c 128,-1,14
 136 190 136 190 136 208 c 0,15,16
 136 220 136 220 145 226 c 128,-1,17
 154 232 154 232 165 232 c 0,18,19
 180 232 180 232 191.5 224.5 c 128,-1,20
 203 217 203 217 211 205.5 c 128,-1,21
 219 194 219 194 223 180 c 128,-1,22
 227 166 227 166 227 153 c 0,23,24
 227 125 227 125 217.5 99 c 128,-1,25
 208 73 208 73 191 53 c 128,-1,26
 174 33 174 33 150.5 20.5 c 128,-1,27
 127 8 127 8 98 8 c 0,28,29
 57 8 57 8 36.5 36 c 128,-1,30
 16 64 16 64 16 101 c 2,31,-1
 16 362 l 1,32,-1
 46 362 l 1,33,-1
 46 101 l 2,0,1
EndSplineSet
Validated: 1
EndChar
StartChar: uniE43D
Encoding: 92847 92847 67
Width: 276
Flags: W
LayerCount: 2
Fore
SplineSet
197 160 m 1,0,-1
 197 230 l 1,1,2
 177 207 177 207 156 200 c 128,-1,3
 135 193 135 193 104 193 c 0,4,5
 69 193 69 193 44 208.5 c 128,-1,6
 19 224 19 224 12 261 c 0,7,8
 8 284 8 284 14 311 c 0,9,10
 20 335 20 335 24 347 c 2,11,-1
 29 361 l 1,12,-1
 57 351 l 1,13,-1
 52 337 l 2,14,15
 50 332 50 332 48 323.5 c 128,-1,16
 46 315 46 315 43 304 c 0,17,18
 38 287 38 287 41 265 c 0,19,20
 45 239 45 239 63 231 c 128,-1,21
 81 223 81 223 104 223 c 0,22,23
 136 223 136 223 154 233 c 128,-1,24
 172 243 172 243 182 260 c 128,-1,25
 192 277 192 277 194.5 299.5 c 128,-1,26
 197 322 197 322 197 347 c 0,27,28
 197 355 197 355 202 359 c 128,-1,29
 207 363 207 363 212 363 c 0,30,31
 218 363 218 363 222.5 359 c 128,-1,32
 227 355 227 355 227 347 c 2,33,-1
 227 23 l 2,34,35
 227 6 227 6 214 6 c 0,36,37
 212 6 212 6 204 10 c 2,38,-1
 18 132 l 2,39,40
 6 140 6 140 9 150 c 128,-1,41
 12 160 12 160 26 160 c 2,42,-1
 197 160 l 1,0,-1
197 130 m 1,43,-1
 76 130 l 1,44,-1
 197 51 l 1,45,-1
 197 130 l 1,43,-1
EndSplineSet
Validated: 33
EndChar
StartChar: uniE43E
Encoding: 92848 92848 68
Width: 256
Flags: W
LayerCount: 2
Fore
SplineSet
151 231 m 1,0,-1
 150 271 l 1,1,2
 145 269 145 269 141.5 268.5 c 128,-1,3
 138 268 138 268 134 266 c 2,4,-1
 120 261 l 1,5,-1
 111 290 l 1,6,-1
 126 294 l 2,7,8
 133 296 133 296 139 298 c 128,-1,9
 145 300 145 300 150 302 c 1,10,-1
 150 312 l 2,11,12
 150 332 150 332 159 347 c 128,-1,13
 168 362 168 362 189 362 c 0,14,15
 204 362 204 362 215 351 c 0,16,17
 228 338 228 338 221 319 c 0,18,19
 217 308 217 308 205.5 299 c 128,-1,20
 194 290 194 290 180 283 c 1,21,-1
 182 23 l 2,22,23
 182 6 182 6 169 6 c 0,24,25
 162 6 162 6 156 12 c 2,26,-1
 18 151 l 2,27,28
 12 158 12 158 13.5 165 c 128,-1,29
 15 172 15 172 23 176 c 2,30,-1
 151 231 l 1,0,-1
151 198 m 1,31,-1
 55 157 l 1,32,-1
 152 60 l 1,33,-1
 151 198 l 1,31,-1
180 318 m 1,34,35
 192 326 192 326 194 330 c 1,36,37
 190 332 190 332 189 332 c 0,38,39
 186 332 186 332 186 331 c 0,40,41
 184 330 184 330 182 325 c 0,42,43
 181 323 181 323 181 321.5 c 128,-1,44
 181 320 181 320 180 318 c 1,45,-1
 180 318 l 1,34,35
EndSplineSet
Validated: 37
EndChar
StartChar: uniE43F
Encoding: 92849 92849 69
Width: 328
Flags: W
LayerCount: 2
Fore
SplineSet
75 107 m 2,0,1
 64 97 64 97 57.5 83.5 c 128,-1,2
 51 70 51 70 51 56 c 0,3,4
 52 50 52 50 54.5 44 c 128,-1,5
 57 38 57 38 65 38 c 0,6,7
 74 38 74 38 80.5 42.5 c 128,-1,8
 87 47 87 47 87 57 c 0,9,10
 88 60 88 60 88 63.5 c 128,-1,11
 88 67 88 67 88 69 c 2,12,-1
 88 119 l 1,13,-1
 75 107 l 2,0,1
244 299 m 2,14,15
 244 300 244 300 245 301.5 c 128,-1,16
 246 303 246 303 246 305 c 0,17,18
 248 310 248 310 246 317 c 0,19,20
 244 325 244 325 237.5 328.5 c 128,-1,21
 231 332 231 332 224 332 c 0,22,23
 213 332 213 332 210 321 c 128,-1,24
 207 310 207 310 205 302 c 2,25,-1
 205 264 l 1,26,-1
 244 299 l 2,14,15
27 328 m 1,27,28
 32 334 32 334 34.5 338.5 c 128,-1,29
 37 343 37 343 39 347 c 0,30,31
 45 357 45 357 54.5 359.5 c 128,-1,32
 64 362 64 362 73 362 c 0,33,34
 88 362 88 362 99 356.5 c 128,-1,35
 110 351 110 351 115 335 c 0,36,37
 117 329 117 329 118 323.5 c 128,-1,38
 119 318 119 318 118 312 c 2,39,-1
 118 186 l 1,40,-1
 175 237 l 1,41,-1
 175 304 l 2,42,43
 177 327 177 327 187.5 344.5 c 128,-1,44
 198 362 198 362 224 362 c 0,45,46
 241 362 241 362 255.5 352.5 c 128,-1,47
 270 343 270 343 274 325 c 0,48,49
 279 312 279 312 276 299 c 256,50,51
 273 286 273 286 264 277 c 2,52,-1
 205 224 l 1,53,-1
 205 73 l 2,54,55
 205 42 205 42 236 42 c 0,56,57
 244 42 244 42 249.5 49 c 128,-1,58
 255 56 255 56 258.5 65 c 128,-1,59
 262 74 262 74 263.5 84 c 128,-1,60
 265 94 265 94 266 100 c 2,61,-1
 268 115 l 1,62,-1
 297 112 l 1,63,-1
 296 98 l 2,64,65
 295 85 295 85 291.5 70 c 128,-1,66
 288 55 288 55 281 42 c 128,-1,67
 274 29 274 29 263 20.5 c 128,-1,68
 252 12 252 12 236 12 c 0,69,70
 207 12 207 12 191 28.5 c 128,-1,71
 175 45 175 45 175 73 c 2,72,-1
 175 197 l 1,73,-1
 118 146 l 1,74,-1
 118 69 l 2,75,76
 118 43 118 43 105.5 25.5 c 128,-1,77
 93 8 93 8 65 8 c 0,78,79
 44 8 44 8 33 21.5 c 128,-1,80
 22 35 22 35 22 55 c 0,81,82
 21 64 21 64 23 73.5 c 128,-1,83
 25 83 25 83 28 92 c 0,84,85
 32 103 32 103 39 112 c 128,-1,86
 46 121 46 121 55 129 c 2,87,-1
 88 159 l 1,88,-1
 88 315 l 2,89,90
 89 319 89 319 87 325 c 0,91,92
 85 329 85 329 83 331 c 2,93,-1
 81 331 l 2,94,95
 80 332 80 332 73 332 c 2,96,-1
 64 332 l 1,97,98
 62 328 62 328 58.5 323.5 c 128,-1,99
 55 319 55 319 51 312 c 2,100,-1
 43 299 l 1,101,-1
 18 316 l 1,102,-1
 27 328 l 1,103,-1
 27 328 l 1,27,28
EndSplineSet
Validated: 37
EndChar
StartChar: uniE440
Encoding: 92850 92850 70
Width: 324
Flags: W
LayerCount: 2
Fore
SplineSet
15 299 m 2,0,1
 34 324 34 324 58 343 c 128,-1,2
 82 362 82 362 115 362 c 0,3,4
 144 362 144 362 164 348 c 128,-1,5
 184 334 184 334 190 305 c 0,6,7
 194 283 194 283 185 258 c 0,8,9
 182 250 182 250 179 243 c 128,-1,10
 176 236 176 236 171 229 c 1,11,12
 186 215 186 215 196.5 197.5 c 128,-1,13
 207 180 207 180 212 161 c 1,14,15
 221 163 221 163 230.5 166 c 128,-1,16
 240 169 240 169 250 171 c 2,17,-1
 259 173 l 1,18,-1
 259 362 l 1,19,-1
 289 362 l 1,20,-1
 289 8 l 1,21,-1
 259 8 l 1,22,-1
 259 141 l 1,23,-1
 258 141 l 2,24,25
 247 138 247 138 237 135.5 c 128,-1,26
 227 133 227 133 217 131 c 1,27,28
 219 116 219 116 217.5 102 c 128,-1,29
 216 88 216 88 210 74 c 0,30,31
 194 38 194 38 166.5 23 c 128,-1,32
 139 8 139 8 101 8 c 0,33,34
 84 8 84 8 69 11 c 128,-1,35
 54 14 54 14 45 23 c 0,36,37
 26 39 26 39 30 63 c 0,38,39
 33 81 33 81 44.5 94 c 128,-1,40
 56 107 56 107 71 116 c 128,-1,41
 86 125 86 125 103 131 c 128,-1,42
 120 137 120 137 136 141 c 0,43,44
 148 144 148 144 160 147 c 128,-1,45
 172 150 172 150 183 153 c 1,46,47
 175 184 175 184 153 206 c 1,48,49
 136 187 136 187 113 176 c 128,-1,50
 90 165 90 165 63 165 c 0,51,52
 53 165 53 165 43 169 c 128,-1,53
 33 173 33 173 28 184 c 0,54,55
 21 201 21 201 31 219 c 0,56,57
 40 235 40 235 58 245 c 0,58,59
 75 258 75 258 101 258 c 0,60,61
 125 258 125 258 147 247 c 1,62,63
 152 254 152 254 157 268 c 0,64,65
 163 286 163 286 160 301 c 0,66,67
 156 319 156 319 144 325.5 c 128,-1,68
 132 332 132 332 115 332 c 0,69,70
 108 332 108 332 102 331 c 128,-1,71
 96 330 96 330 91 328 c 0,72,73
 74 320 74 320 62 307.5 c 128,-1,74
 50 295 50 295 39 281 c 2,75,-1
 30 269 l 1,76,-1
 6 287 l 1,77,-1
 15 299 l 2,0,1
64 45 m 1,78,79
 67 42 67 42 75.5 40 c 128,-1,80
 84 38 84 38 101 38 c 0,81,82
 130 38 130 38 150.5 48 c 128,-1,83
 171 58 171 58 183 85 c 0,84,85
 191 102 191 102 189 124 c 1,86,87
 176 121 176 121 155 116 c 128,-1,88
 134 111 134 111 113.5 102.5 c 128,-1,89
 93 94 93 94 78 83 c 128,-1,90
 63 72 63 72 60 58 c 0,91,92
 59 51 59 51 64 45 c 1,93,-1
 64 45 l 1,78,79
56 196 m 1,94,95
 57 196 57 196 58 196 c 0,96,97
 59 195 59 195 63 195 c 0,98,99
 82 195 82 195 98.5 202.5 c 128,-1,100
 115 210 115 210 128 222 c 1,101,102
 116 228 116 228 101 228 c 0,103,104
 93 228 93 228 86.5 226 c 128,-1,105
 80 224 80 224 74 221 c 0,106,107
 61 211 61 211 58 204 c 0,108,109
 56 198 56 198 56 198 c 2,110,111
 56 197 56 197 56 196 c 1,112,-1
 56 196 l 1,94,95
EndSplineSet
Validated: 37
EndChar
StartChar: uniE441
Encoding: 92851 92851 71
Width: 224
Flags: W
LayerCount: 2
Fore
SplineSet
17 164 m 1,0,1
 16 200 16 200 17 236 c 0,2,3
 17 253 17 253 17 269.5 c 128,-1,4
 17 286 17 286 18 302 c 2,5,-1
 18 362 l 1,6,-1
 48 362 l 1,7,-1
 48 347 l 2,8,9
 48 319 48 319 48 291 c 128,-1,10
 48 263 48 263 46 235 c 2,11,-1
 46 165 l 2,12,13
 46 158 46 158 46.5 151.5 c 128,-1,14
 47 145 47 145 47 139 c 1,15,16
 72 164 72 164 112 164 c 0,17,18
 127 164 127 164 141 158 c 128,-1,19
 155 152 155 152 166.5 142 c 128,-1,20
 178 132 178 132 185 118.5 c 128,-1,21
 192 105 192 105 192 90 c 0,22,23
 192 49 192 49 169.5 28.5 c 128,-1,24
 147 8 147 8 108 8 c 0,25,26
 73 8 73 8 50.5 24 c 128,-1,27
 28 40 28 40 21 75 c 0,28,29
 19 83 19 83 19 89.5 c 128,-1,30
 19 96 19 96 18 103 c 0,31,32
 16 116 16 116 16.5 131 c 128,-1,33
 17 146 17 146 17 164 c 1,34,-1
 17 164 l 1,0,1
50 89 m 1,35,36
 53 63 53 63 65 50.5 c 128,-1,37
 77 38 77 38 108 38 c 0,38,39
 125 38 125 38 143 46 c 128,-1,40
 161 54 161 54 161 74 c 0,41,42
 162 79 162 79 162 83 c 128,-1,43
 162 87 162 87 162 90 c 0,44,45
 162 110 162 110 146 122 c 128,-1,46
 130 134 130 134 112 134 c 0,47,48
 89 134 89 134 75.5 126 c 128,-1,49
 62 118 62 118 54 98 c 2,50,-1
 50 89 l 1,51,-1
 50 89 l 1,35,36
EndSplineSet
Validated: 37
EndChar
StartChar: uniE442
Encoding: 92852 92852 72
Width: 268
Flags: W
LayerCount: 2
Fore
SplineSet
14 97 m 1,0,1
 16 100 16 100 18.5 103 c 128,-1,2
 21 106 21 106 25 111 c 0,3,4
 32 119 32 119 49 134 c 128,-1,5
 66 149 66 149 91 172 c 0,6,7
 98 178 98 178 105 184.5 c 128,-1,8
 112 191 112 191 119 199 c 1,9,10
 106 206 106 206 92 215 c 128,-1,11
 78 224 78 224 66.5 235 c 128,-1,12
 55 246 55 246 48 259.5 c 128,-1,13
 41 273 41 273 41 289 c 0,14,15
 41 318 41 318 66 334 c 0,16,17
 75 340 75 340 84.5 345.5 c 128,-1,18
 94 351 94 351 105 356 c 2,19,-1
 119 363 l 1,20,-1
 132 336 l 1,21,-1
 119 330 l 2,22,23
 109 325 109 325 100 319.5 c 128,-1,24
 91 314 91 314 82 309 c 0,25,26
 71 302 71 302 71 289 c 0,27,28
 71 277 71 277 78.5 267 c 128,-1,29
 86 257 86 257 96.5 248.5 c 128,-1,30
 107 240 107 240 119 233.5 c 128,-1,31
 131 227 131 227 140 222 c 1,32,33
 147 230 147 230 154 239.5 c 128,-1,34
 161 249 161 249 168 259 c 0,35,36
 173 265 173 265 180 265 c 0,37,38
 186 265 186 265 190 261 c 2,39,-1
 236 220 l 1,40,-1
 216 198 l 1,41,-1
 182 228 l 1,42,43
 178 223 178 223 174.5 218 c 128,-1,44
 171 213 171 213 167 208 c 1,45,46
 196 190 196 190 216.5 163.5 c 128,-1,47
 237 137 237 137 237 99 c 0,48,49
 237 73 237 73 222 55 c 128,-1,50
 207 37 207 37 185 26.5 c 128,-1,51
 163 16 163 16 137 11.5 c 128,-1,52
 111 7 111 7 90 7 c 0,53,54
 58 7 58 7 33 27 c 128,-1,55
 8 47 8 47 8 82 c 0,56,57
 8 84 8 84 9 88 c 128,-1,58
 10 92 10 92 14 97 c 1,59,-1
 14 97 l 1,0,1
90 37 m 1,60,61
 103 37 103 37 123 40 c 128,-1,62
 143 43 143 43 161.5 50.5 c 128,-1,63
 180 58 180 58 193.5 69.5 c 128,-1,64
 207 81 207 81 207 99 c 0,65,66
 207 129 207 129 188.5 149.5 c 128,-1,67
 170 170 170 170 147 184 c 1,68,69
 138 175 138 175 129 166.5 c 128,-1,70
 120 158 120 158 111 150 c 0,71,72
 84 127 84 127 69 112.5 c 128,-1,73
 54 98 54 98 47 91 c 256,74,75
 40 84 40 84 38 81 c 0,76,77
 38 59 38 59 54 48 c 128,-1,78
 70 37 70 37 90 37 c 1,79,-1
 90 37 l 1,60,61
EndSplineSet
Validated: 5
EndChar
StartChar: uniE443
Encoding: 92853 92853 73
Width: 272
Flags: W
LayerCount: 2
Fore
SplineSet
59 340 m 1,0,1
 66 344 66 344 73 347.5 c 128,-1,2
 80 351 80 351 88 355 c 2,3,-1
 102 362 l 1,4,-1
 115 335 l 1,5,-1
 102 329 l 2,6,7
 87 322 87 322 68.5 311.5 c 128,-1,8
 50 301 50 301 42 285 c 0,9,10
 38 277 38 277 38 263 c 0,11,12
 38 251 38 251 48 243 c 1,13,14
 54 266 54 266 69 281.5 c 128,-1,15
 84 297 84 297 109 297 c 0,16,17
 131 297 131 297 147 282 c 128,-1,18
 163 267 163 267 163 244 c 0,19,20
 163 219 163 219 142 209 c 128,-1,21
 121 199 121 199 100 199 c 0,22,23
 96 199 96 199 92 199 c 128,-1,24
 88 199 88 199 84 200 c 0,25,26
 82 200 82 200 79 200.5 c 128,-1,27
 76 201 76 201 74 201 c 1,28,-1
 74 166 l 1,29,30
 102 184 102 184 151 184 c 0,31,32
 190 184 190 184 213.5 160.5 c 128,-1,33
 237 137 237 137 237 99 c 2,34,-1
 237 8 l 1,35,-1
 207 8 l 1,36,-1
 207 99 l 2,37,38
 207 125 207 125 191.5 139.5 c 128,-1,39
 176 154 176 154 151 154 c 0,40,41
 123 154 123 154 106 148.5 c 128,-1,42
 89 143 89 143 79 133 c 2,43,-1
 74 128 l 1,44,-1
 74 8 l 1,45,-1
 44 8 l 1,46,-1
 44 209 l 1,47,-1
 44 211 l 1,48,49
 29 218 29 218 18.5 230.5 c 128,-1,50
 8 243 8 243 8 263 c 0,51,52
 8 292 8 292 21.5 310 c 128,-1,53
 35 328 35 328 59 340 c 1,54,-1
 59 340 l 1,0,1
98 228 m 1,55,56
 101 228 101 228 107 228.5 c 128,-1,57
 113 229 113 229 119 231 c 128,-1,58
 125 233 125 233 129 236 c 128,-1,59
 133 239 133 239 133 244 c 0,60,61
 133 256 133 256 124.5 261.5 c 128,-1,62
 116 267 116 267 105 267 c 0,63,64
 92 267 92 267 85.5 255.5 c 128,-1,65
 79 244 79 244 76 231 c 1,66,67
 87 228 87 228 98 228 c 1,68,-1
 98 228 l 1,55,56
EndSplineSet
Validated: 5
EndChar
StartChar: uniE444
Encoding: 92854 92854 74
Width: 252
Flags: W
LayerCount: 2
Fore
SplineSet
41 362 m 1,0,-1
 41 247 l 1,1,2
 44 250 44 250 46.5 253.5 c 128,-1,3
 49 257 49 257 52 261 c 0,4,5
 75 290 75 290 103 309.5 c 128,-1,6
 131 329 131 329 169 329 c 0,7,8
 203 329 203 329 219 301 c 0,9,10
 233 278 233 278 231 249 c 0,11,12
 230 234 230 234 225.5 220 c 128,-1,13
 221 206 221 206 212.5 195 c 128,-1,14
 204 184 204 184 192 177 c 128,-1,15
 180 170 180 170 163 170 c 0,16,17
 147 170 147 170 135.5 179.5 c 128,-1,18
 124 189 124 189 121 204 c 0,19,20
 118 217 118 217 123 232 c 0,21,22
 131 254 131 254 146.5 270 c 128,-1,23
 162 286 162 286 182 297 c 1,24,25
 176 299 176 299 169 299 c 0,26,27
 138 299 138 299 116 283 c 128,-1,28
 94 267 94 267 76 243 c 0,29,30
 62 225 62 225 48 209 c 2,31,-1
 41 201 l 1,32,-1
 41 8 l 1,33,-1
 11 8 l 1,34,-1
 11 362 l 1,35,-1
 41 362 l 1,0,-1
151 211 m 1,36,37
 151 200 151 200 163 200 c 0,38,39
 173 200 173 200 179.5 205 c 128,-1,40
 186 210 186 210 190.5 217.5 c 128,-1,41
 195 225 195 225 197.5 234 c 128,-1,42
 200 243 200 243 201 251 c 0,43,44
 202 260 202 260 199 272 c 1,45,46
 183 264 183 264 170.5 252.5 c 128,-1,47
 158 241 158 241 151 224 c 0,48,49
 149 218 149 218 151 211 c 1,50,-1
 151 211 l 1,36,37
EndSplineSet
Validated: 33
EndChar
StartChar: uniE445
Encoding: 92855 92855 75
Width: 342
Flags: W
LayerCount: 2
Fore
SplineSet
230 88 m 1,0,1
 244 115 244 115 246 134 c 0,2,3
 247 146 247 146 244 153 c 0,4,5
 244 154 244 154 243.5 154 c 128,-1,6
 243 154 243 154 243 155 c 1,7,8
 241 155 241 155 239.5 155.5 c 128,-1,9
 238 156 238 156 235 156 c 0,10,11
 225 156 225 156 223 148.5 c 128,-1,12
 221 141 221 141 221 133 c 0,13,14
 221 111 221 111 230 88 c 1,15,-1
 230 88 l 1,0,1
15 273 m 1,16,17
 15 311 15 311 30 336.5 c 128,-1,18
 45 362 45 362 86 362 c 0,19,20
 118 362 118 362 139 345.5 c 128,-1,21
 160 329 160 329 163 297 c 2,22,-1
 167 97 l 1,23,-1
 167 79 l 2,24,25
 167 76 167 76 167.5 69.5 c 128,-1,26
 168 63 168 63 169.5 55.5 c 128,-1,27
 171 48 171 48 173.5 42.5 c 128,-1,28
 176 37 176 37 179 37 c 0,29,30
 187 37 187 37 195 43 c 128,-1,31
 203 49 203 49 211 59 c 1,32,33
 201 76 201 76 196 95.5 c 128,-1,34
 191 115 191 115 191 133 c 0,35,36
 191 154 191 154 201.5 170 c 128,-1,37
 212 186 212 186 235 186 c 0,38,39
 246 186 246 186 256 182 c 128,-1,40
 266 178 266 178 271 167 c 0,41,42
 278 152 278 152 276 131 c 0,43,44
 275 117 275 117 267 97 c 128,-1,45
 259 77 259 77 246 58 c 1,46,47
 250 53 250 53 258 45 c 128,-1,48
 266 37 266 37 272 37 c 0,49,50
 273 37 273 37 274 37.5 c 128,-1,51
 275 38 275 38 276 38 c 0,52,53
 278 38 278 38 280 43 c 128,-1,54
 282 48 282 48 282 61 c 2,55,-1
 282 76 l 1,56,-1
 312 76 l 1,57,-1
 312 61 l 2,58,59
 312 43 312 43 303 25 c 128,-1,60
 294 7 294 7 273 7 c 0,61,62
 261 7 261 7 248 15.5 c 128,-1,63
 235 24 235 24 228 34 c 1,64,65
 217 22 217 22 204.5 14.5 c 128,-1,66
 192 7 192 7 179 7 c 256,67,68
 166 7 166 7 158 14.5 c 128,-1,69
 150 22 150 22 145.5 33 c 128,-1,70
 141 44 141 44 139 56.5 c 128,-1,71
 137 69 137 69 137 79 c 2,72,-1
 137 97 l 1,73,-1
 133 295 l 2,74,75
 132 301 132 301 131 305 c 128,-1,76
 130 309 130 309 128 312 c 2,77,-1
 127 314 l 2,78,79
 122 325 122 325 109.5 328.5 c 128,-1,80
 97 332 97 332 86 332 c 0,81,82
 69 332 69 332 57.5 322 c 128,-1,83
 46 312 46 312 46 295 c 0,84,85
 45 289 45 289 45 283.5 c 128,-1,86
 45 278 45 278 45 273 c 2,87,-1
 45 8 l 1,88,-1
 15 8 l 1,89,-1
 15 273 l 1,90,-1
 15 273 l 1,16,17
EndSplineSet
Validated: 37
EndChar
StartChar: uniE446
Encoding: 92856 92856 76
Width: 332
Flags: W
LayerCount: 2
Fore
SplineSet
39 38 m 1,0,1
 42 39 42 39 44 41 c 0,2,3
 48 43 48 43 51 52 c 0,4,5
 53 57 53 57 53 62 c 128,-1,6
 53 67 53 67 54 72 c 2,7,-1
 54 95 l 1,8,9
 35 78 35 78 35 49 c 0,10,11
 37 41 37 41 39 38 c 1,12,-1
 39 38 l 1,0,1
171 218 m 1,13,14
 185 232 185 232 195 252.5 c 128,-1,15
 205 273 205 273 209 293 c 0,16,17
 212 305 212 305 210 311 c 1,18,-1
 205 311 l 2,19,20
 195 311 195 311 188 304.5 c 128,-1,21
 181 298 181 298 177.5 288.5 c 128,-1,22
 174 279 174 279 172.5 268.5 c 128,-1,23
 171 258 171 258 171 250 c 2,24,-1
 171 218 l 1,25,-1
 171 218 l 1,13,14
236 86 m 1,26,27
 245 98 245 98 250.5 109.5 c 128,-1,28
 256 121 256 121 256 129 c 1,29,30
 237 129 237 129 234 110 c 0,31,32
 234 105 234 105 234.5 98.5 c 128,-1,33
 235 92 235 92 236 86 c 1,34,-1
 236 86 l 1,26,27
54 362 m 1,35,-1
 84 362 l 1,36,-1
 84 149 l 1,37,38
 109 162 109 162 134 179 c 0,39,40
 136 180 136 180 139 183 c 0,41,42
 139 188 139 188 139.5 193.5 c 128,-1,43
 140 199 140 199 140 204 c 0,44,45
 141 217 141 217 141 228 c 128,-1,46
 141 239 141 239 141 250 c 0,47,48
 141 265 141 265 144.5 281 c 128,-1,49
 148 297 148 297 155.5 310.5 c 128,-1,50
 163 324 163 324 175 332.5 c 128,-1,51
 187 341 187 341 205 341 c 0,52,53
 216 341 216 341 226 336 c 128,-1,54
 236 331 236 331 239 320 c 0,55,56
 244 305 244 305 239 285 c 0,57,58
 236 274 236 274 229 259 c 128,-1,59
 222 244 222 244 212.5 228 c 128,-1,60
 203 212 203 212 191.5 196.5 c 128,-1,61
 180 181 180 181 169 169 c 1,62,63
 169 152 169 152 168.5 134 c 128,-1,64
 168 116 168 116 167 99 c 0,65,66
 166 86 166 86 166 74.5 c 128,-1,67
 166 63 166 63 166 52 c 0,68,69
 166 47 166 47 171 43 c 0,70,71
 174 41 174 41 177 38 c 0,72,73
 184 38 184 38 193.5 43.5 c 128,-1,74
 203 49 203 49 212 58 c 1,75,76
 210 63 210 63 209 69 c 128,-1,77
 208 75 208 75 206 81 c 0,78,79
 202 96 202 96 205 114 c 0,80,81
 209 134 209 134 219 146 c 128,-1,82
 229 158 229 158 251 158 c 0,83,84
 261 158 261 158 271 154 c 128,-1,85
 281 150 281 150 283 139 c 0,86,87
 285 131 285 131 285 123 c 128,-1,88
 285 115 285 115 283 107 c 0,89,90
 280 96 280 96 271 81 c 128,-1,91
 262 66 262 66 249 52 c 0,92,93
 251 49 251 49 257 43 c 0,94,95
 258 42 258 42 265 40 c 128,-1,96
 272 38 272 38 289 38 c 2,97,-1
 304 38 l 1,98,-1
 304 8 l 1,99,-1
 289 8 l 2,100,101
 265 8 265 8 250.5 13.5 c 128,-1,102
 236 19 236 19 226 31 c 1,103,104
 214 20 214 20 201 14 c 128,-1,105
 188 8 188 8 177 8 c 0,106,107
 161 8 161 8 148.5 22.5 c 128,-1,108
 136 37 136 37 136 52 c 0,109,110
 136 100 136 100 139 146 c 1,111,112
 124 137 124 137 110 129.5 c 128,-1,113
 96 122 96 122 84 115 c 1,114,-1
 84 94 l 2,115,116
 84 88 84 88 84 82.5 c 128,-1,117
 84 77 84 77 83 70 c 0,118,119
 83 47 83 47 72.5 27.5 c 128,-1,120
 62 8 62 8 36 8 c 0,121,122
 22 8 22 8 15 20.5 c 128,-1,123
 8 33 8 33 6 45 c 0,124,125
 4 60 4 60 7 72 c 0,126,127
 12 94 12 94 24 108 c 128,-1,128
 36 122 36 122 54 133 c 1,129,-1
 54 362 l 1,35,-1
EndSplineSet
Validated: 37
EndChar
StartChar: uniE447
Encoding: 92857 92857 77
Width: 325
Flags: W
LayerCount: 2
Fore
SplineSet
134 119 m 1,0,1
 137 130 137 130 139.5 142.5 c 128,-1,2
 142 155 142 155 144 169 c 0,3,4
 151 212 151 212 152 244 c 128,-1,5
 153 276 153 276 150 298 c 0,6,7
 146 320 146 320 141 329 c 0,8,9
 140 331 140 331 139 331.5 c 128,-1,10
 138 332 138 332 138 333 c 1,11,12
 137 332 137 332 136 331.5 c 128,-1,13
 135 331 135 331 133 329 c 0,14,15
 130 326 130 326 127.5 319 c 128,-1,16
 125 312 125 312 122 301 c 0,17,18
 111 260 111 260 124 174 c 0,19,20
 126 158 126 158 128.5 144 c 128,-1,21
 131 130 131 130 134 119 c 1,22,-1
 134 119 l 1,0,1
231 66 m 1,23,24
 241 76 241 76 244 89 c 0,25,26
 244 95 244 95 241 105.5 c 128,-1,27
 238 116 238 116 230 116 c 0,28,29
 229 115 229 115 229 115 c 257,30,31
 229 115 229 115 227 111 c 0,32,33
 225 106 225 106 224 99 c 128,-1,34
 223 92 223 92 225 84 c 0,35,36
 227 75 227 75 231 66 c 1,37,-1
 231 66 l 1,23,24
42 111 m 1,38,39
 44 99 44 99 42 84 c 0,40,41
 42 73 42 73 43.5 61 c 128,-1,42
 45 49 45 49 51 41 c 0,43,44
 52 40 52 40 53.5 39 c 128,-1,45
 55 38 55 38 60 38 c 0,46,47
 74 38 74 38 90 50 c 128,-1,48
 106 62 106 62 114 73 c 1,49,50
 108 91 108 91 103.5 115 c 128,-1,51
 99 139 99 139 94 170 c 0,52,53
 81 259 81 259 93 308 c 0,54,55
 95 316 95 316 98.5 326 c 128,-1,56
 102 336 102 336 107 344 c 128,-1,57
 112 352 112 352 119.5 357.5 c 128,-1,58
 127 363 127 363 137 363 c 0,59,60
 148 363 148 363 155.5 357 c 128,-1,61
 163 351 163 351 168 342 c 128,-1,62
 173 333 173 333 175.5 322.5 c 128,-1,63
 178 312 178 312 179 303 c 0,64,65
 182 277 182 277 181.5 243 c 128,-1,66
 181 209 181 209 174 165 c 0,67,68
 165 107 165 107 147 71 c 1,69,70
 150 61 150 61 158 52 c 128,-1,71
 166 43 166 43 177 43 c 0,72,73
 193 43 193 43 206 49 c 1,74,75
 198 66 198 66 195 80 c 0,76,77
 193 91 193 91 194 101 c 128,-1,78
 195 111 195 111 198 121 c 0,79,80
 201 132 201 132 210 139 c 128,-1,81
 219 146 219 146 230 146 c 256,82,83
 241 146 241 146 249.5 140 c 128,-1,84
 258 134 258 134 263 126 c 0,85,86
 276 107 276 107 273 86 c 256,87,88
 270 65 270 65 253 47 c 1,89,90
 263 44 263 44 272.5 43.5 c 128,-1,91
 282 43 282 43 293 43 c 2,92,-1
 308 43 l 1,93,-1
 308 13 l 1,94,-1
 293 13 l 1,95,-1
 284 13 l 2,96,97
 267 13 267 13 252.5 15.5 c 128,-1,98
 238 18 238 18 227 26 c 1,99,100
 205 13 205 13 177 13 c 0,101,102
 161 13 161 13 148.5 21 c 128,-1,103
 136 29 136 29 127 43 c 1,104,105
 114 30 114 30 97 19 c 128,-1,106
 80 8 80 8 60 8 c 0,107,108
 38 8 38 8 28.5 20.5 c 128,-1,109
 19 33 19 33 15 53 c 0,110,111
 12 70 12 70 13 84 c 0,112,113
 13 92 13 92 13 98 c 128,-1,114
 13 104 13 104 12 109 c 2,115,-1
 12 362 l 1,116,-1
 42 362 l 1,117,-1
 42 111 l 1,118,-1
 42 111 l 1,38,39
EndSplineSet
Validated: 37
EndChar
StartChar: uniE448
Encoding: 92858 92858 78
Width: 324
Flags: W
LayerCount: 2
Fore
SplineSet
110 96 m 1,0,1
 114 109 114 109 116 120 c 128,-1,2
 118 131 118 131 119 138 c 0,3,4
 119 143 119 143 117.5 153 c 128,-1,5
 116 163 116 163 110 163 c 1,6,-1
 109 162 l 1,7,8
 109 162 109 162 107 160 c 0,9,10
 105 156 105 156 104 151 c 128,-1,11
 103 146 103 146 103 138 c 0,12,13
 103 131 103 131 104.5 120 c 128,-1,14
 106 109 106 109 110 96 c 1,15,-1
 110 96 l 1,0,1
212 81 m 1,16,17
 218 91 218 91 221 104 c 0,18,19
 225 118 225 118 225.5 129.5 c 128,-1,20
 226 141 226 141 224 151 c 0,21,22
 223 159 223 159 220 162 c 0,23,24
 219 163 219 163 217 163 c 2,25,-1
 215 163 l 1,26,27
 215 163 215 163 213 159 c 0,28,29
 207 150 207 150 206 137 c 0,30,31
 206 123 206 123 207 109 c 128,-1,32
 208 95 208 95 212 81 c 1,33,-1
 212 81 l 1,16,17
38 100 m 1,34,35
 38 89 38 89 38.5 78 c 128,-1,36
 39 67 39 67 43 56 c 256,37,38
 47 45 47 45 53.5 41.5 c 128,-1,39
 60 38 60 38 71 38 c 256,40,41
 82 38 82 38 93 56 c 1,42,43
 83 76 83 76 78 98.5 c 128,-1,44
 73 121 73 121 73 138 c 0,45,46
 73 156 73 156 80.5 174.5 c 128,-1,47
 88 193 88 193 110 193 c 0,48,49
 133 193 133 193 142 173 c 0,50,51
 150 158 150 158 148 138 c 0,52,53
 148 123 148 123 143 100 c 128,-1,54
 138 77 138 77 127 56 c 1,55,56
 138 38 138 38 153 38 c 0,57,58
 173 38 173 38 191 53 c 1,59,60
 185 64 185 64 182 76 c 128,-1,61
 179 88 179 88 178 99 c 256,62,63
 177 110 177 110 176 120 c 128,-1,64
 175 130 175 130 177 139 c 0,65,66
 180 157 180 157 187 175 c 128,-1,67
 194 193 194 193 217 193 c 0,68,69
 234 193 234 193 242 182 c 128,-1,70
 250 171 250 171 253 157 c 0,71,72
 259 131 259 131 249 97 c 0,73,74
 241 69 241 69 228 49 c 1,75,-1
 232 45 l 2,76,77
 239 38 239 38 247 38 c 2,78,-1
 285 38 l 1,79,-1
 285 8 l 1,80,-1
 247 8 l 2,81,82
 235 8 235 8 225.5 13.5 c 128,-1,83
 216 19 216 19 208 27 c 1,84,85
 184 8 184 8 153 8 c 0,86,87
 129 8 129 8 110 29 c 1,88,89
 92 8 92 8 71 8 c 0,90,91
 51 8 51 8 38.5 16.5 c 128,-1,92
 26 25 26 25 19.5 38 c 128,-1,93
 13 51 13 51 10.5 67.5 c 128,-1,94
 8 84 8 84 8 100 c 2,95,-1
 8 362 l 1,96,-1
 38 362 l 1,97,-1
 38 100 l 1,98,-1
 38 100 l 1,34,35
EndSplineSet
Validated: 37
EndChar
StartChar: uniE42B
Encoding: 92859 92859 79
Width: 264
Flags: W
LayerCount: 2
Fore
SplineSet
156 200 m 1,0,-1
 157 229 l 1,1,-1
 24 228 l 1,2,-1
 9 228 l 1,3,-1
 9 258 l 1,4,-1
 24 258 l 1,5,-1
 172 259 l 2,6,7
 178 259 178 259 182.5 254.5 c 128,-1,8
 187 250 187 250 187 244 c 2,9,-1
 186 208 l 1,10,-1
 231 220 l 1,11,-1
 238 191 l 1,12,-1
 224 188 l 1,13,-1
 186 177 l 1,14,-1
 183 24 l 2,15,16
 183 8 183 8 170 8 c 0,17,18
 163 8 163 8 158 12 c 2,19,-1
 8 135 l 2,20,21
 0 142 0 142 1.5 150.5 c 128,-1,22
 3 159 3 159 14 161 c 2,23,-1
 156 200 l 1,0,-1
36 326 m 1,24,-1
 48 317 l 1,25,-1
 50 317 l 2,26,27
 52 315 52 315 60.5 314 c 128,-1,28
 69 313 69 313 71 313 c 256,29,30
 73 313 73 313 75 313.5 c 128,-1,31
 77 314 77 314 79 314 c 1,32,-1
 69 324 l 2,33,34
 63 330 63 330 61.5 340 c 128,-1,35
 60 350 60 350 70 358 c 0,36,37
 78 364 78 364 85 367.5 c 128,-1,38
 92 371 92 371 102 371 c 0,39,40
 113 371 113 371 127 367.5 c 128,-1,41
 141 364 141 364 147 354 c 0,42,43
 151 348 151 348 151.5 343 c 128,-1,44
 152 338 152 338 151 335 c 0,45,46
 150 330 150 330 146 325.5 c 128,-1,47
 142 321 142 321 137 316 c 1,48,49
 145 313 145 313 151 313 c 0,50,51
 161 313 161 313 166 314 c 2,52,-1
 179 320 l 1,53,-1
 192 293 l 1,54,-1
 179 287 l 2,55,56
 173 284 173 284 168 284 c 0,57,58
 164 283 164 283 151 283 c 0,59,60
 132 283 132 283 108 296 c 1,61,62
 85 283 85 283 71 283 c 0,63,64
 60 283 60 283 50.5 285 c 128,-1,65
 41 287 41 287 32 293 c 2,66,-1
 19 301 l 1,67,-1
 36 326 l 1,24,-1
154 55 m 1,68,-1
 156 169 l 1,69,-1
 50 140 l 1,70,-1
 154 55 l 1,68,-1
117 339 m 1,71,72
 115 340 115 340 113 340 c 128,-1,73
 111 340 111 340 109 341 c 0,74,75
 103 341 103 341 99 340 c 0,76,77
 97 340 97 340 96 339 c 1,78,79
 99 336 99 336 107 330 c 1,80,81
 111 333 111 333 117 339 c 1,82,-1
 117 339 l 1,71,72
EndSplineSet
Validated: 37
EndChar
StartChar: uniE42C
Encoding: 92860 92860 80
Width: 324
Flags: W
LayerCount: 2
Fore
SplineSet
39 195 m 1,0,-1
 18 216 l 1,1,-1
 41 239 l 2,2,3
 49 246 49 246 56 247 c 0,4,5
 60 248 60 248 64 248 c 128,-1,6
 68 248 68 248 73 248 c 0,7,8
 84 248 84 248 96.5 244.5 c 128,-1,9
 109 241 109 241 114 229 c 256,10,11
 119 217 119 217 118 210 c 2,12,-1
 118 53 l 2,13,14
 118 29 118 29 102.5 18 c 128,-1,15
 87 7 87 7 65 7 c 0,16,17
 48 7 48 7 35 16.5 c 128,-1,18
 22 26 22 26 22 44 c 0,19,20
 21 59 21 59 30 73 c 0,21,22
 38 86 38 86 58 98 c 0,23,24
 66 103 66 103 77.5 109.5 c 128,-1,25
 89 116 89 116 104 125 c 0,26,27
 139 146 139 146 174.5 167 c 128,-1,28
 210 188 210 188 246 208 c 0,29,30
 247 210 247 210 247 210 c 1,31,32
 242 215 242 215 237 216.5 c 128,-1,33
 232 218 232 218 224 218 c 0,34,35
 217 218 217 218 213 216 c 0,36,37
 207 212 207 212 207 212 c 2,38,39
 205 206 205 206 205 204 c 2,40,-1
 205 55 l 2,41,42
 205 54 205 54 205.5 52 c 128,-1,43
 206 50 206 50 210 45 c 0,44,45
 211 44 211 44 216 42 c 128,-1,46
 221 40 221 40 236 40 c 256,47,48
 251 40 251 40 257.5 50.5 c 128,-1,49
 264 61 264 61 266 74 c 2,50,-1
 268 89 l 1,51,-1
 298 85 l 1,52,-1
 296 70 l 2,53,54
 293 45 293 45 277.5 27.5 c 128,-1,55
 262 10 262 10 236 10 c 0,56,57
 214 10 214 10 194.5 19.5 c 128,-1,58
 175 29 175 29 175 55 c 2,59,-1
 175 205 l 1,60,-1
 175 207 l 2,61,62
 177 219 177 219 182 227 c 2,63,-1
 183 229 l 1,64,65
 198 248 198 248 224 248 c 0,66,67
 238 248 238 248 252.5 243 c 128,-1,68
 267 238 267 238 273 224 c 0,69,70
 279 211 279 211 275 200 c 0,71,72
 273 195 273 195 270 190 c 128,-1,73
 267 185 267 185 262 182 c 0,74,75
 242 168 242 168 221.5 157.5 c 128,-1,76
 201 147 201 147 183 136 c 0,77,78
 156 119 156 119 128 103 c 128,-1,79
 100 87 100 87 72 72 c 0,80,81
 65 68 65 68 58 61 c 128,-1,82
 51 54 51 54 51 45 c 0,83,84
 53 40 53 40 56 38.5 c 128,-1,85
 59 37 59 37 65 37 c 0,86,87
 70 37 70 37 76 38 c 128,-1,88
 82 39 82 39 86 43 c 0,89,90
 87 45 87 45 87 46 c 0,91,92
 88 49 88 49 88 53 c 2,93,-1
 88 214 l 1,94,95
 88 213 88 213 86 217 c 0,96,97
 85 217 85 217 83 218 c 2,98,-1
 73 218 l 2,99,100
 64 218 64 218 61 217 c 2,101,-1
 39 195 l 1,0,-1
104 316 m 2,102,103
 101 320 101 320 97.5 323 c 128,-1,104
 94 326 94 326 91 328 c 0,105,106
 89 330 89 330 88 330 c 128,-1,107
 87 330 87 330 85 331 c 0,108,109
 80 326 80 326 74 323 c 2,110,-1
 60 316 l 1,111,-1
 47 343 l 1,112,-1
 60 349 l 2,113,114
 61 350 61 350 62 350.5 c 128,-1,115
 63 351 63 351 64 353 c 0,116,117
 66 357 66 357 74 359 c 128,-1,118
 82 361 82 361 87 361 c 0,119,120
 95 361 95 361 104 355.5 c 128,-1,121
 113 350 113 350 121 342 c 128,-1,122
 129 334 129 334 135 324.5 c 128,-1,123
 141 315 141 315 144 307 c 0,124,125
 146 299 146 299 142 291 c 0,126,127
 139 285 139 285 132.5 280.5 c 128,-1,128
 126 276 126 276 119 274 c 0,129,130
 115 271 115 271 108 271 c 0,131,132
 94 271 94 271 84.5 280.5 c 128,-1,133
 75 290 75 290 75 304 c 0,134,135
 76 306 76 306 76 307.5 c 128,-1,136
 76 309 76 309 77 311 c 0,137,138
 81 320 81 320 89 328.5 c 128,-1,139
 97 337 97 337 107 344.5 c 128,-1,140
 117 352 117 352 128 356.5 c 128,-1,141
 139 361 139 361 149 361 c 2,142,-1
 160 361 l 2,143,144
 173 361 173 361 186 353 c 0,145,146
 197 346 197 346 210.5 333 c 128,-1,147
 224 320 224 320 227 307 c 0,148,149
 228 305 228 305 228 300.5 c 128,-1,150
 228 296 228 296 225 291 c 0,151,152
 218 279 218 279 202 274 c 0,153,154
 198 271 198 271 191 271 c 0,155,156
 178 271 178 271 168 280.5 c 128,-1,157
 158 290 158 290 158 303 c 0,158,159
 158 305 158 305 160 311 c 0,160,161
 165 325 165 325 176.5 335.5 c 128,-1,162
 188 346 188 346 200 353 c 0,163,164
 208 357 208 357 211 359 c 256,165,166
 214 361 214 361 222 361 c 0,167,168
 234 361 234 361 242 353 c 2,169,-1
 256 338 l 1,170,-1
 235 317 l 1,171,-1
 221 331 l 1,172,173
 210 326 210 326 203 319 c 128,-1,174
 196 312 196 312 189 303 c 1,175,-1
 191 301 l 1,176,177
 195 303 195 303 195 303 c 2,178,179
 194 306 194 306 189.5 310.5 c 128,-1,180
 185 315 185 315 179.5 319.5 c 128,-1,181
 174 324 174 324 168.5 327.5 c 128,-1,182
 163 331 163 331 160 331 c 2,183,-1
 149 331 l 2,184,185
 138 331 138 331 124.5 321 c 128,-1,186
 111 311 111 311 106 302 c 1,187,188
 108 301 108 301 108 301 c 2,189,190
 112 303 112 303 113 304 c 2,191,-1
 104 316 l 2,102,103
EndSplineSet
Validated: 37
EndChar
StartChar: uniE42D
Encoding: 92861 92861 81
Width: 252
Flags: W
LayerCount: 2
Fore
SplineSet
161 321 m 1,0,1
 173 305 173 305 193 294 c 1,2,-1
 207 307 l 1,3,-1
 228 286 l 1,4,-1
 214 271 l 1,5,-1
 212 270 l 2,6,7
 205 264 205 264 194 264 c 0,8,9
 186 264 186 264 175 270 c 128,-1,10
 164 276 164 276 154 284.5 c 128,-1,11
 144 293 144 293 137 303 c 128,-1,12
 130 313 130 313 130 321 c 0,13,14
 130 334 130 334 140 343.5 c 128,-1,15
 150 353 150 353 163 353 c 0,16,17
 173 353 173 353 182.5 346.5 c 128,-1,18
 192 340 192 340 197 332 c 0,19,20
 201 324 201 324 199 317 c 0,21,22
 196 309 196 309 189 299.5 c 128,-1,23
 182 290 182 290 172.5 282 c 128,-1,24
 163 274 163 274 152 269 c 128,-1,25
 141 264 141 264 132 264 c 2,26,-1
 121 264 l 2,27,28
 100 264 100 264 79 279 c 128,-1,29
 58 294 58 294 49 313 c 0,30,31
 49 316 49 316 47 320 c 0,32,33
 47 333 47 333 57 343 c 128,-1,34
 67 353 67 353 80 353 c 0,35,36
 90 353 90 353 99.5 346.5 c 128,-1,37
 109 340 109 340 114 332 c 0,38,39
 118 325 118 325 116 317 c 0,40,41
 114 310 114 310 108 301 c 128,-1,42
 102 292 102 292 94 283.5 c 128,-1,43
 86 275 86 275 76.5 269.5 c 128,-1,44
 67 264 67 264 59 264 c 0,45,46
 43 264 43 264 32 275 c 1,47,-1
 19 281 l 1,48,-1
 32 308 l 1,49,-1
 46 301 l 2,50,51
 47 301 47 301 50 298 c 0,52,53
 52 297 52 297 52.5 296.5 c 128,-1,54
 53 296 53 296 55 295 c 0,55,56
 56 295 56 295 57 294.5 c 128,-1,57
 58 294 58 294 59 294 c 0,58,59
 64 294 64 294 73.5 305 c 128,-1,60
 83 316 83 316 85 321 c 1,61,62
 85 321 85 321 81 323 c 0,63,64
 80 323 80 323 80 322.5 c 128,-1,65
 80 322 80 322 79 322 c 1,66,67
 85 314 85 314 97.5 304 c 128,-1,68
 110 294 110 294 121 294 c 2,69,-1
 132 294 l 2,70,71
 135 294 135 294 142 297 c 0,72,73
 146 300 146 300 149.5 302.5 c 128,-1,74
 153 305 153 305 157 309 c 0,75,76
 165 317 165 317 168 321 c 0,77,78
 167 322 167 322 166 322 c 128,-1,79
 165 322 165 322 164 323 c 0,80,81
 163 323 163 323 161 321 c 1,82,-1
 161 321 l 1,0,1
26 59 m 1,83,84
 26 77 26 77 36.5 90 c 128,-1,85
 47 103 47 103 62 110.5 c 128,-1,86
 77 118 77 118 94.5 121.5 c 128,-1,87
 112 125 112 125 127 125 c 0,88,89
 156 125 156 125 173.5 118 c 128,-1,90
 191 111 191 111 201 98 c 128,-1,91
 211 85 211 85 214 65.5 c 128,-1,92
 217 46 217 46 217 22 c 2,93,-1
 217 7 l 1,94,-1
 187 7 l 1,95,-1
 187 22 l 2,96,97
 187 30 187 30 187 37.5 c 128,-1,98
 187 45 187 45 186 53 c 0,99,100
 183 80 183 80 167 87.5 c 128,-1,101
 151 95 151 95 127 95 c 0,102,103
 120 95 120 95 107.5 93.5 c 128,-1,104
 95 92 95 92 84 87.5 c 128,-1,105
 73 83 73 83 64.5 76.5 c 128,-1,106
 56 70 56 70 56 59 c 2,107,-1
 56 44 l 1,108,-1
 26 44 l 1,109,-1
 26 59 l 1,110,-1
 26 59 l 1,83,84
26 167 m 1,111,112
 26 178 26 178 33 187 c 128,-1,113
 40 196 40 196 50 202 c 128,-1,114
 60 208 60 208 71.5 212 c 128,-1,115
 83 216 83 216 92 218 c 0,116,117
 116 223 116 223 135 217 c 0,118,119
 163 209 163 209 163 180 c 0,120,121
 163 153 163 153 138 144 c 0,122,123
 120 138 120 138 98 141 c 0,124,125
 88 143 88 143 78.5 145.5 c 128,-1,126
 69 148 69 148 59 151 c 0,127,128
 42 159 42 159 30 170 c 128,-1,129
 18 181 18 181 14 201 c 0,130,131
 12 213 12 213 18 223 c 128,-1,132
 24 233 24 233 33 241 c 2,133,-1
 44 251 l 1,134,-1
 64 229 l 1,135,-1
 53 219 l 2,136,137
 49 216 49 216 47.5 213.5 c 128,-1,138
 46 211 46 211 45 209 c 256,139,140
 44 207 44 207 44 206 c 0,141,142
 46 198 46 198 54 188 c 0,143,144
 55 187 55 187 58 185 c 2,145,-1
 70 179 l 2,146,147
 78 176 78 176 86.5 174.5 c 128,-1,148
 95 173 95 173 103 171 c 0,149,150
 116 168 116 168 129 172 c 0,151,152
 131 173 131 173 132 174 c 128,-1,153
 133 175 133 175 133 180 c 0,154,155
 133 187 133 187 128 188 c 0,156,157
 121 190 121 190 113.5 190 c 128,-1,158
 106 190 106 190 97 188 c 0,159,160
 82 185 82 185 70 179 c 0,161,162
 66 177 66 177 65 177 c 0,163,164
 58 172 58 172 57 170 c 128,-1,165
 56 168 56 168 56 167 c 2,166,-1
 56 7 l 1,167,-1
 26 7 l 1,168,-1
 26 167 l 1,169,-1
 26 167 l 1,111,112
EndSplineSet
Validated: 37
EndChar
StartChar: uniE458
Encoding: 92862 92862 82
Width: 328
Flags: W
LayerCount: 2
Fore
SplineSet
202 198 m 1,0,-1
 203 229 l 1,1,-1
 70 227 l 1,2,-1
 55 227 l 1,3,-1
 55 257 l 1,4,-1
 70 257 l 1,5,-1
 218 259 l 2,6,7
 224 259 224 259 228.5 254.5 c 128,-1,8
 233 250 233 250 233 244 c 2,9,-1
 232 198 l 1,10,-1
 287 198 l 2,11,12
 295 198 295 198 299.5 193 c 128,-1,13
 304 188 304 188 302 180 c 2,14,-1
 292 139 l 1,15,-1
 263 146 l 1,16,-1
 268 168 l 1,17,-1
 232 168 l 1,18,-1
 229 23 l 2,19,20
 229 6 229 6 216 6 c 0,21,22
 211 6 211 6 204 11 c 2,23,-1
 9 172 l 2,24,25
 -1 181 -1 181 2 190 c 128,-1,26
 5 199 5 199 19 199 c 2,27,-1
 202 198 l 1,0,-1
82 350 m 2,28,29
 84 350 84 350 91 355 c 0,30,31
 96 359 96 359 103 360 c 128,-1,32
 110 361 110 361 117 361 c 0,33,34
 132 361 132 361 153 348 c 1,35,36
 177 361 177 361 197 361 c 0,37,38
 202 361 202 361 213 357 c 128,-1,39
 224 353 224 353 228 349 c 2,40,-1
 238 338 l 1,41,-1
 217 317 l 1,42,-1
 206 327 l 1,43,44
 206 327 206 327 204 329 c 0,45,46
 201 331 201 331 197 331 c 0,47,48
 190 331 190 331 182 327 c 1,49,50
 192 319 192 319 197 308 c 0,51,52
 199 305 199 305 198.5 299.5 c 128,-1,53
 198 294 198 294 193 289 c 0,54,55
 185 280 185 280 173.5 276 c 128,-1,56
 162 272 162 272 150 272 c 256,57,58
 138 272 138 272 131.5 274.5 c 128,-1,59
 125 277 125 277 116 285 c 0,60,61
 106 293 106 293 108 303.5 c 128,-1,62
 110 314 110 314 115 319 c 0,63,64
 117 321 117 321 119.5 324 c 128,-1,65
 122 327 122 327 125 329 c 1,66,67
 119 331 119 331 117 331 c 0,68,69
 110 331 110 331 105 328 c 0,70,71
 102 326 102 326 98 324.5 c 128,-1,72
 94 323 94 323 92 322 c 2,73,-1
 78 317 l 1,74,-1
 68 345 l 1,75,-1
 82 350 l 2,28,29
202 168 m 1,76,-1
 61 169 l 1,77,-1
 200 54 l 1,78,-1
 202 168 l 1,76,-1
153 312 m 1,79,80
 146 308 146 308 142 304 c 1,81,82
 143 303 143 303 145 303 c 0,83,84
 149 302 149 302 155 302 c 0,85,86
 157 303 157 303 159 303 c 128,-1,87
 161 303 161 303 163 304 c 1,88,89
 161 306 161 306 153 312 c 1,90,-1
 153 312 l 1,79,80
EndSplineSet
Validated: 37
EndChar
StartChar: uniE452
Encoding: 92864 92864 83
Width: 308
Flags: W
LayerCount: 2
Fore
SplineSet
47 311 m 1,0,1
 64 335 64 335 85.5 348 c 128,-1,2
 107 361 107 361 136 361 c 0,3,4
 138 362 138 362 142 362 c 0,5,6
 176 362 176 362 200.5 348 c 128,-1,7
 225 334 225 334 240.5 311 c 128,-1,8
 256 288 256 288 264.5 259 c 128,-1,9
 273 230 273 230 274 201 c 0,10,11
 277 139 277 139 265 100 c 0,12,13
 237 8 237 8 141 8 c 0,14,15
 108 8 108 8 85 24.5 c 128,-1,16
 62 41 62 41 47.5 66 c 128,-1,17
 33 91 33 91 26 121 c 128,-1,18
 19 151 19 151 18 178 c 0,19,20
 15 263 15 263 47 311 c 1,21,-1
 47 311 l 1,0,1
48 180 m 1,22,23
 49 160 49 160 53.5 136.5 c 128,-1,24
 58 113 58 113 67.5 92 c 128,-1,25
 77 71 77 71 93 56 c 128,-1,26
 109 41 109 41 133 38 c 1,27,-1
 133 331 l 1,28,29
 96 331 96 331 72 294 c 0,30,31
 59 275 59 275 52.5 246.5 c 128,-1,32
 46 218 46 218 48 180 c 1,33,-1
 48 180 l 1,22,23
236 109 m 1,34,35
 247 142 247 142 244 199 c 0,36,37
 243 221 243 221 238.5 242.5 c 128,-1,38
 234 264 234 264 224.5 282 c 128,-1,39
 215 300 215 300 200 313 c 128,-1,40
 185 326 185 326 163 330 c 1,41,-1
 163 40 l 1,42,43
 195 48 195 48 210 62 c 128,-1,44
 225 76 225 76 236 109 c 1,45,-1
 236 109 l 1,34,35
EndSplineSet
Validated: 33
EndChar
StartChar: uniE449
Encoding: 92865 92865 84
Width: 257
Flags: W
LayerCount: 2
Fore
SplineSet
24 305 m 1,0,1
 39 332 39 332 71.5 348.5 c 128,-1,2
 104 365 104 365 135 365 c 0,3,4
 183 365 183 365 203 336.5 c 128,-1,5
 223 308 223 308 223 262 c 0,6,7
 223 240 223 240 220 220 c 0,8,9
 215 187 215 187 209.5 156 c 128,-1,10
 204 125 204 125 193 93 c 0,11,12
 188 76 188 76 184 58.5 c 128,-1,13
 180 41 180 41 175 21 c 2,14,-1
 171 7 l 1,15,-1
 142 14 l 1,16,-1
 145 29 l 2,17,18
 150 49 150 49 155 66.5 c 128,-1,19
 160 84 160 84 165 101 c 0,20,21
 173 128 173 128 179 156 c 128,-1,22
 185 184 185 184 189 212 c 1,23,24
 172 200 172 200 150 194 c 128,-1,25
 128 188 128 188 108 188 c 0,26,27
 76 188 76 188 49.5 206 c 128,-1,28
 23 224 23 224 14 256 c 0,29,30
 10 280 10 280 24 305 c 1,31,-1
 24 305 l 1,0,1
44 263 m 1,32,33
 51 240 51 240 69.5 229 c 128,-1,34
 88 218 88 218 111 218 c 0,35,36
 126 218 126 218 135 219 c 128,-1,37
 144 220 144 220 151.5 223.5 c 128,-1,38
 159 227 159 227 166 233 c 128,-1,39
 173 239 173 239 184 249 c 2,40,-1
 193 257 l 1,41,42
 193 272 193 272 191 286.5 c 128,-1,43
 189 301 189 301 183.5 311.5 c 128,-1,44
 178 322 178 322 167 328.5 c 128,-1,45
 156 335 156 335 138 335 c 0,46,47
 112 335 112 335 88 322.5 c 128,-1,48
 64 310 64 310 50 289 c 0,49,50
 41 274 41 274 44 263 c 1,51,-1
 44 263 l 1,32,33
EndSplineSet
Validated: 33
EndChar
StartChar: uniE44A
Encoding: 92866 92866 85
Width: 232
Flags: W
LayerCount: 2
Fore
SplineSet
13 362 m 1,0,-1
 43 362 l 1,1,-1
 43 190 l 1,2,3
 61 201 61 201 82.5 206 c 128,-1,4
 104 211 104 211 124 211 c 0,5,6
 156 211 156 211 177.5 191.5 c 128,-1,7
 199 172 199 172 201 140 c 0,8,9
 203 121 203 121 200 105 c 0,10,11
 196 83 196 83 190 60 c 128,-1,12
 184 37 184 37 170 19 c 0,13,14
 165 12 165 12 157 9.5 c 128,-1,15
 149 7 149 7 141 7 c 0,16,17
 129 7 129 7 122 15.5 c 128,-1,18
 115 24 115 24 112 34 c 0,19,20
 109 46 109 46 110 55 c 0,21,22
 111 65 111 65 117 76 c 0,23,24
 126 87 126 87 139 94 c 128,-1,25
 152 101 152 101 166 106 c 2,26,-1
 169 107 l 2,27,28
 169 108 169 108 169.5 109 c 128,-1,29
 170 110 170 110 170 111 c 0,30,31
 172 117 172 117 172 123.5 c 128,-1,32
 172 130 172 130 172 138 c 0,33,34
 167 181 167 181 124 181 c 0,35,36
 104 181 104 181 81.5 175 c 128,-1,37
 59 169 59 169 45 155 c 2,38,-1
 43 153 l 1,39,-1
 43 8 l 1,40,-1
 13 8 l 1,41,-1
 13 362 l 1,0,-1
143 37 m 1,42,43
 149 37 149 37 154 49.5 c 128,-1,44
 159 62 159 62 162 72 c 1,45,46
 155 69 155 69 147.5 64.5 c 128,-1,47
 140 60 140 60 140 51 c 0,48,49
 139 49 139 49 139.5 47 c 128,-1,50
 140 45 140 45 140 43 c 2,51,-1
 143 37 l 1,42,43
EndSplineSet
Validated: 33
EndChar
StartChar: uniE44B
Encoding: 92867 92867 86
Width: 312
Flags: W
LayerCount: 2
Fore
SplineSet
15 103 m 1,0,1
 19 120 19 120 32.5 141 c 128,-1,2
 46 162 46 162 65 182 c 1,3,4
 54 190 54 190 47.5 200 c 128,-1,5
 41 210 41 210 41 222 c 0,6,7
 41 231 41 231 45.5 241.5 c 128,-1,8
 50 252 50 252 58 262 c 1,9,10
 42 267 42 267 28 274 c 2,11,-1
 15 281 l 1,12,-1
 29 307 l 1,13,-1
 42 300 l 2,14,15
 50 296 50 296 59.5 293 c 128,-1,16
 69 290 69 290 80 287 c 1,17,18
 112 319 112 319 151.5 340 c 128,-1,19
 191 361 191 361 236 361 c 0,20,21
 251 361 251 361 258 354 c 128,-1,22
 265 347 265 347 268 334 c 0,23,24
 272 317 272 317 260 300 c 0,25,26
 251 287 251 287 235 278 c 128,-1,27
 219 269 219 269 200.5 263 c 128,-1,28
 182 257 182 257 162.5 254.5 c 128,-1,29
 143 252 143 252 128 252 c 0,30,31
 109 252 109 252 92 255 c 1,32,33
 87 250 87 250 83.5 245 c 128,-1,34
 80 240 80 240 76 235 c 256,35,36
 72 230 72 230 71.5 227 c 128,-1,37
 71 224 71 224 71 222 c 0,38,39
 71 212 71 212 88 202 c 1,40,41
 121 230 121 230 161 230 c 0,42,43
 166 230 166 230 175.5 229 c 128,-1,44
 185 228 185 228 194 225 c 128,-1,45
 203 222 203 222 210 217.5 c 128,-1,46
 217 213 217 213 217 206 c 0,47,48
 220 199 220 199 217.5 193 c 128,-1,49
 215 187 215 187 213 185 c 0,50,51
 203 175 203 175 190 169.5 c 128,-1,52
 177 164 177 164 163 161 c 0,53,54
 148 156 148 156 135 156 c 0,55,56
 114 156 114 156 92 166 c 1,57,58
 75 150 75 150 62 131 c 128,-1,59
 49 112 49 112 43 95 c 0,60,61
 39 84 39 84 45 76 c 0,62,63
 61 55 61 55 83 46 c 128,-1,64
 105 37 105 37 131 37 c 0,65,66
 163 37 163 37 194.5 50 c 128,-1,67
 226 63 226 63 250 83 c 2,68,-1
 261 92 l 1,69,-1
 280 69 l 1,70,-1
 268 59 l 2,71,72
 240 36 240 36 199.5 21.5 c 128,-1,73
 159 7 159 7 123 7 c 0,74,75
 93 7 93 7 64.5 21 c 128,-1,76
 36 35 36 35 19 60 c 0,77,78
 7 78 7 78 15 103 c 1,79,-1
 15 103 l 1,0,1
119 282 m 1,80,81
 133 282 133 282 149.5 283.5 c 128,-1,82
 166 285 166 285 181.5 289 c 128,-1,83
 197 293 197 293 211.5 300 c 128,-1,84
 226 307 226 307 236 317 c 0,85,86
 241 322 241 322 238 330 c 0,87,88
 238 331 238 331 235 332 c 0,89,90
 203 332 203 332 173.5 318 c 128,-1,91
 144 304 144 304 119 282 c 1,92,-1
 119 282 l 1,80,81
120 188 m 1,93,94
 121 188 121 188 121.5 187.5 c 128,-1,95
 122 187 122 187 123 187 c 0,96,97
 127 186 127 186 134 186 c 0,98,99
 146 186 146 186 158 189.5 c 128,-1,100
 170 193 170 193 181 198 c 1,101,102
 179 199 179 199 176 199 c 128,-1,103
 173 199 173 199 170 200 c 0,104,105
 164 200 164 200 158 200 c 128,-1,106
 152 200 152 200 144 199 c 0,107,108
 133 196 133 196 120 188 c 1,109,-1
 120 188 l 1,93,94
EndSplineSet
Validated: 37
EndChar
StartChar: uniE44C
Encoding: 92868 92868 87
Width: 244
Flags: W
LayerCount: 2
Fore
SplineSet
11 296 m 1,0,1
 13 313 13 313 13 329 c 128,-1,2
 13 345 13 345 13 360 c 1,3,-1
 43 360 l 1,4,-1
 43 234 l 1,5,6
 48 205 48 205 64.5 192.5 c 128,-1,7
 81 180 81 180 110 180 c 0,8,9
 120 180 120 180 130 185 c 0,10,11
 145 198 145 198 154.5 217.5 c 128,-1,12
 164 237 164 237 169 259.5 c 128,-1,13
 174 282 174 282 176 305 c 128,-1,14
 178 328 178 328 179 347 c 2,15,-1
 179 362 l 1,16,-1
 209 362 l 1,17,-1
 209 347 l 2,18,19
 208 327 208 327 205.5 300 c 128,-1,20
 203 273 203 273 196.5 246 c 128,-1,21
 190 219 190 219 178 196 c 128,-1,22
 166 173 166 173 146 161 c 0,23,24
 132 150 132 150 110 150 c 0,25,26
 89 150 89 150 72 155 c 128,-1,27
 55 160 55 160 43 172 c 1,28,-1
 43 7 l 1,29,-1
 13 7 l 1,30,-1
 13 234 l 1,31,32
 8 265 8 265 11 296 c 1,33,-1
 11 296 l 1,0,1
EndSplineSet
Validated: 33
EndChar
StartChar: uniE44D
Encoding: 92869 92869 88
Width: 332
Flags: W
LayerCount: 2
Fore
SplineSet
139 218 m 1,0,1
 146 218 146 218 152 218 c 128,-1,2
 158 218 158 218 164 217 c 2,3,-1
 183 217 l 1,4,5
 183 220 183 220 182.5 223 c 128,-1,6
 182 226 182 226 182 229 c 0,7,8
 179 251 179 251 180 270 c 2,9,-1
 180 275 l 1,10,11
 162 275 162 275 149.5 275.5 c 128,-1,12
 137 276 137 276 125.5 278.5 c 128,-1,13
 114 281 114 281 102.5 286.5 c 128,-1,14
 91 292 91 292 76 301 c 2,15,-1
 63 309 l 1,16,-1
 79 335 l 1,17,-1
 92 327 l 2,18,19
 108 317 108 317 126.5 311 c 128,-1,20
 145 305 145 305 164 305 c 0,21,22
 168 305 168 305 172.5 305 c 128,-1,23
 177 305 177 305 182 306 c 1,24,25
 186 328 186 328 198 340.5 c 128,-1,26
 210 353 210 353 233 353 c 0,27,28
 239 353 239 353 246.5 351 c 128,-1,29
 254 349 254 349 260.5 345.5 c 128,-1,30
 267 342 267 342 272 336.5 c 128,-1,31
 277 331 277 331 277 325 c 0,32,33
 278 314 278 314 270 306 c 0,34,35
 256 292 256 292 241.5 286.5 c 128,-1,36
 227 281 227 281 210 278 c 0,37,38
 209 275 209 275 209 270 c 0,39,40
 209 253 209 253 210.5 237 c 128,-1,41
 212 221 212 221 217 205 c 0,42,43
 220 196 220 196 215.5 190 c 128,-1,44
 211 184 211 184 201 185 c 0,45,46
 197 185 197 185 192 185.5 c 128,-1,47
 187 186 187 186 182 187 c 0,48,49
 178 187 178 187 173 187 c 128,-1,50
 168 187 168 187 163 188 c 2,51,-1
 139 188 l 2,52,53
 125 188 125 188 113 186 c 128,-1,54
 101 184 101 184 91 181 c 0,55,56
 72 173 72 173 56 157.5 c 128,-1,57
 40 142 40 142 40 119 c 0,58,59
 40 74 40 74 63 56 c 128,-1,60
 86 38 86 38 127 38 c 0,61,62
 156 38 156 38 186 44.5 c 128,-1,63
 216 51 216 51 238 71 c 0,64,65
 245 77 245 77 251.5 82.5 c 128,-1,66
 258 88 258 88 265 93 c 2,67,-1
 277 102 l 1,68,-1
 295 78 l 1,69,-1
 283 69 l 2,70,71
 277 64 277 64 270.5 59 c 128,-1,72
 264 54 264 54 258 49 c 0,73,74
 227 23 227 23 189 15.5 c 128,-1,75
 151 8 151 8 113 8 c 0,76,77
 62 8 62 8 36 39.5 c 128,-1,78
 10 71 10 71 10 119 c 0,79,80
 10 144 10 144 22 162.5 c 128,-1,81
 34 181 34 181 53 193.5 c 128,-1,82
 72 206 72 206 94.5 212 c 128,-1,83
 117 218 117 218 139 218 c 1,84,-1
 139 218 l 1,0,1
239 319 m 1,85,86
 240 319 240 319 242 321 c 1,87,88
 240 321 240 321 239.5 321.5 c 128,-1,89
 239 322 239 322 238 322 c 0,90,91
 235 323 235 323 227 323 c 0,92,93
 221 321 221 321 218 319 c 1,94,95
 218 320 218 320 214 310 c 1,96,97
 223 312 223 312 229 314.5 c 128,-1,98
 235 317 235 317 239 319 c 1,99,-1
 239 319 l 1,85,86
EndSplineSet
Validated: 37
EndChar
StartChar: uniE44E
Encoding: 92870 92870 89
Width: 240
Flags: W
LayerCount: 2
Fore
SplineSet
6 98 m 1,0,1
 12 127 12 127 32 139 c 128,-1,2
 52 151 52 151 80 151 c 0,3,4
 105 151 105 151 126 145 c 128,-1,5
 147 139 147 139 167 124 c 1,6,-1
 167 193 l 1,7,8
 164 188 164 188 158 184.5 c 128,-1,9
 152 181 152 181 144.5 178.5 c 128,-1,10
 137 176 137 176 129.5 174.5 c 128,-1,11
 122 173 122 173 117 173 c 0,12,13
 100 173 100 173 84 177 c 128,-1,14
 68 181 68 181 56 189.5 c 128,-1,15
 44 198 44 198 36.5 211.5 c 128,-1,16
 29 225 29 225 29 244 c 2,17,-1
 29 362 l 1,18,-1
 59 362 l 1,19,-1
 59 244 l 2,20,21
 59 219 59 219 78 211 c 128,-1,22
 97 203 97 203 117 203 c 0,23,24
 143 203 143 203 154 224 c 128,-1,25
 165 245 165 245 167 267 c 2,26,-1
 167 347 l 2,27,28
 167 355 167 355 172 359 c 128,-1,29
 177 363 177 363 182 363 c 0,30,31
 188 363 188 363 192.5 359 c 128,-1,32
 197 355 197 355 197 347 c 2,33,-1
 197 92 l 2,34,35
 197 75 197 75 184 75 c 0,36,37
 178 75 178 75 172 81 c 0,38,39
 151 102 151 102 130 111.5 c 128,-1,40
 109 121 109 121 80 121 c 0,41,42
 66 121 66 121 51.5 116 c 128,-1,43
 37 111 37 111 35 94 c 0,44,45
 33 81 33 81 40 66 c 0,46,47
 48 50 48 50 61 40 c 2,48,-1
 73 31 l 1,49,-1
 55 7 l 1,50,-1
 43 16 l 2,51,52
 24 31 24 31 13 54 c 0,53,54
 2 78 2 78 6 98 c 1,55,-1
 6 98 l 1,0,1
EndSplineSet
Validated: 33
EndChar
StartChar: uniE44F
Encoding: 92871 92871 90
Width: 256
Flags: W
LayerCount: 2
Fore
SplineSet
4 155 m 1,0,1
 12 194 12 194 44 217.5 c 128,-1,2
 76 241 76 241 115 241 c 0,3,4
 129 241 129 241 148.5 238 c 128,-1,5
 168 235 168 235 179 227 c 1,6,-1
 179 362 l 1,7,-1
 209 362 l 1,8,-1
 209 206 l 2,9,10
 209 191 209 191 196 191 c 0,11,12
 191 191 191 191 189 192 c 0,13,14
 173 200 173 200 151.5 205.5 c 128,-1,15
 130 211 130 211 112 211 c 0,16,17
 48 211 48 211 33 150 c 0,18,19
 30 139 30 139 32 129 c 0,20,21
 37 96 37 96 49.5 77.5 c 128,-1,22
 62 59 62 59 80.5 50 c 128,-1,23
 99 41 99 41 122.5 39 c 128,-1,24
 146 37 146 37 173 37 c 0,25,26
 182 37 182 37 191 37.5 c 128,-1,27
 200 38 200 38 209 38 c 2,28,-1
 224 38 l 1,29,-1
 224 8 l 1,30,-1
 209 8 l 1,31,-1
 139 8 l 2,32,33
 78 8 78 8 43 36.5 c 128,-1,34
 8 65 8 65 2 125 c 0,35,36
 1 138 1 138 4 155 c 1,37,-1
 4 155 l 1,0,1
EndSplineSet
Validated: 33
EndChar
StartChar: uniE450
Encoding: 92872 92872 91
Width: 228
Flags: W
LayerCount: 2
Fore
SplineSet
2 380 m 1,0,-1
 32 380 l 1,1,-1
 32 365 l 2,2,3
 32 354 32 354 32 341 c 128,-1,4
 32 328 32 328 31 311 c 0,5,6
 31 294 31 294 32 282 c 128,-1,7
 33 270 33 270 35 261 c 0,8,9
 41 226 41 226 77 226 c 0,10,11
 93 226 93 226 108 232 c 1,12,-1
 108 304 l 2,13,14
 108 315 108 315 109 328 c 128,-1,15
 110 341 110 341 114.5 352.5 c 128,-1,16
 119 364 119 364 127.5 371.5 c 128,-1,17
 136 379 136 379 151 379 c 0,18,19
 164 379 164 379 172 372.5 c 128,-1,20
 180 366 180 366 184.5 356 c 128,-1,21
 189 346 189 346 191 334 c 128,-1,22
 193 322 193 322 194 312 c 0,23,24
 196 295 196 295 188 277 c 0,25,26
 171 235 171 235 138 214 c 1,27,-1
 138 -10 l 1,28,-1
 108 -10 l 1,29,-1
 108 200 l 1,30,31
 95 196 95 196 77 196 c 0,32,33
 48 196 48 196 29.5 211.5 c 128,-1,34
 11 227 11 227 6 255 c 0,35,36
 4 266 4 266 2.5 280 c 128,-1,37
 1 294 1 294 2 311 c 2,38,-1
 2 380 l 1,0,-1
164 310 m 1,39,40
 164 312 164 312 163.5 318.5 c 128,-1,41
 163 325 163 325 161.5 332 c 128,-1,42
 160 339 160 339 157.5 344 c 128,-1,43
 155 349 155 349 151 349 c 0,44,45
 149 349 149 349 147.5 348.5 c 128,-1,46
 146 348 146 348 144 343 c 0,47,48
 138 333 138 333 138 304 c 2,49,-1
 138 253 l 1,50,51
 149 264 149 264 156.5 279 c 128,-1,52
 164 294 164 294 164 310 c 1,53,-1
 164 310 l 1,39,40
EndSplineSet
Validated: 37
EndChar
StartChar: uniE451
Encoding: 92873 92873 92
Width: 252
Flags: W
LayerCount: 2
Fore
SplineSet
137 217 m 1,0,1
 139 220 139 220 145 226 c 0,2,3
 174 255 174 255 184 286 c 0,4,5
 194 316 194 316 183 332 c 0,6,7
 173 348 173 348 155 348 c 0,8,9
 134 348 134 348 114 340 c 128,-1,10
 94 332 94 332 78 318.5 c 128,-1,11
 62 305 62 305 51.5 286.5 c 128,-1,12
 41 268 41 268 39 247 c 0,13,14
 39 231 39 231 48 221 c 128,-1,15
 57 211 57 211 72 208 c 2,16,-1
 89 208 l 2,17,18
 94 209 94 209 104.5 211 c 128,-1,19
 115 213 115 213 131 216 c 2,20,-1
 137 217 l 1,21,-1
 137 217 l 1,0,1
110 181 m 1,22,23
 104 180 104 180 100 180 c 128,-1,24
 96 180 96 180 93 179 c 0,25,26
 88 178 88 178 78 178 c 0,27,28
 61 178 61 178 45 186.5 c 128,-1,29
 29 195 29 195 20 209 c 0,30,31
 8 225 8 225 10 247 c 0,32,33
 10 274 10 274 23 298 c 128,-1,34
 36 322 36 322 56.5 339.5 c 128,-1,35
 77 357 77 357 103 367.5 c 128,-1,36
 129 378 129 378 155 378 c 0,37,38
 190 378 190 378 209 348 c 0,39,40
 219 333 219 333 219.5 315 c 128,-1,41
 220 297 220 297 213 277 c 0,42,43
 200 238 200 238 167 204 c 0,44,45
 144 180 144 180 122.5 144.5 c 128,-1,46
 101 109 101 109 91 76 c 0,47,48
 88 67 88 67 89 60.5 c 128,-1,49
 90 54 90 54 92 49 c 0,50,51
 95 43 95 43 101 35 c 128,-1,52
 107 27 107 27 115 27 c 0,53,54
 120 26 120 26 123.5 25.5 c 128,-1,55
 127 25 127 25 132 25 c 0,56,57
 145 27 145 27 151.5 31 c 128,-1,58
 158 35 158 35 168 44 c 2,59,-1
 179 54 l 1,60,-1
 199 32 l 1,61,-1
 188 22 l 2,62,63
 180 15 180 15 174.5 10.5 c 128,-1,64
 169 6 169 6 164 3.5 c 128,-1,65
 159 1 159 1 152.5 -1 c 128,-1,66
 146 -3 146 -3 135 -5 c 2,67,-1
 133 -5 l 2,68,69
 108 -5 108 -5 91.5 4.5 c 128,-1,70
 75 14 75 14 64 37 c 0,71,72
 55 56 55 56 63 84 c 0,73,74
 70 107 70 107 82 132.5 c 128,-1,75
 94 158 94 158 110 181 c 1,76,-1
 110 181 l 1,22,23
EndSplineSet
Validated: 37
EndChar
StartChar: .notdef
Encoding: 1114112 -1 0
Width: 187
Flags: W
LayerCount: 2
Fore
SplineSet
17 0 m 1,0,-1
 17 341 l 1,1,-1
 153 341 l 1,2,-1
 153 0 l 1,3,-1
 17 0 l 1,0,-1
34 17 m 1,4,-1
 136 17 l 1,5,-1
 136 324 l 1,6,-1
 34 324 l 1,7,-1
 34 17 l 1,4,-1
EndSplineSet
Validated: 1
EndChar
